<svg xmlns="http://www.w3.org/2000/svg" width="54" height="54" viewBox="0 0 54 54">
  <g id="Groupe_237" data-name="Groupe 237" transform="translate(-401.39 -1083.39)">
    <circle id="Ellipse_5" data-name="Ellipse 5" cx="27" cy="27" r="27" transform="translate(401.39 1083.39)" fill="#c09426"/>
    <path id="Tracé_282" data-name="Tracé 282" d="M-373.2-1204.205c-.014-.283-.022-.752-.03-1.295a46.578,46.578,0,0,0-.262-5.037,41.706,41.706,0,0,0-2.361-8.346,2.936,2.936,0,0,0-.358-.5,3,3,0,0,0,.214-1.1l.046-1.516a2.576,2.576,0,0,0-1.01-2.082,2.441,2.441,0,0,0-1.558-.46.493.493,0,0,1,.032-.047c.591-.594.728-1.233.357-1.67a2.847,2.847,0,0,0-1.836-.671,1.851,1.851,0,0,0-.67.358,1.355,1.355,0,0,0-.112-.2,1.3,1.3,0,0,0-.882-.591c-.107-.009-.211-.01-.3-.012a1.031,1.031,0,0,1-.368-.041,1.522,1.522,0,0,0-.837-.213,1.964,1.964,0,0,1-.32-.035,1.443,1.443,0,0,0-1.174.068l-.064.028a1.144,1.144,0,0,0-.655-.77.562.562,0,0,0-.474.072c-.053.02-.187.057-.286.084a4,4,0,0,0-.939.344.717.717,0,0,0-.433.862l0,.011c.007.085.065.411.569,2.45a2.469,2.469,0,0,0-1.839.427,2.576,2.576,0,0,0-1.01,2.082v1.516a2.891,2.891,0,0,0,.566,1.73c.008.019.018.037.027.055a10.745,10.745,0,0,0-1.881,3.18c-.26.759-.57,2.293-.844,3.647-.137.674-.266,1.311-.365,1.733a20.3,20.3,0,0,0-.344,5.381,2.406,2.406,0,0,0,2.2,2.42l.181.05.128.036a15.709,15.709,0,0,0,3.572.531c1.107.1,2.079.128,2.99.128.527,0,1.033-.009,1.533-.018.7-.012,1.358-.024,2.029-.01a15.094,15.094,0,0,0,4.559-.408C-374.16-1202.331-373.127-1202.706-373.2-1204.205Zm-4.266-19.229a1.73,1.73,0,0,1,.674,1.424v1.515a2.3,2.3,0,0,1-.046.444,1.689,1.689,0,0,0-.383-.352c-1.179-.781-3.383-.291-4.133-.107h0v-.459a.21.21,0,0,0,.046-.061,2.994,2.994,0,0,1,1.408-.505.406.406,0,0,0,.337-.474.4.4,0,0,0-.475-.337,5.764,5.764,0,0,0-1.332.383v-.4C-381.068-1222.623-378.833-1224.429-377.47-1223.434Zm-3.506,3.674c.9-.214,2.541-.459,3.307.046a.894.894,0,0,1,.4.612c-.122.306-.75.459-1.317.459h0A3.652,3.652,0,0,1-380.976-1219.76Zm1.959,4.99-.658-.674a.407.407,0,0,0-.337-.123.435.435,0,0,0-.306.184l-.352.6a11.492,11.492,0,0,0-.689-4.225,4.923,4.923,0,0,0,1.378.873A6.62,6.62,0,0,1-379.017-1214.77Zm-7.575-12.24c0-.018,0-.042.062-.087a2.939,2.939,0,0,1,.651-.215c.108-.03.2-.055.278-.08.045-.011.055.114.085.2a.863.863,0,0,0,.444.541.846.846,0,0,0,.708-.077l.08-.036c.28-.12.389-.1.46-.073a1.86,1.86,0,0,0,.626.11,1.938,1.938,0,0,1,.37.045,1.443,1.443,0,0,0,.878.211c.084,0,.163,0,.238.009a.635.635,0,0,1,.254.251.669.669,0,0,0,.115.517.614.614,0,0,0,.49.248c.186,0,.318-.1.608-.3a4.452,4.452,0,0,1,.437-.291,2.593,2.593,0,0,1,.988.361.961.961,0,0,1-.307.473,2.772,2.772,0,0,0-.45.875,7.009,7.009,0,0,0-1.888,1.023.4.4,0,0,0-.322-.138h-2.189a.385.385,0,0,0-.306.138,7.451,7.451,0,0,0-1.675-.94C-386.245-1225.423-386.56-1226.816-386.592-1227.01Zm4.376,4.4v2.756h-1.332v-2.756Zm-6.246,3.506a.847.847,0,0,1,.4-.612c.765-.505,2.4-.26,3.307-.046a3.621,3.621,0,0,1-2.388,1.118h0C-387.712-1218.643-388.339-1218.8-388.462-1219.1Zm2.71.98a5.2,5.2,0,0,0,1.378-.873,11.346,11.346,0,0,0-.674,4.21h0l-.367-.582a.367.367,0,0,0-.306-.184.406.406,0,0,0-.337.123l-.658.674A6.579,6.579,0,0,1-385.752-1218.122Zm-3.2-3.888a1.773,1.773,0,0,1,.674-1.424c1.347-.98,3.475.72,3.873,1.041v.413a5.612,5.612,0,0,0-1.3-.367.426.426,0,0,0-.475.337.426.426,0,0,0,.337.474,3.179,3.179,0,0,1,1.408.505.015.015,0,0,0,.015.015v.49c-.765-.2-2.939-.658-4.118.123a3.987,3.987,0,0,0-.367.352h0a2.183,2.183,0,0,1-.046-.444Zm13.326,19.117a14.267,14.267,0,0,1-4.329.383c-.689-.015-1.357,0-2.064.01a38.255,38.255,0,0,1-4.426-.107,14.993,14.993,0,0,1-3.409-.5l-.13-.037-.19-.052c-.808-.219-1.506-.409-1.538-1.583a19.551,19.551,0,0,1,.32-5.151c.1-.436.233-1.08.371-1.761.255-1.261.573-2.831.814-3.535a9.651,9.651,0,0,1,1.7-2.87,3.182,3.182,0,0,0,1.33.266h.046c.092,0,.184-.015.26-.015a10.639,10.639,0,0,0-.7,4.118.4.4,0,0,0,.26.367.433.433,0,0,0,.444-.092l1.026-1.041.888,1.424a.424.424,0,0,0,.352.2.3.3,0,0,0,.122-.015.4.4,0,0,0,.275-.413c-.092-1.148-.107-4.3.75-5.679h1.148c.857,1.378.842,4.531.75,5.679a.4.4,0,0,0,.276.413.384.384,0,0,0,.122.015.424.424,0,0,0,.352-.2l.888-1.424,1.026,1.041a.4.4,0,0,0,.444.092.4.4,0,0,0,.26-.367,10.6,10.6,0,0,0-.7-4.118,1.578,1.578,0,0,0,.26.015h.046a2.4,2.4,0,0,0,1.9-.709c.019.03.038.06.054.089a41.325,41.325,0,0,1,2.258,8.039,45.971,45.971,0,0,1,.253,4.926c.009.574.016,1.028.031,1.327C-374.062-1203.505-374.18-1203.245-375.626-1202.893Z" transform="translate(811.303 2325.361)" fill="#fff"/>
  </g>
</svg>
