<?xml version="1.0" encoding="utf-8"?>
<!-- Generator: Adobe Illustrator 27.0.1, SVG Export Plug-In . SVG Version: 6.00 Build 0)  -->
<svg version="1.1" id="Calque_1" xmlns="http://www.w3.org/2000/svg" xmlns:xlink="http://www.w3.org/1999/xlink" x="0px" y="0px"
	 viewBox="0 0 5.3 3.1" style="enable-background:new 0 0 5.3 3.1;" xml:space="preserve">
<style type="text/css">
	.st0{clip-path:url(#SVGID_00000176024424888209193400000003538246077852242350_);}
	.st1{fill:#B78016;}
</style>
<g id="Groupe_357" transform="translate(10.243) rotate(90)">
	<g>
		<g>
			<defs>
				<rect id="SVGID_1_" x="-2.1" y="2.5" width="5.1" height="10.2"/>
			</defs>
			<clipPath id="SVGID_00000040534274966541489580000017150706428723342981_">
				<use xlink:href="#SVGID_1_"  style="overflow:visible;"/>
			</clipPath>
			
				<g id="Groupe_347" transform="translate(0 0.001)" style="clip-path:url(#SVGID_00000040534274966541489580000017150706428723342981_);">
				<path id="Tracé_560" class="st1" d="M-1.9,12.5L-1.9,12.5C-2,12.4-2,12.2-1.9,12l0,0l4.1-4.1c0.2-0.2,0.2-0.6,0-0.9l-4.1-4
					C-2,2.9-2,2.6-1.9,2.5c0.1-0.1,0.4-0.1,0.5,0l4.1,4.1c0.5,0.5,0.5,1.4,0,1.9l-4.1,4.1C-1.5,12.7-1.8,12.7-1.9,12.5L-1.9,12.5"/>
			</g>
		</g>
	</g>
</g>
</svg>
