<svg id="Groupe_513" data-name="Groupe 513" xmlns="http://www.w3.org/2000/svg" xmlns:xlink="http://www.w3.org/1999/xlink" width="66.362" height="91.25" viewBox="0 0 66.362 91.25">
  <defs>
    <clipPath id="clip-path">
      <rect id="Rectangle_108" data-name="Rectangle 108" width="66.362" height="91.25" fill="none"/>
    </clipPath>
  </defs>
  <g id="Groupe_512" data-name="Groupe 512" clip-path="url(#clip-path)">
    <path id="Tracé_575" data-name="Tracé 575" d="M65.267.245a2.069,2.069,0,0,0-2.128.1L59.22,2.964a2.069,2.069,0,0,1-2.3,0L55.3,1.883a6.2,6.2,0,0,0-6.9,0L46.779,2.964a2.069,2.069,0,0,1-2.3,0L42.855,1.883a6.2,6.2,0,0,0-6.9,0L34.336,2.964a2.064,2.064,0,0,1-2.3,0L30.415,1.883a6.2,6.2,0,0,0-6.9,0L21.9,2.964a2.064,2.064,0,0,1-2.3,0L17.975,1.883a6.2,6.2,0,0,0-6.9,0L9.456,2.964a2.069,2.069,0,0,1-2.3,0L3.225.349A2.074,2.074,0,0,0,0,2.074v87.1A2.072,2.072,0,0,0,3.223,90.9l3.92-2.615a2.064,2.064,0,0,1,2.3,0l1.622,1.081a6.2,6.2,0,0,0,6.9,0l1.617-1.081a2.064,2.064,0,0,1,2.3,0L23.5,89.366a6.2,6.2,0,0,0,6.9,0l1.617-1.081a2.064,2.064,0,0,1,2.3,0l1.622,1.081a6.2,6.2,0,0,0,6.9,0l1.617-1.081a2.069,2.069,0,0,1,2.3,0l1.622,1.081a6.2,6.2,0,0,0,6.9,0L56.9,88.285a2.069,2.069,0,0,1,2.3,0L63.127,90.9a2.143,2.143,0,0,0,1.161.348,2.071,2.071,0,0,0,2.074-2.074V2.074A2.076,2.076,0,0,0,65.267.245ZM62.215,85.3l-.7-.465a6.2,6.2,0,0,0-6.9,0L53,85.914a2.069,2.069,0,0,1-2.3,0l-1.622-1.081a6.207,6.207,0,0,0-6.9,0l-1.617,1.081a2.069,2.069,0,0,1-2.3,0l-1.622-1.081a6.207,6.207,0,0,0-6.9,0l-1.617,1.081a2.064,2.064,0,0,1-2.3,0l-1.622-1.081a6.207,6.207,0,0,0-6.9,0l-1.617,1.081a2.064,2.064,0,0,1-2.3,0l-1.622-1.081a6.2,6.2,0,0,0-6.9,0l-.7.465V5.949l.7.465a6.2,6.2,0,0,0,6.9,0l1.617-1.081a2.064,2.064,0,0,1,2.3,0l1.622,1.081a6.2,6.2,0,0,0,6.9,0L25.8,5.333a2.064,2.064,0,0,1,2.3,0l1.622,1.081a6.2,6.2,0,0,0,6.9,0l1.617-1.081a2.069,2.069,0,0,1,2.3,0l1.622,1.081a6.2,6.2,0,0,0,6.9,0l1.617-1.081a2.069,2.069,0,0,1,2.3,0l1.622,1.081a6.2,6.2,0,0,0,6.9,0l.707-.465Z" transform="translate(0 0.001)" fill="#fff"/>
    <path id="Tracé_576" data-name="Tracé 576" d="M124.351,118.7a2.074,2.074,0,1,0,0-4.148H91.171a2.074,2.074,0,0,0,0,4.148Z" transform="translate(-74.579 -95.887)" fill="#fff"/>
    <path id="Tracé_577" data-name="Tracé 577" d="M160.738,167.533a2.072,2.072,0,0,0-2.074-2.074H142.074a2.074,2.074,0,0,0,0,4.148h16.591a2.072,2.072,0,0,0,2.074-2.074" transform="translate(-117.188 -138.499)" fill="#fff"/>
    <path id="Tracé_578" data-name="Tracé 578" d="M114.263,254.556H103.894a2.074,2.074,0,0,0,0,4.148h10.369a2.074,2.074,0,1,0,0-4.148" transform="translate(-85.229 -213.078)" fill="#fff"/>
    <path id="Tracé_579" data-name="Tracé 579" d="M55.058,307.53a2.074,2.074,0,1,1-2.074-2.074,2.074,2.074,0,0,1,2.074,2.074" transform="translate(-42.615 -255.684)" fill="#fff"/>
    <path id="Tracé_580" data-name="Tracé 580" d="M118.407,307.533a2.073,2.073,0,0,0-2.074-2.074H103.891a2.074,2.074,0,1,0,0,4.148h12.443a2.074,2.074,0,0,0,2.074-2.074" transform="translate(-85.227 -255.687)" fill="#fff"/>
    <path id="Tracé_581" data-name="Tracé 581" d="M55.058,358.443a2.074,2.074,0,1,1-2.074-2.074,2.074,2.074,0,0,1,2.074,2.074" transform="translate(-42.615 -298.301)" fill="#fff"/>
    <path id="Tracé_582" data-name="Tracé 582" d="M103.891,356.366a2.074,2.074,0,1,0,0,4.148h8.3a2.074,2.074,0,1,0,0-4.148Z" transform="translate(-85.227 -298.299)" fill="#fff"/>
    <path id="Tracé_583" data-name="Tracé 583" d="M55.058,409.353a2.074,2.074,0,1,1-2.074-2.074,2.074,2.074,0,0,1,2.074,2.074" transform="translate(-42.615 -340.916)" fill="#fff"/>
    <path id="Tracé_584" data-name="Tracé 584" d="M120.482,407.276H103.891a2.074,2.074,0,1,0,0,4.148h16.591a2.074,2.074,0,0,0,0-4.148" transform="translate(-85.227 -340.913)" fill="#fff"/>
    <path id="Tracé_585" data-name="Tracé 585" d="M55.058,256.623a2.074,2.074,0,1,1-2.074-2.074,2.074,2.074,0,0,1,2.074,2.074" transform="translate(-42.615 -213.072)" fill="#fff"/>
    <path id="Tracé_586" data-name="Tracé 586" d="M263.863,299.471a.534.534,0,0,1-.293.594,10.789,10.789,0,0,1-4.508.995,9.425,9.425,0,0,1-7.644-3.571,8.689,8.689,0,0,1-1.674-3.652.531.531,0,0,0-.52-.421h-1.064a.532.532,0,0,1-.533-.533v-1.159a.533.533,0,0,1,.533-.533h.658a.533.533,0,0,0,.533-.532c0-.128.005-.255.011-.383a.532.532,0,0,0-.532-.557h-.67a.532.532,0,0,1-.533-.533v-1.159a.532.532,0,0,1,.533-.533h1.155a.53.53,0,0,0,.511-.387,10.03,10.03,0,0,1,2.061-3.905,9.488,9.488,0,0,1,7.237-3.2,12.114,12.114,0,0,1,4.26.759.534.534,0,0,1,.329.626l-.623,2.538a.531.531,0,0,1-.692.376,8.947,8.947,0,0,0-2.93-.54,4.771,4.771,0,0,0-3.853,1.692,4.5,4.5,0,0,0-.759,1.3.535.535,0,0,0,.493.737h6.532a.533.533,0,0,1,.533.533v1.159a.533.533,0,0,1-.533.533h-7.233a.533.533,0,0,0-.533.522c0,.139,0,.278,0,.411l.539.539h7.231a.533.533,0,0,1,.533.533v1.159a.533.533,0,0,1-.533.533h-6.624a.535.535,0,0,0-.5.713,4.376,4.376,0,0,0,.829,1.48,5.245,5.245,0,0,0,4.041,1.6,9.006,9.006,0,0,0,3-.565.532.532,0,0,1,.708.386Z" transform="translate(-207.279 -234.383)" fill="#fff"/>
  </g>
</svg>
