<svg xmlns="http://www.w3.org/2000/svg" width="74.052" height="56.559" viewBox="0 0 74.052 56.559">
  <g id="Groupe_291" data-name="Groupe 291" transform="translate(-98.001 -87.527)">
    <g id="Groupe_290" data-name="Groupe 290" transform="translate(98.001 87.527)">
      <path id="Tracé_393" data-name="Tracé 393" d="M99,87.527a1.01,1.01,0,0,0-1,.995v49.543a1.009,1.009,0,0,0,.995.995h5.973a8.453,8.453,0,0,0,10.633,4.523,8.585,8.585,0,0,0,4.849-4.523h22.5a8.469,8.469,0,0,0,15.48,0h12.627a.981.981,0,0,0,.633-.235.9.9,0,0,0,.361-.737c0-.007,0-.015,0-.023v-20.1a7.435,7.435,0,0,0-1.819-5.149,7.211,7.211,0,0,0-5.495-2.272h-1.86v-4.854c0-1.653.108-3.346-.017-5a7.043,7.043,0,0,0-6.6-6.5c-3.079-.175-6.2-.044-9.294-.017V88.522a1.009,1.009,0,0,0-.995-.995H99Zm61.894,13.831c.013,3.062,0,6.125,0,9.186H146.965V96.176h4.64c1.573,0,3.2-.119,4.767.017a5.054,5.054,0,0,1,4.518,5.165Zm-1.835,35.712a8.735,8.735,0,0,0,.151-1.492,1.033,1.033,0,0,0,0-.12,8.668,8.668,0,0,0-.148-1.372h11.01v2.984Zm-.632-4.975a8.414,8.414,0,0,0-6.11-4.872,8.694,8.694,0,0,0-5.347.731V112.533h8.564c3.131,0,6.264-.015,9.4,0a5.059,5.059,0,0,1,4.841,3.269,9.381,9.381,0,0,1,.3,3.228V132.1Zm-13.357,6.773a6.52,6.52,0,1,1,6.936,3.1,6.572,6.572,0,0,1-6.936-3.1Zm-23.99-1.8a8.917,8.917,0,0,0,.151-1.492c0-.041,0-.081-.005-.12a8.672,8.672,0,0,0-.148-1.372h21.255a8.659,8.659,0,0,0,.013,2.984H121.076Zm-13.99,1.8a6.52,6.52,0,1,1,6.936,3.1,6.572,6.572,0,0,1-6.936-3.1Zm-7.094-4.783h4.357a8.659,8.659,0,0,0,.013,2.984h-4.37Zm0-44.569h44.985v39.776a8.294,8.294,0,0,0-2.045,2.8h-22.49a8.416,8.416,0,0,0-6.11-4.872,8.614,8.614,0,0,0-8.909,3.966,8.407,8.407,0,0,0-.473.906H99.991V89.517Z" transform="translate(-98.001 -87.527)" fill="#464646"/>
      <path id="Tracé_394" data-name="Tracé 394" d="M428.47,380.507a5.028,5.028,0,1,0,4.075,5.133,1.156,1.156,0,0,0,.013-.2,1.1,1.1,0,0,0-.008-.158,5.081,5.081,0,0,0-4.08-4.779Zm-.941,7.977a3.039,3.039,0,1,1,3.038-3.04,3.066,3.066,0,0,1-3.038,3.04Z" transform="translate(-374.832 -337.392)" fill="#464646"/>
      <path id="Tracé_395" data-name="Tracé 395" d="M169.965,380.507a5.028,5.028,0,1,0,4.075,5.134,1.1,1.1,0,0,0,.013-.2,1.086,1.086,0,0,0-.008-.158,5.08,5.08,0,0,0-4.08-4.779Zm-.941,7.977a3.039,3.039,0,1,1,3.04-3.04,3.065,3.065,0,0,1-3.04,3.04Z" transform="translate(-154.309 -337.392)" fill="#464646"/>
    </g>
  </g>
</svg>
