<svg xmlns="http://www.w3.org/2000/svg" width="71" height="75" viewBox="0 0 71 75">
  <g id="Groupe_465" data-name="Groupe 465" transform="translate(-1302)">
    <path id="Rectangle_7" data-name="Rectangle 7" d="M0,0H71a0,0,0,0,1,0,0V39.5A35.5,35.5,0,0,1,35.5,75h0A35.5,35.5,0,0,1,0,39.5V0A0,0,0,0,1,0,0Z" transform="translate(1302)" fill="#f28b4e"/>
    <path id="Tracé_281" data-name="Tracé 281" d="M-363.032-1191.558c-.022-.431-.033-1.145-.046-1.973a70.978,70.978,0,0,0-.4-7.675c-.434-3.089-2.55-10.823-3.6-12.718a4.473,4.473,0,0,0-.545-.758,4.578,4.578,0,0,0,.326-1.675l.07-2.309a3.924,3.924,0,0,0-1.54-3.172,3.721,3.721,0,0,0-2.374-.7.741.741,0,0,1,.049-.072c.9-.905,1.109-1.879.544-2.544a4.339,4.339,0,0,0-2.8-1.023,2.821,2.821,0,0,0-1.021.545,2.063,2.063,0,0,0-.17-.3,1.98,1.98,0,0,0-1.344-.9c-.163-.014-.321-.016-.462-.018a1.568,1.568,0,0,1-.561-.063,2.321,2.321,0,0,0-1.276-.324,2.967,2.967,0,0,1-.487-.054,2.2,2.2,0,0,0-1.789.1l-.1.043a1.742,1.742,0,0,0-1-1.174.856.856,0,0,0-.722.11c-.08.031-.284.087-.436.129a6.1,6.1,0,0,0-1.431.524,1.092,1.092,0,0,0-.659,1.313l.005.017c.01.13.1.627.867,3.733a3.762,3.762,0,0,0-2.8.651,3.925,3.925,0,0,0-1.54,3.172v2.309a4.405,4.405,0,0,0,.863,2.636c.013.028.027.056.041.083a16.373,16.373,0,0,0-2.866,4.845c-.4,1.157-.869,3.495-1.286,5.557-.208,1.028-.4,2-.556,2.641a30.931,30.931,0,0,0-.524,8.2c.077,2.8,2.045,3.334,3.347,3.687l.275.076.2.055a23.942,23.942,0,0,0,5.443.808c1.687.154,3.168.2,4.557.2.8,0,1.574-.014,2.335-.027,1.064-.019,2.069-.037,3.092-.015a23,23,0,0,0,6.947-.621C-364.488-1188.7-362.915-1189.274-363.032-1191.558Zm-6.5-29.3a2.636,2.636,0,0,1,1.026,2.169v2.309a3.5,3.5,0,0,1-.07.676,2.576,2.576,0,0,0-.583-.536c-1.8-1.19-5.155-.443-6.3-.163h0v-.7a.321.321,0,0,0,.07-.093,4.56,4.56,0,0,1,2.146-.77.619.619,0,0,0,.513-.723.6.6,0,0,0-.723-.513,8.778,8.778,0,0,0-2.029.583v-.606C-375.014-1219.622-371.608-1222.375-369.532-1220.859Zm-5.342,5.6c1.376-.327,3.872-.7,5.039.07a1.362,1.362,0,0,1,.606.933c-.186.467-1.143.7-2.006.7h0A5.567,5.567,0,0,1-374.874-1215.26Zm2.986,7.6-1-1.026a.619.619,0,0,0-.513-.187.662.662,0,0,0-.466.28l-.537.91a17.511,17.511,0,0,0-1.05-6.438,7.5,7.5,0,0,0,2.1,1.33C-372.308-1211.435-371.982-1209.149-371.889-1207.656Zm-11.543-18.651c0-.028-.005-.063.094-.132a4.462,4.462,0,0,1,.992-.327c.164-.045.3-.083.423-.122.068-.017.084.173.13.3a1.314,1.314,0,0,0,.676.824,1.289,1.289,0,0,0,1.079-.118l.122-.054c.426-.183.594-.158.7-.111a2.835,2.835,0,0,0,.953.168,2.948,2.948,0,0,1,.564.068,2.2,2.2,0,0,0,1.338.322c.127,0,.248,0,.362.013a.968.968,0,0,1,.387.383,1.02,1.02,0,0,0,.175.788.936.936,0,0,0,.747.378c.284,0,.485-.145.927-.463a6.758,6.758,0,0,1,.666-.444,3.948,3.948,0,0,1,1.505.55,1.464,1.464,0,0,1-.467.72,4.226,4.226,0,0,0-.686,1.333,10.681,10.681,0,0,0-2.877,1.559.6.6,0,0,0-.49-.21h-3.336a.587.587,0,0,0-.467.21,11.351,11.351,0,0,0-2.552-1.433C-382.9-1223.889-383.383-1226.012-383.432-1226.307Zm6.668,6.708v4.2h-2.029v-4.2Zm-9.517,5.342a1.29,1.29,0,0,1,.606-.933c1.166-.77,3.662-.4,5.039-.07a5.518,5.518,0,0,1-3.639,1.7h0C-385.138-1213.557-386.094-1213.791-386.281-1214.257Zm4.129,1.493a7.917,7.917,0,0,0,2.1-1.33,17.288,17.288,0,0,0-1.026,6.415h0l-.56-.886a.56.56,0,0,0-.466-.28.619.619,0,0,0-.513.187l-1,1.026A10.027,10.027,0,0,1-382.152-1212.764Zm-4.875-5.925a2.7,2.7,0,0,1,1.026-2.169c2.053-1.493,5.3,1.1,5.9,1.586v.63a8.543,8.543,0,0,0-1.983-.56.649.649,0,0,0-.723.513.649.649,0,0,0,.513.723,4.841,4.841,0,0,1,2.146.77.023.023,0,0,0,.023.023v.746c-1.166-.3-4.479-1-6.275.187a6.075,6.075,0,0,0-.56.536h0a3.325,3.325,0,0,1-.07-.676Zm20.305,29.131a21.731,21.731,0,0,1-6.6.583c-1.05-.022-2.068,0-3.145.015a58.233,58.233,0,0,1-6.744-.163,22.838,22.838,0,0,1-5.194-.762l-.2-.056-.289-.079c-1.232-.334-2.3-.623-2.344-2.412a29.794,29.794,0,0,1,.488-7.85c.157-.664.355-1.645.566-2.684.389-1.922.873-4.313,1.24-5.387a14.706,14.706,0,0,1,2.591-4.373,4.849,4.849,0,0,0,2.026.4h.07c.14,0,.28-.023.4-.023a16.212,16.212,0,0,0-1.073,6.275.6.6,0,0,0,.4.56.659.659,0,0,0,.676-.14l1.563-1.586,1.353,2.169a.647.647,0,0,0,.537.3.458.458,0,0,0,.187-.023.6.6,0,0,0,.42-.63c-.14-1.75-.163-6.555,1.143-8.654h1.75c1.306,2.1,1.283,6.9,1.143,8.654a.613.613,0,0,0,.42.63.583.583,0,0,0,.187.023.646.646,0,0,0,.536-.3l1.353-2.169,1.563,1.586a.605.605,0,0,0,.676.14.6.6,0,0,0,.4-.56,16.157,16.157,0,0,0-1.073-6.275,2.4,2.4,0,0,0,.4.023h.07a3.659,3.659,0,0,0,2.889-1.08c.03.046.057.091.082.136.973,1.76,3.03,9.324,3.441,12.249a70.069,70.069,0,0,1,.386,7.507c.013.875.024,1.567.047,2.022C-364.339-1190.492-364.518-1190.1-366.722-1189.559Z" transform="translate(1715.326 1245.073)" fill="#fff"/>
  </g>
</svg>
