<svg xmlns="http://www.w3.org/2000/svg" width="56.559" height="56.559" viewBox="0 0 56.559 56.559">
  <g id="Groupe_292" data-name="Groupe 292" transform="translate(-120.482 -50.485)">
    <path id="Tracé_397" data-name="Tracé 397" d="M173.591,74.62h-1.139l1.449-1.663a3.45,3.45,0,0,0-.331-4.829l-19.3-16.812a3.449,3.449,0,0,0-4.829.332l-20.5,23.524a3.408,3.408,0,0,0-1.248,1.421l-6.389,7.326a3.45,3.45,0,0,0,.332,4.829l3.139,2.759,2.586,2.235V103.6a3.45,3.45,0,0,0,3.449,3.449h42.772a3.45,3.45,0,0,0,3.449-3.449V78.07a3.45,3.45,0,0,0-3.449-3.449ZM127.371,91.915,126.212,90.9l1.159-1.331Zm0-9.706v5.264L125.17,90l-2.628-2.269a2.07,2.07,0,0,1-.2-2.891l5.029-5.761ZM172.66,69.17a2.069,2.069,0,0,1,.2,2.883l-2.242,2.566H149.564l12.68-14.535Zm-11.486-10L147.735,74.619h-7.326l16.626-19.067ZM150.5,52.544a2.009,2.009,0,0,1,1.38-.69h.145a2.025,2.025,0,0,1,1.338.5l2.642,2.256L138.58,74.62h-7.319Zm25.159,51.05a2.068,2.068,0,0,1-2.069,2.069H130.82a2.069,2.069,0,0,1-2.069-2.069V89.8h46.911Zm0-15.177H128.75V82.9h46.911Zm0-6.9H128.75V78.068a1.969,1.969,0,0,1,.131-.69A2.069,2.069,0,0,1,130.819,76h42.772a2.069,2.069,0,0,1,2.069,2.069Z" transform="translate(0)" fill="#464646"/>
    <path id="Tracé_398" data-name="Tracé 398" d="M445.2,401.061h8.278a2.635,2.635,0,0,0,2.635-2.635v-3.808A2.642,2.642,0,0,0,453.479,392H445.2a2.643,2.643,0,0,0-2.636,2.642v3.808a2.643,2.643,0,0,0,2.636,2.608Zm-1.255-6.443a1.262,1.262,0,0,1,1.255-1.235h8.278a1.262,1.262,0,0,1,1.255,1.263v3.808a1.255,1.255,0,0,1-1.255,1.255H445.2a1.255,1.255,0,0,1-1.255-1.255Z" transform="translate(-282.406 -299.446)" fill="#464646"/>
  </g>
</svg>
