<svg xmlns="http://www.w3.org/2000/svg" xmlns:xlink="http://www.w3.org/1999/xlink" width="26.292" height="56.559" viewBox="0 0 26.292 56.559">
  <defs>
    <clipPath id="clip-path">
      <rect id="Rectangle_31" data-name="Rectangle 31" width="26.292" height="56.559" fill="#464646"/>
    </clipPath>
  </defs>
  <g id="Groupe_296" data-name="Groupe 296" clip-path="url(#clip-path)">
    <path id="Tracé_400" data-name="Tracé 400" d="M25.807,27.583a2.643,2.643,0,0,0-1.125-1.059.416.416,0,0,0,.325-.316l.859-3.621a2.307,2.307,0,0,0-.225-1.537,5.463,5.463,0,0,0-.869-1.149l-3.4-3.544a2.6,2.6,0,0,0-1.547-.806,3.023,3.023,0,0,0-1.855.433l-2.918,1.665L16.9,9.283c.62-2.807.866-4.618.627-6.034A4.56,4.56,0,0,0,15.3.109.578.578,0,0,0,14.945,0h0a.623.623,0,0,0-.588.439L11.484,9.631a7.041,7.041,0,0,0-.5-2.991,3.393,3.393,0,0,0-2-1.862.616.616,0,0,0-.249-.031.628.628,0,0,0-.574.526c-.54,3.386-.976,6.553-1.485,9.869a5.46,5.46,0,0,0-.409-.779,2.9,2.9,0,0,0-2.486-1.356.627.627,0,0,0-.63.685c.474,5.124.859,10.254.842,15.453C1.518,40.082-.667,47.062.189,55.985a.629.629,0,0,0,.287.474l.009.006a.623.623,0,0,0,.951-.548l-.02-.663h0C.625,45.34,3.676,37.711,6.574,23.08,7.8,16.888,8.388,11.973,9.222,6.58c.2.191.474.263.62.585a6.588,6.588,0,0,1,.378,3.039L9.97,14.475,7.388,22.731a.631.631,0,0,0,1.2.377l6.6-21.152c.436.434.976.789,1.1,1.5a16.65,16.65,0,0,1-.62,5.559l-2.09,9.477-1.024.585a4.862,4.862,0,0,0-2.3,2.492L8.572,26.187a.628.628,0,1,0,1.18.429l1.678-4.624a3.669,3.669,0,0,1,1.749-1.832l5.413-3.087a1.725,1.725,0,0,1,1.076-.277,1.3,1.3,0,0,1,.793.433L23.9,20.812a2.589,2.589,0,0,1,.6.789,1.172,1.172,0,0,1,.138.7l-.879,3.728a.844.844,0,0,1-.363-.235,3.84,3.84,0,0,1-.824-2.873.619.619,0,0,0-.234-.53l-2.288-1.821a.625.625,0,0,0-.734-.035l-3.471,2.236a.611.611,0,0,0-.2.207,8.863,8.863,0,0,0-1.114,5.538,5.584,5.584,0,0,0,2.092,4.2,3.305,3.305,0,0,0,3.849.118c.008,0,.014-.01.021-.014a9.43,9.43,0,0,0,3.271-5.545s.018-.01.094.01a1.648,1.648,0,0,1,.824.855c.534,1.074.7,3.272-1.246,6.726a32.642,32.642,0,0,1-10.222,9.6A12.28,12.28,0,0,0,10.8,46.23a4.326,4.326,0,0,0-1.229,3.3l.3,5.873.127.675a.57.57,0,0,0,.887.365l.007,0a.632.632,0,0,0,.267-.54l-.326-6.431a2.894,2.894,0,0,1,.877-2.361,12,12,0,0,1,2.18-1.579,33.9,33.9,0,0,0,10.612-10,.074.074,0,0,0,.014-.024c2.09-3.693,2.07-6.341,1.291-7.917M5.12,23.916c-.138-3.114-.38-6.2-.654-9.283,1.329.5,1.54,2.492,1.727,3.552Zm17.44,3.027a8.143,8.143,0,0,1-2.8,4.849,1.967,1.967,0,0,1-2.4-.093,4.379,4.379,0,0,1-1.568-3.278,7.557,7.557,0,0,1,.92-4.716l2.915-1.873,1.845,1.46a5.2,5.2,0,0,0,1.053,3.39.272.272,0,0,1,.038.26" transform="translate(0 0)" fill="#464646"/>
  </g>
</svg>
