<svg xmlns="http://www.w3.org/2000/svg" xmlns:xlink="http://www.w3.org/1999/xlink" width="66.904" height="26.531" viewBox="0 0 66.904 26.531">
  <defs>
    <clipPath id="clip-path">
      <rect id="Rectangle_30" data-name="Rectangle 30" width="66.904" height="26.531" fill="#464646"/>
    </clipPath>
  </defs>
  <g id="Groupe_294" data-name="Groupe 294" clip-path="url(#clip-path)">
    <path id="Tracé_399" data-name="Tracé 399" d="M66.441.67A1.915,1.915,0,0,0,63.78.428C56.764,6.135,46.259,12.371,33.856,12.371c-.135,0-.269,0-.4-.006s-.269.006-.4.006c-12.4,0-22.908-6.236-29.924-11.943A1.919,1.919,0,0,0,.71,3.41c1.162.943,2.417,1.9,3.754,2.844a1.919,1.919,0,0,1,.448,2.7L1.447,13.718a1.918,1.918,0,0,0,.424,2.68h0a1.919,1.919,0,0,0,2.68-.424l3.782-5.205a1.914,1.914,0,0,1,2.457-.563,54.87,54.87,0,0,0,5.575,2.633,1.918,1.918,0,0,1,1.107,2.371l-2.049,6.306a1.919,1.919,0,0,0,1.232,2.418h0A1.919,1.919,0,0,0,19.076,22.7l2.067-6.363a1.919,1.919,0,0,1,2.264-1.274,43.134,43.134,0,0,0,5.973.963,1.918,1.918,0,0,1,1.749,1.909v6.675a1.919,1.919,0,0,0,1.919,1.919h0a1.929,1.929,0,0,0,.4-.043,1.932,1.932,0,0,0,.4.043h0a1.919,1.919,0,0,0,1.919-1.919V17.938a1.918,1.918,0,0,1,1.749-1.909,43.134,43.134,0,0,0,5.973-.963,1.919,1.919,0,0,1,2.264,1.274L47.828,22.7a1.919,1.919,0,0,0,2.417,1.232h0a1.919,1.919,0,0,0,1.232-2.418L49.431,15.21a1.918,1.918,0,0,1,1.107-2.371,54.87,54.87,0,0,0,5.575-2.633,1.914,1.914,0,0,1,2.457.563l3.782,5.205a1.919,1.919,0,0,0,2.68.424h0a1.918,1.918,0,0,0,.424-2.68L61.993,8.95a1.919,1.919,0,0,1,.448-2.7c1.337-.944,2.591-1.9,3.754-2.844A1.919,1.919,0,0,0,66.441.67" transform="translate(0 0)" fill="#464646"/>
  </g>
</svg>
