<svg xmlns="http://www.w3.org/2000/svg" width="67.684" height="93.245" viewBox="0 0 67.684 93.245">
  <path id="Tracé_573" data-name="Tracé 573" d="M-324.956-1144.217c-.05-.984-.076-2.619-.1-4.511a162.291,162.291,0,0,0-.912-17.55c-.993-7.064-5.831-24.747-8.228-29.081a10.233,10.233,0,0,0-1.246-1.733,10.467,10.467,0,0,0,.746-3.831l.161-5.281a8.973,8.973,0,0,0-3.521-7.254,8.506,8.506,0,0,0-5.428-1.6,1.666,1.666,0,0,1,.111-.164c2.059-2.07,2.536-4.3,1.244-5.818-1.211-1.425-5.069-2.579-6.4-2.339a6.455,6.455,0,0,0-2.336,1.247,4.722,4.722,0,0,0-.389-.681,4.528,4.528,0,0,0-3.074-2.058c-.372-.031-.735-.037-1.055-.042a3.586,3.586,0,0,1-1.282-.143,5.3,5.3,0,0,0-2.917-.742,6.8,6.8,0,0,1-1.114-.123,5.028,5.028,0,0,0-4.091.237c-.076.032-.15.065-.223.1-.583-1.511-1.35-2.414-2.283-2.683a1.957,1.957,0,0,0-1.651.252c-.183.071-.65.2-1,.294a13.934,13.934,0,0,0-3.271,1.2c-.946.561-1.973,1.409-1.507,3l.012.04c.023.3.226,1.433,1.983,8.537a8.6,8.6,0,0,0-6.408,1.489,8.974,8.974,0,0,0-3.521,7.254v5.281a10.073,10.073,0,0,0,1.974,6.027c.029.065.061.129.094.191a37.435,37.435,0,0,0-6.554,11.079c-.9,2.646-1.987,7.991-2.941,12.706-.476,2.35-.925,4.569-1.272,6.039-1.117,4.734-1.442,9.815-1.2,18.748.175,6.4,4.676,7.623,7.654,8.431.214.058.424.115.629.173l.447.127c2.524.719,3.676,1.047,12.446,1.849,3.857.353,7.245.446,10.419.446,1.835,0,3.6-.031,5.34-.062,2.433-.043,4.731-.084,7.071-.035,6.819.146,10.244-.048,15.885-1.421C-328.285-1137.689-324.687-1138.995-324.956-1144.217Zm-14.864-67a6.027,6.027,0,0,1,2.347,4.96v5.281a8.011,8.011,0,0,1-.16,1.547,5.89,5.89,0,0,0-1.333-1.227c-4.107-2.72-11.788-1.014-14.4-.373h0v-1.6a.736.736,0,0,0,.16-.213c.32-.534,2.72-1.44,4.907-1.76a1.416,1.416,0,0,0,1.174-1.654,1.38,1.38,0,0,0-1.654-1.173,20.06,20.06,0,0,0-4.64,1.333v-1.387C-352.355-1208.391-344.567-1214.685-339.82-1211.218Zm-12.215,12.8c3.147-.747,8.855-1.6,11.521.16a3.115,3.115,0,0,1,1.387,2.133c-.426,1.067-2.613,1.6-4.587,1.6h0C-346.487-1194.576-349.261-1195.856-352.034-1198.417Zm6.827,17.389-2.293-2.347a1.415,1.415,0,0,0-1.174-.427,1.513,1.513,0,0,0-1.067.64l-1.227,2.081c-.053-4.374-.48-10.508-2.4-14.722a17.131,17.131,0,0,0,4.8,3.04C-346.167-1189.669-345.42-1184.442-345.207-1181.028Zm-26.4-42.648c0-.063-.012-.144.215-.3a10.215,10.215,0,0,1,2.269-.748c.376-.1.694-.19.968-.278.157-.038.192.4.3.686a3.006,3.006,0,0,0,1.546,1.883,2.947,2.947,0,0,0,2.468-.269c.089-.04.182-.082.279-.124.975-.418,1.357-.363,1.6-.254a6.472,6.472,0,0,0,2.18.384,6.748,6.748,0,0,1,1.289.156,5.028,5.028,0,0,0,3.059.735c.291,0,.566.009.828.03a2.214,2.214,0,0,1,.885.875,2.333,2.333,0,0,0,.4,1.8,2.141,2.141,0,0,0,1.707.863c.649,0,1.11-.332,2.119-1.059a15.473,15.473,0,0,1,1.524-1.015,9.028,9.028,0,0,1,3.442,1.257,3.35,3.35,0,0,1-1.069,1.647,9.659,9.659,0,0,0-1.568,3.049,24.417,24.417,0,0,0-6.579,3.565,1.378,1.378,0,0,0-1.12-.48h-7.627a1.343,1.343,0,0,0-1.067.48,25.955,25.955,0,0,0-5.835-3.276C-370.394-1218.148-371.492-1223-371.6-1223.676Zm15.247,15.338v9.6H-361v-9.6Zm-21.763,12.215a2.95,2.95,0,0,1,1.387-2.133c2.667-1.76,8.375-.907,11.521-.16-2.72,2.56-5.547,3.841-8.321,3.894h0C-375.5-1194.523-377.691-1195.056-378.118-1196.123Zm9.442,3.414a18.1,18.1,0,0,0,4.8-3.04c-1.867,4.16-2.347,10.294-2.347,14.668h0l-1.28-2.027a1.28,1.28,0,0,0-1.067-.64,1.414,1.414,0,0,0-1.173.427l-2.294,2.347C-371.824-1184.441-371.077-1189.615-368.676-1192.709Zm-11.148-13.548a6.176,6.176,0,0,1,2.347-4.96c4.694-3.414,12.108,2.507,13.495,3.627v1.44a19.526,19.526,0,0,0-4.534-1.28,1.484,1.484,0,0,0-1.653,1.173A1.485,1.485,0,0,0-369-1204.6c2.187.373,4.587,1.227,4.907,1.76a.052.052,0,0,0,.053.053v1.707c-2.667-.694-10.241-2.294-14.348.427a13.9,13.9,0,0,0-1.28,1.227h0a7.606,7.606,0,0,1-.16-1.547Zm46.431,66.612c-4.964,1.208-8.065,1.483-15.083,1.333-2.4-.051-4.728-.01-7.192.034a133.182,133.182,0,0,1-15.422-.372c-8.48-.775-9.475-1.058-11.878-1.743l-.452-.129c-.215-.06-.436-.12-.66-.182-2.816-.765-5.249-1.425-5.36-5.515-.236-8.638.066-13.5,1.115-17.949.358-1.519.813-3.762,1.293-6.136.89-4.394,2-9.863,2.836-12.318a33.628,33.628,0,0,1,5.925-10,11.088,11.088,0,0,0,4.633.926h.16c.32,0,.64-.053.907-.053-2.72,5.921-2.454,13.975-2.454,14.348a1.383,1.383,0,0,0,.907,1.28,1.507,1.507,0,0,0,1.547-.32l3.574-3.627,3.094,4.96a1.478,1.478,0,0,0,1.227.693,1.047,1.047,0,0,0,.427-.053,1.379,1.379,0,0,0,.96-1.44c-.32-4-.374-14.989,2.614-19.789h4c2.987,4.8,2.934,15.788,2.614,19.789a1.4,1.4,0,0,0,.96,1.44,1.334,1.334,0,0,0,.427.053,1.478,1.478,0,0,0,1.227-.693l3.094-4.96,3.574,3.627a1.384,1.384,0,0,0,1.547.32,1.382,1.382,0,0,0,.907-1.28c0-.427.267-8.427-2.454-14.348a5.483,5.483,0,0,0,.907.053h.16c2.464,0,5.263-.674,6.606-2.47.067.1.131.208.188.311,2.225,4.024,6.93,21.321,7.869,28.009a160.238,160.238,0,0,1,.882,17.165c.031,2,.055,3.583.109,4.623C-327.945-1141.78-328.353-1140.873-333.393-1139.646Z" transform="translate(392.626 1228.352)" fill="#fff"/>
</svg>
