<svg id="Groupe_480" data-name="Groupe 480" xmlns="http://www.w3.org/2000/svg" xmlns:xlink="http://www.w3.org/1999/xlink" width="35" height="35" viewBox="0 0 35 35">
  <defs>
    <clipPath id="clip-path">
      <rect id="Rectangle_101" data-name="Rectangle 101" width="35" height="35" fill="#fff"/>
    </clipPath>
  </defs>
  <g id="Groupe_479" data-name="Groupe 479" clip-path="url(#clip-path)">
    <path id="Tracé_570" data-name="Tracé 570" d="M17.3,3.117c4.619,0,5.166.018,6.99.1a9.577,9.577,0,0,1,3.212.6A5.36,5.36,0,0,1,29.49,5.107,5.359,5.359,0,0,1,30.784,7.1a9.57,9.57,0,0,1,.6,3.212c.083,1.824.1,2.371.1,6.99s-.018,5.166-.1,6.99a9.571,9.571,0,0,1-.6,3.212A5.728,5.728,0,0,1,27.5,30.784a9.573,9.573,0,0,1-3.212.6c-1.824.083-2.371.1-6.99.1s-5.166-.018-6.99-.1a9.573,9.573,0,0,1-3.212-.6A5.36,5.36,0,0,1,5.107,29.49,5.36,5.36,0,0,1,3.813,27.5a9.572,9.572,0,0,1-.6-3.212c-.083-1.824-.1-2.371-.1-6.99s.018-5.166.1-6.99a9.571,9.571,0,0,1,.6-3.212A5.361,5.361,0,0,1,5.107,5.107,5.36,5.36,0,0,1,7.1,3.813a9.577,9.577,0,0,1,3.212-.6c1.824-.083,2.371-.1,6.99-.1M17.3,0c-4.7,0-5.287.02-7.132.1a12.7,12.7,0,0,0-4.2.8A8.481,8.481,0,0,0,2.9,2.9a8.48,8.48,0,0,0-2,3.064,12.7,12.7,0,0,0-.8,4.2C.02,12.012,0,12.6,0,17.3s.02,5.287.1,7.132a12.7,12.7,0,0,0,.8,4.2,8.479,8.479,0,0,0,2,3.064,8.479,8.479,0,0,0,3.064,2,12.7,12.7,0,0,0,4.2.8c1.845.084,2.434.1,7.132.1s5.287-.02,7.132-.1a12.7,12.7,0,0,0,4.2-.8,8.846,8.846,0,0,0,5.059-5.059,12.7,12.7,0,0,0,.8-4.2c.084-1.845.1-2.434.1-7.132s-.02-5.287-.1-7.132a12.7,12.7,0,0,0-.8-4.2,8.482,8.482,0,0,0-2-3.064,8.481,8.481,0,0,0-3.064-2,12.7,12.7,0,0,0-4.2-.8C22.586.02,22,0,17.3,0m0,8.416A8.883,8.883,0,1,0,26.182,17.3,8.883,8.883,0,0,0,17.3,8.416m0,14.65A5.766,5.766,0,1,1,23.065,17.3,5.766,5.766,0,0,1,17.3,23.065m11.31-15a2.076,2.076,0,1,1-2.076-2.076,2.076,2.076,0,0,1,2.076,2.076" fill="#fff"/>
  </g>
</svg>
