<svg xmlns="http://www.w3.org/2000/svg" xmlns:xlink="http://www.w3.org/1999/xlink" width="94.806" height="191.731" viewBox="0 0 94.806 191.731">
  <defs>
    <clipPath id="clip-path">
      <rect id="Rectangle_52" data-name="Rectangle 52" width="94.806" height="191.731" transform="translate(0 0)" fill="#fff"/>
    </clipPath>
  </defs>
  <g id="Groupe_333" data-name="Groupe 333" clip-path="url(#clip-path)">
    <path id="Tracé_534" data-name="Tracé 534" d="M28.043,185.413a.537.537,0,0,1-.434-.222C12.168,163.652,4.731,139,6.669,115.772a72.722,72.722,0,0,1,7.178-26.658c4.1-8.18,10-15.447,15.719-22.474C36.522,58.089,43.714,49.247,47.5,38.826c.549-1.507,1.044-3.093,1.525-4.625,1.573-5.021,3.2-10.214,6.977-13.959a35.545,35.545,0,0,1,5.72-4.291c3.512-2.285,6.831-4.442,8-8.134a.533.533,0,0,1,1.017.322c-1.287,4.056-4.921,6.42-8.435,8.705A34.959,34.959,0,0,0,56.756,21c-3.59,3.561-5.176,8.624-6.711,13.521-.482,1.544-.983,3.141-1.54,4.672-3.851,10.589-11.1,19.5-18.111,28.124-5.679,6.982-11.55,14.2-15.6,22.28A71.69,71.69,0,0,0,7.73,115.861c-1.915,22.975,5.452,47.375,20.746,68.709a.533.533,0,0,1-.122.743.539.539,0,0,1-.311.1" transform="translate(5.403 6.318)" fill="#fff"/>
    <path id="Tracé_535" data-name="Tracé 535" d="M57.7,1.771c-6.041,2.32-10.733,7.454-15.728,13.382a23.675,23.675,0,0,0-3.035,4.191c-.242.47-.466.972-.677,1.459a18.343,18.343,0,0,1-.837,1.751,18.485,18.485,0,0,0,7.217-4.886c.967-.982,1.9-2.035,2.812-3.056a51.57,51.57,0,0,1,4.522-4.681c.274-.24.556-.475.836-.712a12.235,12.235,0,0,0,2.908-3.048,14.474,14.474,0,0,0,.915-2.065A13.967,13.967,0,0,1,57.7,1.771M36.064,23.979a.533.533,0,0,1-.351-.934,7.843,7.843,0,0,0,1.57-2.669c.22-.5.447-1.022.708-1.523a24.365,24.365,0,0,1,3.167-4.385C46.881,7.672,52.229,1.895,59.712.016a.533.533,0,0,1,.333,1.009c-1.287.531-1.836,1.956-2.42,3.464a15.273,15.273,0,0,1-.989,2.217A13.272,13.272,0,0,1,53.5,10.036c-.279.231-.553.462-.823.7a50.986,50.986,0,0,0-4.426,4.583c-.915,1.032-1.862,2.1-2.851,3.1-3.141,3.18-6.16,5-9.24,5.553a.522.522,0,0,1-.092.009" transform="translate(30.153 0)" fill="#fff"/>
    <path id="Tracé_536" data-name="Tracé 536" d="M43.211,4.044a16.858,16.858,0,0,1-1.756,1.242,11.054,11.054,0,0,0-2.272,1.754A10.777,10.777,0,0,0,37.4,10.348c-.231.577-.47,1.174-.749,1.745A25.331,25.331,0,0,1,35.171,14.6a15.542,15.542,0,0,0-1.915,3.623A13.053,13.053,0,0,0,33.407,25c.253-.922.47-1.878.7-2.867a29.068,29.068,0,0,1,2.259-7.073,28.916,28.916,0,0,1,3.01-4.379c.453-.577.921-1.174,1.355-1.771a14.122,14.122,0,0,0,2.485-4.867M33.348,27.5h-.026a.532.532,0,0,1-.49-.4c-.7-2.714-1.582-6.089-.592-9.2a16.562,16.562,0,0,1,2.034-3.878,24.553,24.553,0,0,0,1.42-2.4c.263-.536.494-1.113.717-1.673a11.684,11.684,0,0,1,1.98-3.623,11.93,11.93,0,0,1,2.485-1.936,8.443,8.443,0,0,0,2.645-2.255.534.534,0,0,1,.98.307c-.079,2.893-1.7,5.437-2.913,7.1-.446.612-.919,1.216-1.375,1.8a28.08,28.08,0,0,0-2.906,4.213,28.241,28.241,0,0,0-2.165,6.818,40.544,40.544,0,0,1-1.292,4.781.53.53,0,0,1-.5.351" transform="translate(26.984 1.609)" fill="#fff"/>
    <path id="Tracé_537" data-name="Tracé 537" d="M34.782,24.954a13.883,13.883,0,0,0,8.657-2.191c.621-.412,1.233-.889,1.823-1.351a16.785,16.785,0,0,1,3.433-2.259A16.958,16.958,0,0,1,52.723,18.1,14.484,14.484,0,0,0,56.775,17c2.444-1.222,3.854-3.625,5.346-6.171a32.82,32.82,0,0,1,2.466-3.793,32.435,32.435,0,0,0-8.09,4.592c-.719.614-1.4,1.307-2.065,1.976-.416.423-.849.86-1.294,1.279-5.2,4.925-11.852,7.581-18.357,10.073m1.087,1.109a14.332,14.332,0,0,1-3.265-.372.533.533,0,0,1-.41-.482.527.527,0,0,1,.338-.534l1.1-.421c6.648-2.544,13.523-5.174,18.771-10.147.433-.407.858-.837,1.27-1.255.68-.684,1.379-1.394,2.131-2.035A35.16,35.16,0,0,1,64.669,5.83c.691-.3,1.381-.606,2.063-.919a.532.532,0,0,1,.678.207.538.538,0,0,1-.128.7,18.737,18.737,0,0,0-4.241,5.55c-1.508,2.566-3.065,5.222-5.79,6.585a15.437,15.437,0,0,1-4.348,1.2,15.78,15.78,0,0,0-3.775.974,15.512,15.512,0,0,0-3.209,2.122c-.606.475-1.233.965-1.895,1.4a14.938,14.938,0,0,1-8.156,2.411" transform="translate(27.32 4.125)" fill="#fff"/>
    <path id="Tracé_538" data-name="Tracé 538" d="M32.962,7.1a4.343,4.343,0,0,0-.536,1.065c-.15.433-.259.876-.372,1.348a12.253,12.253,0,0,1-.484,1.677,13.128,13.128,0,0,1-1.124,2.1,7.86,7.86,0,0,0-1.276,2.8,7.954,7.954,0,0,0,.224,2.738,13.61,13.61,0,0,1,.29,1.982,13.547,13.547,0,0,1-.416,3.448,11.772,11.772,0,0,0-.381,3.344,9.677,9.677,0,0,0,2.573,5.234c-.043-.209-.089-.427-.139-.649A13.444,13.444,0,0,1,30.9,29.1a12.15,12.15,0,0,1,.237-1.982c.07-.4.135-.769.179-1.15a18.922,18.922,0,0,0-.122-4.023c-.063-.6-.126-1.228-.159-1.847-.268-4.461.776-8.794,1.93-13m-.878,27.822a.522.522,0,0,1-.4-.183c-1.533-1.758-3.631-4.167-3.862-7.058a12.821,12.821,0,0,1,.4-3.646,12.745,12.745,0,0,0,.394-3.176,12.564,12.564,0,0,0-.272-1.828,8.9,8.9,0,0,1-.231-3.113,8.824,8.824,0,0,1,1.42-3.187A12.129,12.129,0,0,0,30.577,10.8a11.716,11.716,0,0,0,.442-1.538,13.952,13.952,0,0,1,.4-1.451A3.929,3.929,0,0,1,33.733,5.2a.531.531,0,0,1,.534.12.541.541,0,0,1,.146.529c-1.281,4.6-2.6,9.36-2.32,14.187.037.6.1,1.211.157,1.8a19.735,19.735,0,0,1,.122,4.25c-.044.412-.118.821-.187,1.215a11.481,11.481,0,0,0-.224,1.814,12.552,12.552,0,0,0,.4,2.834,5.874,5.874,0,0,1,.235,2.583.53.53,0,0,1-.4.373.5.5,0,0,1-.116.013" transform="translate(23.594 4.393)" fill="#fff"/>
    <path id="Tracé_539" data-name="Tracé 539" d="M32.1,25.924a9.57,9.57,0,0,0,5.454.379,11.555,11.555,0,0,0,4.25-2.889,13.842,13.842,0,0,1,4.248-3,13.617,13.617,0,0,1,3.546-.671c.682-.067,1.388-.137,2.056-.268a18.4,18.4,0,0,0,7.165-3.671H58.6c-4.838,0-9.119.392-12.526,2.851-.5.359-.978.769-1.446,1.165A18.17,18.17,0,0,1,42.581,21.4,18.411,18.411,0,0,1,38.9,23.044l-.819.3c-1.708.64-3.413,1.414-5.062,2.163q-.458.211-.919.418m3.612,1.7a17.5,17.5,0,0,1-5.285-1.1.533.533,0,0,1-.05-.995c.738-.325,1.47-.658,2.2-.991,1.666-.756,3.389-1.54,5.132-2.191.275-.1.551-.2.828-.3a17.508,17.508,0,0,0,3.47-1.54,17.389,17.389,0,0,0,1.926-1.492c.482-.41.982-.836,1.51-1.218,4.418-3.187,10.506-3.1,14.95-3.037a.532.532,0,0,1,.316.956c-2.538,1.939-5.417,4.137-8.849,4.814-.719.142-1.451.213-2.159.283a12.5,12.5,0,0,0-3.27.608A12.85,12.85,0,0,0,42.527,24.2a12.5,12.5,0,0,1-4.662,3.124,7.4,7.4,0,0,1-2.148.3" transform="translate(25.513 12.506)" fill="#fff"/>
    <path id="Tracé_540" data-name="Tracé 540" d="M27.491,11.346A44.2,44.2,0,0,0,25.7,16.718a10.775,10.775,0,0,0-.462,4.058,12.117,12.117,0,0,0,.588,2.213,15.119,15.119,0,0,1,.58,2.085,15.03,15.03,0,0,1-.072,4.407,23.4,23.4,0,0,0-.205,2.584A11.567,11.567,0,0,0,30.445,41c-.373-1.912-.7-4.206-1.019-6.439A39.262,39.262,0,0,0,28.2,28.348c-.113-.355-.235-.71-.357-1.063a15.886,15.886,0,0,1-.8-2.891,16.076,16.076,0,0,1,.028-3.677l.018-.226c.255-3.03.39-6.1.4-9.145m3.758,31.407a.529.529,0,0,1-.279-.079,12.616,12.616,0,0,1-5.9-10.613,24.978,24.978,0,0,1,.213-2.7,14.08,14.08,0,0,0,.083-4.095,14.132,14.132,0,0,0-.545-1.937,13.321,13.321,0,0,1-.632-2.409,11.673,11.673,0,0,1,.49-4.468,45.107,45.107,0,0,1,2.851-7.829.533.533,0,0,1,1.015.218,115.319,115.319,0,0,1-.386,11.744l-.018.226A15.137,15.137,0,0,0,28.1,24.24a14.982,14.982,0,0,0,.749,2.7c.126.362.251.727.366,1.093a40.185,40.185,0,0,1,1.268,6.385c.394,2.76.8,5.616,1.287,7.683a.535.535,0,0,1-.207.553.526.526,0,0,1-.312.1" transform="translate(20.47 7.056)" fill="#fff"/>
    <path id="Tracé_541" data-name="Tracé 541" d="M30.374,31.68a9.366,9.366,0,0,0,6-1.359,18.864,18.864,0,0,0,3.39-3.032c.584-.612,1.187-1.242,1.825-1.823a9.483,9.483,0,0,1,5.352-2.632,4.378,4.378,0,0,0-2.682-.629,11.508,11.508,0,0,1-2.969,1.749,17.358,17.358,0,0,0-1.8.908A17.281,17.281,0,0,0,36.4,27.488c-.61.606-1.24,1.233-1.919,1.8a14.139,14.139,0,0,1-4.108,2.394M31.4,32.8a10.084,10.084,0,0,1-3.472-.6.533.533,0,0,1,.116-1.03,11.7,11.7,0,0,0,5.755-2.7c.641-.534,1.257-1.144,1.85-1.734a18.2,18.2,0,0,1,3.287-2.78,18.2,18.2,0,0,1,1.9-.965,10.018,10.018,0,0,0,2.81-1.675.538.538,0,0,1,.292-.142,5.39,5.39,0,0,1,4.949,1.993.534.534,0,0,1-.545.847c-2.461-.592-4.843,1.154-6.043,2.246-.61.556-1.2,1.174-1.771,1.771a19.923,19.923,0,0,1-3.59,3.2A10.385,10.385,0,0,1,31.4,32.8" transform="translate(23.404 17.921)" fill="#fff"/>
    <path id="Tracé_542" data-name="Tracé 542" d="M21.7,24.177c1.015,1.179,1.239,3,1.427,4.529l.043.325A35.176,35.176,0,0,0,26.8,39.647a7.291,7.291,0,0,0,1.479,2.274,13.865,13.865,0,0,0-.527-4.953,16.366,16.366,0,0,0-.795-1.786,17.477,17.477,0,0,1-.823-1.851,17.293,17.293,0,0,1-.481-7.077,25.411,25.411,0,0,0,.043-4.636,7.325,7.325,0,0,1-4,2.559M28.786,43.32a.5.5,0,0,1-.129-.017c-1.342-.333-2.157-1.823-2.817-3.193a36.149,36.149,0,0,1-3.731-10.946l-.039-.327c-.224-1.8-.475-3.841-1.924-4.533a.533.533,0,0,1,.213-1.013,6.108,6.108,0,0,0,5.141-3.35.539.539,0,0,1,.532-.3.529.529,0,0,1,.462.4,19.937,19.937,0,0,1,.226,6.285,16.2,16.2,0,0,0,.418,6.642,17,17,0,0,0,.776,1.738,16.946,16.946,0,0,1,.847,1.908,17,17,0,0,1,.558,6.187.534.534,0,0,1-.532.514" transform="translate(16.841 16.671)" fill="#fff"/>
    <path id="Tracé_543" data-name="Tracé 543" d="M28.95,19.975a1.8,1.8,0,0,0-.242.017,4.15,4.15,0,0,0-1.551.7L21.85,24a10.288,10.288,0,0,0-2.681,2.107,10.334,10.334,0,0,0-.834,1.287,11.322,11.322,0,0,1-.934,1.429,11.29,11.29,0,0,1-1.464,1.423L13.632,32.22a8.784,8.784,0,0,0,5.1-1.25,10.78,10.78,0,0,0,2.213-2.39,20.406,20.406,0,0,1,1.292-1.6,10.34,10.34,0,0,1,3.252-2.346,19.878,19.878,0,0,1,2.363-.849c.6-.189,1.226-.383,1.812-.619a5.836,5.836,0,0,0,2.579-1.788,12.738,12.738,0,0,1-1.137-.6,4.7,4.7,0,0,0-2.154-.813M13.235,33.292c-.362,0-.714-.006-1.046-.011a.533.533,0,0,1-.336-.937l3.392-2.908a10.084,10.084,0,0,0,1.327-1.285,9.93,9.93,0,0,0,.841-1.294,11.219,11.219,0,0,1,.924-1.42,11.37,11.37,0,0,1,2.949-2.344L26.6,19.786a5.046,5.046,0,0,1,1.973-.852,4.909,4.909,0,0,1,3.06.926,7.859,7.859,0,0,0,1.529.73.53.53,0,0,1,.324.277.549.549,0,0,1,.018.429c-.606,1.531-2.414,2.451-3.44,2.864-.623.253-1.266.453-1.891.647a18.762,18.762,0,0,0-2.237.8,9.242,9.242,0,0,0-2.913,2.1c-.434.466-.836,1-1.226,1.512a11.622,11.622,0,0,1-2.446,2.616c-1.812,1.285-4.154,1.453-6.112,1.453" transform="translate(9.899 16.046)" fill="#fff"/>
    <path id="Tracé_544" data-name="Tracé 544" d="M44.44,28.68c-3,.294-6.659.7-9.291,2.71a18.179,18.179,0,0,0-2.058,1.939,18.583,18.583,0,0,1-2.278,2.122,18.726,18.726,0,0,1-1.834,1.154,10.812,10.812,0,0,0-2.555,1.815c-.131.137-.261.283-.392.431l-.05.055a9.138,9.138,0,0,0,3.28-1.03,13.373,13.373,0,0,0,3.285-3.063,12.232,12.232,0,0,1,4.195-3.59c2.825-1.22,6-.283,9.008.911.29.115.58.237.858.377A11.581,11.581,0,0,0,44.44,28.68M24.109,40.234a1.058,1.058,0,0,1-.414-.085.533.533,0,0,1,.165-1.024c.139-.009.277-.02.414-.033a6.952,6.952,0,0,0,.963-.948c.139-.157.277-.312.412-.455a11.779,11.779,0,0,1,2.8-2.006,17.658,17.658,0,0,0,1.73-1.087,17.376,17.376,0,0,0,2.143-2,19.18,19.18,0,0,1,2.181-2.05c2.954-2.254,6.921-2.64,10.108-2.95a.536.536,0,0,1,.449.176,12.684,12.684,0,0,1,3.006,6.119.533.533,0,0,1-.982.372,3.347,3.347,0,0,0-1.725-1.13c-2.8-1.111-5.727-1.991-8.193-.926a11.275,11.275,0,0,0-3.81,3.309A14.392,14.392,0,0,1,29.793,38.8a12.526,12.526,0,0,1-5.23,1.335,1.2,1.2,0,0,1-.455.1" transform="translate(19.83 23.413)" fill="#fff"/>
    <path id="Tracé_545" data-name="Tracé 545" d="M36.076,28.557c3.28,7.356,2.507,10.467,1.882,12.983-.046.187-.091.372-.135.555a21.427,21.427,0,0,0-.577,5.071,13.716,13.716,0,0,0,.767-3.03,16,16,0,0,1,.786-3.167,15.541,15.541,0,0,1,.943-1.852,10.162,10.162,0,0,0,1.085-2.344A9.426,9.426,0,0,0,41,33.917a6.271,6.271,0,0,0-1.144-3.98,5.58,5.58,0,0,0-3.779-1.379m.712,20.836a.513.513,0,0,1-.174-.03.531.531,0,0,1-.357-.46,22.47,22.47,0,0,1,.529-7.054q.067-.28.139-.566c.638-2.571,1.362-5.487-2.185-13.09a.533.533,0,0,1,.51-.758c2,.1,4.061.325,5.393,1.78a7.154,7.154,0,0,1,1.422,4.651,10.344,10.344,0,0,1-.207,3.18,11.1,11.1,0,0,1-1.189,2.6,14.4,14.4,0,0,0-.878,1.721,15.255,15.255,0,0,0-.727,2.956c-.309,1.743-.629,3.546-1.886,4.9a.528.528,0,0,1-.39.17" transform="translate(29.439 23.282)" fill="#fff"/>
    <path id="Tracé_546" data-name="Tracé 546" d="M46.755,32.926c-1.551.49-2.806,1.808-4.121,3.189a15.793,15.793,0,0,1-3.762,3.2A14.483,14.483,0,0,1,34.9,40.544a11.23,11.23,0,0,0-4.169,1.431A11.275,11.275,0,0,0,27.7,45.739c-.255.423-.516.861-.788,1.281a33.4,33.4,0,0,1-9.036,8.7l.3-.061A22.806,22.806,0,0,0,23.706,54a20.877,20.877,0,0,0,5.509-4.6,38.781,38.781,0,0,1,3.152-3.054,38.1,38.1,0,0,1,4.006-2.786A37.692,37.692,0,0,0,40.2,40.912a34.07,34.07,0,0,0,6.555-7.986M14.467,57.943A.534.534,0,0,1,14.123,57a2.892,2.892,0,0,1,.438-.3c4.087-2.758,8.63-5.9,11.458-10.264.263-.4.519-.834.769-1.248a12.252,12.252,0,0,1,3.346-4.1,12.191,12.191,0,0,1,4.553-1.6,13.453,13.453,0,0,0,3.683-1.124,14.957,14.957,0,0,0,3.492-3c1.7-1.778,3.446-3.618,5.98-3.718a.533.533,0,0,1,.47.821C46.19,35.771,44,39.17,40.879,41.734a38.556,38.556,0,0,1-3.934,2.727,37.155,37.155,0,0,0-3.9,2.706,38.388,38.388,0,0,0-3.065,2.971,21.969,21.969,0,0,1-5.8,4.812,23.647,23.647,0,0,1-5.79,1.747,14.289,14.289,0,0,0-3.278.919c-.118.079-.235.157-.351.237a.531.531,0,0,1-.3.091" transform="translate(11.825 26.869)" fill="#fff"/>
    <path id="Tracé_547" data-name="Tracé 547" d="M23.383,28.75c-.218.592-.494,1.17-.756,1.725s-.5,1.057-.691,1.564c-.832,2.192-.658,4.562-.475,7.073.183,2.477.37,5.039-.5,7.426A17.589,17.589,0,0,1,18.433,50.8a20.989,20.989,0,0,0-2.076,3.241,16.04,16.04,0,0,0-1.274,6.411c.749-1.553,1.664-3.233,2.614-4.978.919-1.688,1.869-3.433,2.753-5.215,2.891-5.816,4.134-10.343,4.032-14.68a29.808,29.808,0,0,0-1.1-6.825m-8.851,34.83a.408.408,0,0,1-.094-.009A.529.529,0,0,1,14,63.05c-.017-3.032-.033-6.47,1.394-9.471a21.626,21.626,0,0,1,2.18-3.413,16.565,16.565,0,0,0,2.388-3.993c.789-2.172.617-4.509.436-6.984-.185-2.516-.375-5.115.54-7.528.209-.547.471-1.105.727-1.643a7.871,7.871,0,0,0,1.089-3.54l-.327-1.117a.533.533,0,0,1,.982-.4,3.461,3.461,0,0,1,.4,1.318,36.618,36.618,0,0,1,1.743,9.271c.137,5.857-2.3,11.467-4.143,15.179-.895,1.8-1.849,3.553-2.773,5.25a65.019,65.019,0,0,0-3.6,7.254.535.535,0,0,1-.5.346" transform="translate(11.878 20.943)" fill="#fff"/>
    <path id="Tracé_548" data-name="Tracé 548" d="M49.158,39.429C47.5,40.976,45.732,42.39,44,43.777a64.638,64.638,0,0,0-6.583,5.759c-.8.843-1.579,1.754-2.329,2.632a40.634,40.634,0,0,1-3.927,4.189,25,25,0,0,1-11.421,5.489c-.209.044-.42.085-.63.128a12.136,12.136,0,0,0-2.895.828,9.769,9.769,0,0,0-4.03,4.378c1.239-.584,2.7-1.105,4.224-1.645.641-.227,1.292-.458,1.934-.7A62.055,62.055,0,0,0,49.158,39.429m-38.3,29.626a.535.535,0,0,1-.475-.776c1.113-2.165,2.636-5.13,5.365-6.439a13.146,13.146,0,0,1,3.145-.911c.207-.043.414-.083.621-.128a23.94,23.94,0,0,0,10.935-5.243,40.072,40.072,0,0,0,3.821-4.082c.76-.889,1.545-1.812,2.37-2.677a65.514,65.514,0,0,1,6.688-5.857,50.654,50.654,0,0,0,8.051-7.433.533.533,0,0,1,.889.579A63.033,63.033,0,0,1,18.71,65.835c-.647.24-1.3.473-1.948.7a26.939,26.939,0,0,0-5.6,2.424.525.525,0,0,1-.3.092" transform="translate(8.764 29.968)" fill="#fff"/>
    <path id="Tracé_549" data-name="Tracé 549" d="M13.432,31.305a17.865,17.865,0,0,1-1,2.978,15.4,15.4,0,0,0-1.048,3.276c-.333,2.146.375,4.235,1.124,6.448a17.777,17.777,0,0,1,1.281,5.956,17.353,17.353,0,0,1-2.08,6.866,34.453,34.453,0,0,0-1.385,3.291,16.5,16.5,0,0,0,.965,12.6c.233-1.412.5-3.072.758-4.694l.02-.118a37.668,37.668,0,0,0,.529-4.4c.028-.664.018-1.348.009-2.009a26.882,26.882,0,0,1,.072-2.98A27.06,27.06,0,0,1,13.856,53.4c.192-.638.39-1.3.564-1.945a33.527,33.527,0,0,0-.987-20.147m-1.867,43.5a.534.534,0,0,1-.449-.246,17.3,17.3,0,0,1-1.8-14.784,35.23,35.23,0,0,1,1.425-3.394c1-2.161,1.943-4.2,1.982-6.439A16.956,16.956,0,0,0,11.5,44.349c-.758-2.237-1.54-4.55-1.168-6.953a16.208,16.208,0,0,1,1.113-3.512c.728-1.806,1.418-3.514.895-5.185a.533.533,0,0,1,.991-.386,34.543,34.543,0,0,1,2.124,23.415c-.177.664-.379,1.331-.571,1.976a26.049,26.049,0,0,0-1.142,4.919,25.882,25.882,0,0,0-.067,2.86c.009.677.017,1.375-.011,2.069a38.187,38.187,0,0,1-.542,4.522l-.018.12c-.359,2.228-.728,4.533-1.008,6.169a.534.534,0,0,1-.42.433.51.51,0,0,1-.105.011" transform="translate(7.139 23.768)" fill="#fff"/>
    <path id="Tracé_550" data-name="Tracé 550" d="M7.741,37.539l-1.7,3.838C5.127,43.421,4,45.967,4.3,48.42a13.558,13.558,0,0,0,.763,2.793c.185.532.377,1.085.532,1.645a25.758,25.758,0,0,1,.7,5.607c.059,1.161.118,2.363.283,3.518a30.914,30.914,0,0,0,4.134,10.748,76.377,76.377,0,0,1-2.431-23.36c.028-.555.063-1.113.1-1.675.205-3.44.42-6.984-.63-10.158m4.707,39.683a.533.533,0,0,1-.455-.255c-2.671-4.372-5.7-9.328-6.478-14.834-.168-1.2-.231-2.429-.29-3.614a24.652,24.652,0,0,0-.66-5.378c-.146-.527-.331-1.059-.512-1.577a14.539,14.539,0,0,1-.813-3.013C2.9,45.8,4.1,43.109,5.063,40.942l2.224-5.006a.535.535,0,0,1,.486-.316h0a.531.531,0,0,1,.486.314c1.664,3.7,1.414,7.829,1.174,11.828-.033.556-.067,1.113-.094,1.664A74.618,74.618,0,0,0,12.953,76.52a.534.534,0,0,1-.5.7" transform="translate(2.7 30.229)" fill="#fff"/>
    <path id="Tracé_551" data-name="Tracé 551" d="M28.918,52.549A49.981,49.981,0,0,0,23.971,55.3a30.789,30.789,0,0,1-8.393,3.991c-.157.039-.314.076-.473.113a5.729,5.729,0,0,0-2.07.754A6.1,6.1,0,0,0,11.609,61.9a13.821,13.821,0,0,1-1.3,1.788,21.63,21.63,0,0,0,12.994-5.653c.736-.682,1.46-1.447,2.163-2.189a32.433,32.433,0,0,1,3.45-3.3M8.9,64.815a.533.533,0,0,1-.324-.958,9.09,9.09,0,0,0,2.137-2.529,6.921,6.921,0,0,1,1.7-2.037,6.612,6.612,0,0,1,2.449-.926c.153-.035.307-.07.458-.109a29.5,29.5,0,0,0,8.1-3.867A41.431,41.431,0,0,1,29.607,51.1a7.027,7.027,0,0,1,3.7-.6.533.533,0,0,1,.015,1.048c-2.849.571-4.906,2.743-7.086,5.041-.712.752-1.449,1.531-2.211,2.237A22.665,22.665,0,0,1,8.9,64.815Z" transform="translate(7.099 42.797)" fill="#fff"/>
    <path id="Tracé_552" data-name="Tracé 552" d="M26.725,51.591a3.914,3.914,0,0,0-1.4.316c-2.51.971-4.416,2.991-6.833,5.55-.037.039-.076.079-.113.12a19.727,19.727,0,0,0,5.692-1.854l.226-.116a6.255,6.255,0,0,1,1.873-.719,4.775,4.775,0,0,1,2.681.46,8.525,8.525,0,0,1,2.682,1.895,11.291,11.291,0,0,0-2.224-4.219,3.809,3.809,0,0,0-2.477-1.429c-.035,0-.068,0-.1,0M32.751,60.6a.536.536,0,0,1-.494-.329,7.482,7.482,0,0,0-3.845-3.949,3.741,3.741,0,0,0-2.078-.383,5.4,5.4,0,0,0-1.553.616l-.231.118a20.762,20.762,0,0,1-7.542,2.148.533.533,0,0,1-.429-.9q.585-.613,1.135-1.2c2.407-2.551,4.487-4.755,7.223-5.812a4.918,4.918,0,0,1,1.939-.385A4.826,4.826,0,0,1,30.1,52.314c1.932,2.174,2.688,5.087,3.172,7.653a.532.532,0,0,1-.372.61.537.537,0,0,1-.152.022" transform="translate(13.944 42.878)" fill="#fff"/>
    <path id="Tracé_553" data-name="Tracé 553" d="M1.105,50.165c-.227,1.823.577,3.649,1.422,5.57A15.189,15.189,0,0,1,4.137,61.1a14.044,14.044,0,0,1-.055,1.612,9.851,9.851,0,0,0-.011,1.965,9.482,9.482,0,0,0,1.459,3.451c1.9,3.224,3.919,6.422,6.01,9.541A53.106,53.106,0,0,0,8.7,67.5c-.287-.68-.6-1.366-.913-2.028-.464-1-.945-2.028-1.335-3.085-.458-1.239-.8-2.525-1.13-3.769-.288-1.087-.584-2.211-.958-3.281a11.388,11.388,0,0,0-3.257-5.173M12.576,80.672a.536.536,0,0,1-.44-.231C9.5,76.625,6.971,72.663,4.612,68.666a10.337,10.337,0,0,1-1.6-3.853,10.614,10.614,0,0,1,.006-2.181,13.245,13.245,0,0,0,.052-1.494,14.38,14.38,0,0,0-1.52-4.975C.553,53.9-.481,51.548.242,49.095a.533.533,0,0,1,.325-.349.528.528,0,0,1,.475.054A11.61,11.61,0,0,1,5.37,54.988c.385,1.109.688,2.252.982,3.357.322,1.22.656,2.481,1.1,3.673.375,1.017.845,2.028,1.3,3,.312.673.636,1.368.93,2.067A58.444,58.444,0,0,1,12.8,78.52q.153.774.3,1.512a.532.532,0,0,1-.312.6.522.522,0,0,1-.209.043" transform="translate(0 41.339)" fill="#fff"/>
    <path id="Tracé_554" data-name="Tracé 554" d="M17.435,60.962l-1.25.664a16.326,16.326,0,0,0-4.753,3.289,15.545,15.545,0,0,0-2.6,4.916c-.02.05-.039.1-.057.153.375-.187.752-.362,1.124-.534a13.819,13.819,0,0,0,3.869-2.329,13.838,13.838,0,0,0,2.651-4.171c.32-.662.645-1.335,1.011-1.987m-9.7,10.72a.532.532,0,0,1-.482-.758c.187-.4.373-.9.59-1.472a16.4,16.4,0,0,1,2.8-5.243,17.365,17.365,0,0,1,5.052-3.527l3.122-1.658a.533.533,0,0,1,.662.81,17.491,17.491,0,0,0-2.087,3.577,14.824,14.824,0,0,1-2.873,4.479,14.886,14.886,0,0,1-4.156,2.525,25.666,25.666,0,0,0-2.35,1.191.523.523,0,0,1-.274.076" transform="translate(6.109 50.039)" fill="#fff"/>
    <path id="Tracé_555" data-name="Tracé 555" d="M23.33,58.118a17.2,17.2,0,0,0-2.947.889c-1.662.688-3.3,1.815-7.406,8.824A28.169,28.169,0,0,0,19.058,63c.494-.553.982-1.166,1.453-1.758a22.012,22.012,0,0,1,2.819-3.126M11.46,69.929a.525.525,0,0,1-.37-.15A.53.53,0,0,1,11,69.134c5.076-8.966,6.923-10.26,8.979-11.112a27.139,27.139,0,0,1,6.326-1.5.533.533,0,0,1,.216,1.043c-2.172.569-3.629,2.405-5.173,4.346-.481.606-.976,1.231-1.492,1.808a35.129,35.129,0,0,1-8.114,6.138.544.544,0,0,1-.279.078" transform="translate(9.273 47.958)" fill="#fff"/>
    <path id="Tracé_556" data-name="Tracé 556" d="M31.557,60.646a24.179,24.179,0,0,1-4.315,4.013c-.878.7-1.786,1.414-2.592,2.163a38.729,38.729,0,0,0-4.47,5.328,30.66,30.66,0,0,1-6.069,6.687c-.458.338-.939.654-1.4.961a12.96,12.96,0,0,0-2.782,2.211,9.767,9.767,0,0,0-2.006,5.546c1.745-2.793,4.642-5,7.465-7.143.662-.5,1.348-1.026,2-1.54A51.136,51.136,0,0,0,29.235,65.521a20.97,20.97,0,0,0,2.322-4.875M7.214,90.9a.474.474,0,0,1-.087-.007.531.531,0,0,1-.446-.544c.113-3.409.385-6.666,2.437-9.036a13.948,13.948,0,0,1,3-2.4c.453-.3.922-.606,1.357-.928a29.462,29.462,0,0,0,5.847-6.463,39.409,39.409,0,0,1,4.6-5.474c.837-.778,1.762-1.51,2.658-2.218,2.376-1.878,4.618-3.653,5.457-6.309a.534.534,0,0,1,1.043.159c.011,3.193-1.564,6.169-2.939,8.406a52.172,52.172,0,0,1-12.1,13.628c-.658.521-1.348,1.044-2.015,1.553-3.524,2.679-7.167,5.45-8.3,9.256a.532.532,0,0,1-.51.381" transform="translate(5.67 48.494)" fill="#fff"/>
    <path id="Tracé_557" data-name="Tracé 557" d="M3.364,66.779a23.237,23.237,0,0,1-.092,3.209c-.155,2.082-.3,4.047.645,5.7a9.968,9.968,0,0,0,2.592,2.64c.3.24.6.482.9.732a18.483,18.483,0,0,1,2.222,2.237,39.323,39.323,0,0,0-2.49-6.729L5.571,71.009a24.765,24.765,0,0,0-2.207-4.23m7.2,17.564a.536.536,0,0,1-.518-.4,11.586,11.586,0,0,0-3.328-4.069c-.285-.242-.577-.477-.873-.712a10.881,10.881,0,0,1-2.851-2.941c-1.109-1.936-.943-4.158-.784-6.308A13.382,13.382,0,0,0,2,65.106a.534.534,0,0,1,.88-.54A18.216,18.216,0,0,1,6.546,70.58l1.57,3.557c1.281,2.9,2.732,6.195,2.978,9.635a.532.532,0,0,1-.447.564.453.453,0,0,1-.085.007" transform="translate(1.681 54.668)" fill="#fff"/>
    <path id="Tracé_558" data-name="Tracé 558" d="M31.651,67.869l-6.716,2.059a7.792,7.792,0,0,0-2.316.991,7.753,7.753,0,0,0-1.745,2.063l-8.659,13a17.447,17.447,0,0,0-2.137,3.88,12.767,12.767,0,0,0-.285,6.01A24.607,24.607,0,0,1,13.2,85.583c2.668-4.082,7-6.729,10.816-9.064,1.714-1.048,2.832-1.048,3.548-.719ZM9.95,99.912a.533.533,0,0,1-.519-.416c-.671-2.96-1.5-6.642-.36-9.979a18.187,18.187,0,0,1,2.257-4.126l8.659-13a8.723,8.723,0,0,1,2.006-2.337,8.694,8.694,0,0,1,2.631-1.146l7.925-2.431a.532.532,0,0,1,.63.752L28.241,76.82a.532.532,0,0,1-.847.137c-.684-.671-2.059.007-2.817.471-3.723,2.278-7.944,4.856-10.482,8.737-2.608,3.991-3.233,8.936-3.614,13.26a.531.531,0,0,1-.494.484l-.037,0" transform="translate(7.216 56.397)" fill="#fff"/>
    <path id="Tracé_559" data-name="Tracé 559" d="M21.908,90.328a.534.534,0,0,1-.5-.348,15.064,15.064,0,0,1-.943-5.54c.006-.3.018-.6.033-.9a12.236,12.236,0,0,0-.006-1.932,12.342,12.342,0,0,0-1.736-4.422.533.533,0,0,1,.935-.512,13.349,13.349,0,0,1,1.86,4.818,13.291,13.291,0,0,1,.011,2.1c-.013.288-.028.577-.031.865s0,.6.013.893a34.142,34.142,0,0,1,1.529-4.666,27.809,27.809,0,0,0,1.71-5.64,12.844,12.844,0,0,0-1.32-7.8.533.533,0,0,1,.943-.5A13.882,13.882,0,0,1,25.839,75.2a28.527,28.527,0,0,1-1.767,5.862c-1.126,2.95-2.189,5.736-1.64,8.63a.533.533,0,0,1-.379.614.551.551,0,0,1-.144.018" transform="translate(15.863 56.405)" fill="#fff"/>
  </g>
</svg>
