<svg xmlns="http://www.w3.org/2000/svg" xmlns:xlink="http://www.w3.org/1999/xlink" width="51.284" height="103.714" viewBox="0 0 51.284 103.714">
  <defs>
    <clipPath id="clip-path">
      <rect id="Rectangle_52" data-name="Rectangle 52" width="51.284" height="103.714" transform="translate(0 0)" fill="none"/>
    </clipPath>
  </defs>
  <g id="Groupe_333" data-name="Groupe 333" clip-path="url(#clip-path)">
    <path id="Tracé_534" data-name="Tracé 534" d="M18.092,103.714a.291.291,0,0,1-.235-.12C9.505,91.943,5.482,78.607,6.53,66.043a39.338,39.338,0,0,1,3.883-14.42c2.216-4.425,5.412-8.356,8.5-12.157,3.763-4.626,7.653-9.409,9.7-15.046.3-.815.565-1.673.825-2.5.851-2.716,1.73-5.525,3.774-7.551a19.228,19.228,0,0,1,3.094-2.321c1.9-1.236,3.695-2.4,4.328-4.4a.288.288,0,1,1,.55.174c-.7,2.194-2.662,3.473-4.563,4.709a18.911,18.911,0,0,0-3,2.247c-1.942,1.926-2.8,4.665-3.63,7.314-.261.835-.532,1.7-.833,2.527-2.083,5.728-6,10.55-9.8,15.213-3.072,3.777-6.248,7.682-8.436,12.052A38.78,38.78,0,0,0,7.1,66.091c-1.036,12.428,2.949,25.627,11.222,37.167a.288.288,0,0,1-.066.4.292.292,0,0,1-.168.054" fill="#b78016"/>
    <path id="Tracé_535" data-name="Tracé 535" d="M47.522.958C44.254,2.213,41.716,4.99,39.014,8.2a12.807,12.807,0,0,0-1.642,2.267c-.131.254-.252.526-.366.789a9.922,9.922,0,0,1-.453.947,10,10,0,0,0,3.9-2.643c.523-.531,1.03-1.1,1.521-1.653a27.9,27.9,0,0,1,2.446-2.532c.148-.13.3-.257.452-.385a6.618,6.618,0,0,0,1.573-1.649,7.829,7.829,0,0,0,.495-1.117A7.555,7.555,0,0,1,47.522.958m-11.7,12.013a.288.288,0,0,1-.19-.505,4.242,4.242,0,0,0,.849-1.444c.119-.272.242-.553.383-.824a13.18,13.18,0,0,1,1.713-2.372c3.1-3.676,5.989-6.8,10.037-7.817a.288.288,0,0,1,.18.546c-.7.287-.993,1.058-1.309,1.874a8.261,8.261,0,0,1-.535,1.2,7.179,7.179,0,0,1-1.7,1.8c-.151.125-.3.25-.445.378a27.58,27.58,0,0,0-2.394,2.479c-.495.558-1.007,1.135-1.542,1.676a9.591,9.591,0,0,1-5,3,.282.282,0,0,1-.05.005" fill="#b78016"/>
    <path id="Tracé_536" data-name="Tracé 536" d="M37.971,3.058a9.12,9.12,0,0,1-.95.672,5.98,5.98,0,0,0-1.229.949,5.83,5.83,0,0,0-.964,1.789c-.125.312-.254.635-.4.944a13.7,13.7,0,0,1-.8,1.357,8.407,8.407,0,0,0-1.036,1.96,7.061,7.061,0,0,0,.082,3.666c.137-.5.254-1.016.376-1.551a15.724,15.724,0,0,1,1.222-3.826,15.642,15.642,0,0,1,1.628-2.369c.245-.312.5-.635.733-.958a7.639,7.639,0,0,0,1.344-2.633m-5.335,12.69h-.014a.288.288,0,0,1-.265-.216,9.1,9.1,0,0,1-.32-4.978,8.959,8.959,0,0,1,1.1-2.1,13.281,13.281,0,0,0,.768-1.3c.142-.29.267-.6.388-.905a6.32,6.32,0,0,1,1.071-1.96,6.453,6.453,0,0,1,1.344-1.047,4.567,4.567,0,0,0,1.431-1.22.289.289,0,0,1,.53.166,7.119,7.119,0,0,1-1.576,3.839c-.241.331-.5.658-.744.974a15.19,15.19,0,0,0-1.572,2.279,15.277,15.277,0,0,0-1.171,3.688,21.932,21.932,0,0,1-.7,2.586.287.287,0,0,1-.271.19" fill="#b78016"/>
    <path id="Tracé_537" data-name="Tracé 537" d="M33.593,15.73a7.51,7.51,0,0,0,4.683-1.185c.336-.223.667-.481.986-.731a9.079,9.079,0,0,1,1.857-1.222,9.173,9.173,0,0,1,2.179-.567,7.835,7.835,0,0,0,2.192-.6,7.73,7.73,0,0,0,2.892-3.338,17.754,17.754,0,0,1,1.334-2.052A17.545,17.545,0,0,0,45.34,8.52c-.389.332-.758.707-1.117,1.069-.225.229-.459.465-.7.692-2.811,2.664-6.411,4.1-9.93,5.449m.588.6a7.752,7.752,0,0,1-1.766-.2.288.288,0,0,1-.222-.261.285.285,0,0,1,.183-.289l.6-.228c3.6-1.376,7.315-2.8,10.154-5.489.234-.22.464-.453.687-.679.368-.37.746-.754,1.153-1.1a19.019,19.019,0,0,1,4.794-2.7c.374-.164.747-.328,1.116-.5A.288.288,0,0,1,51.243,5a.291.291,0,0,1-.069.378,10.135,10.135,0,0,0-2.294,3,8.288,8.288,0,0,1-3.132,3.562,8.35,8.35,0,0,1-2.352.651,8.536,8.536,0,0,0-2.042.527,8.391,8.391,0,0,0-1.736,1.148c-.328.257-.667.522-1.025.758a8.08,8.08,0,0,1-4.412,1.3" fill="#b78016"/>
    <path id="Tracé_538" data-name="Tracé 538" d="M30.593,6.217a2.349,2.349,0,0,0-.29.576c-.081.234-.14.474-.2.729a6.628,6.628,0,0,1-.262.907,7.1,7.1,0,0,1-.608,1.137,4.252,4.252,0,0,0-.69,1.512,4.3,4.3,0,0,0,.121,1.481,7.362,7.362,0,0,1,.157,1.072,7.328,7.328,0,0,1-.225,1.865,6.368,6.368,0,0,0-.206,1.809,5.234,5.234,0,0,0,1.392,2.831c-.023-.113-.048-.231-.075-.351a7.272,7.272,0,0,1-.23-1.666,6.572,6.572,0,0,1,.128-1.072c.038-.214.073-.416.1-.622a10.236,10.236,0,0,0-.066-2.176c-.034-.326-.068-.664-.086-1a21.728,21.728,0,0,1,1.044-7.033m-.475,15.05a.283.283,0,0,1-.216-.1,7.087,7.087,0,0,1-2.089-3.818,6.936,6.936,0,0,1,.218-1.972,6.894,6.894,0,0,0,.213-1.718,6.8,6.8,0,0,0-.147-.989,4.814,4.814,0,0,1-.125-1.684,4.773,4.773,0,0,1,.768-1.724A6.561,6.561,0,0,0,29.3,8.22a6.338,6.338,0,0,0,.239-.832A7.547,7.547,0,0,1,29.76,6.6a2.125,2.125,0,0,1,1.25-1.412.287.287,0,0,1,.289.065.293.293,0,0,1,.079.286,23.717,23.717,0,0,0-1.255,7.674c.02.323.054.655.085.975a10.675,10.675,0,0,1,.066,2.3c-.024.223-.064.444-.1.657a6.21,6.21,0,0,0-.121.981,6.79,6.79,0,0,0,.217,1.533,3.177,3.177,0,0,1,.127,1.4.287.287,0,0,1-.215.2.27.27,0,0,1-.063.007" fill="#b78016"/>
    <path id="Tracé_539" data-name="Tracé 539" d="M31.167,20.788a5.177,5.177,0,0,0,2.95.2,6.251,6.251,0,0,0,2.3-1.563,7.487,7.487,0,0,1,2.3-1.621,7.366,7.366,0,0,1,1.918-.363c.369-.036.751-.074,1.112-.145a9.953,9.953,0,0,0,3.876-1.986H45.5c-2.617,0-4.933.212-6.776,1.542-.268.194-.529.416-.782.63a9.829,9.829,0,0,1-1.107.855,9.959,9.959,0,0,1-1.989.888l-.443.162c-.924.346-1.846.765-2.738,1.17l-.5.226m1.954.92a9.467,9.467,0,0,1-2.859-.6.288.288,0,0,1-.027-.538c.4-.176.8-.356,1.19-.536.9-.409,1.833-.833,2.776-1.185.149-.056.3-.11.448-.164a9.471,9.471,0,0,0,1.877-.833,9.406,9.406,0,0,0,1.042-.807c.261-.222.531-.452.817-.659,2.39-1.724,5.683-1.677,8.087-1.643a.288.288,0,0,1,.171.517,12.062,12.062,0,0,1-4.787,2.6c-.389.077-.785.115-1.168.153a6.764,6.764,0,0,0-1.769.329,6.951,6.951,0,0,0-2.114,1.506,6.763,6.763,0,0,1-2.522,1.69,4,4,0,0,1-1.162.163" fill="#b78016"/>
    <path id="Tracé_540" data-name="Tracé 540" d="M25.944,9.954a23.907,23.907,0,0,0-.967,2.906,5.829,5.829,0,0,0-.25,2.2,6.554,6.554,0,0,0,.318,1.2,8.178,8.178,0,0,1,.314,1.128,8.13,8.13,0,0,1-.039,2.384,12.657,12.657,0,0,0-.111,1.4A6.257,6.257,0,0,0,27.542,26c-.2-1.034-.379-2.275-.551-3.483a21.238,21.238,0,0,0-.665-3.363c-.061-.192-.127-.384-.193-.575a8.593,8.593,0,0,1-.431-1.564,8.7,8.7,0,0,1,.015-1.989l.01-.122c.138-1.639.211-3.3.217-4.947m2.033,16.989a.286.286,0,0,1-.151-.043,6.825,6.825,0,0,1-3.194-5.741,13.512,13.512,0,0,1,.115-1.462,7.616,7.616,0,0,0,.045-2.215,7.645,7.645,0,0,0-.3-1.048,7.206,7.206,0,0,1-.342-1.3,6.314,6.314,0,0,1,.265-2.417,24.4,24.4,0,0,1,1.542-4.235.288.288,0,0,1,.549.118A62.379,62.379,0,0,1,26.3,14.95l-.01.122a8.188,8.188,0,0,0-.019,1.857,8.1,8.1,0,0,0,.4,1.459c.068.2.136.393.2.591a21.737,21.737,0,0,1,.686,3.454c.213,1.493.433,3.038.7,4.156a.289.289,0,0,1-.112.3.284.284,0,0,1-.169.055" fill="#b78016"/>
    <path id="Tracé_541" data-name="Tracé 541" d="M29.09,26.831a5.066,5.066,0,0,0,3.243-.735,10.2,10.2,0,0,0,1.834-1.64c.316-.331.642-.672.987-.986a5.13,5.13,0,0,1,2.9-1.424,2.368,2.368,0,0,0-1.451-.34,6.225,6.225,0,0,1-1.606.946,9.39,9.39,0,0,0-.971.491,9.348,9.348,0,0,0-1.671,1.42c-.33.328-.671.667-1.038.973a7.648,7.648,0,0,1-2.222,1.3m.555.606a5.455,5.455,0,0,1-1.878-.327.288.288,0,0,1,.063-.557,6.33,6.33,0,0,0,3.113-1.461c.347-.289.68-.619,1-.938a9.845,9.845,0,0,1,1.778-1.5,9.846,9.846,0,0,1,1.029-.522,5.419,5.419,0,0,0,1.52-.906.291.291,0,0,1,.158-.077,2.916,2.916,0,0,1,2.677,1.078.289.289,0,0,1-.295.458A3.9,3.9,0,0,0,35.542,23.9c-.33.3-.649.635-.958.958a10.777,10.777,0,0,1-1.942,1.729,5.618,5.618,0,0,1-3,.854" fill="#b78016"/>
    <path id="Tracé_542" data-name="Tracé 542" d="M20.847,22.1a4.64,4.64,0,0,1,.772,2.45l.023.176a19.028,19.028,0,0,0,1.965,5.742,3.944,3.944,0,0,0,.8,1.23,7.5,7.5,0,0,0-.285-2.679,8.853,8.853,0,0,0-.43-.966,9.454,9.454,0,0,1-.445-1,9.354,9.354,0,0,1-.26-3.828,13.745,13.745,0,0,0,.023-2.508A3.962,3.962,0,0,1,20.847,22.1m3.834,10.355a.269.269,0,0,1-.07-.009c-.726-.18-1.167-.986-1.524-1.727a19.554,19.554,0,0,1-2.018-5.921l-.021-.177c-.121-.974-.257-2.078-1.041-2.452a.288.288,0,0,1,.115-.548A3.3,3.3,0,0,0,22.9,19.805a.292.292,0,0,1,.288-.16.286.286,0,0,1,.25.216,10.784,10.784,0,0,1,.122,3.4,8.76,8.76,0,0,0,.226,3.593,9.2,9.2,0,0,0,.42.94,9.167,9.167,0,0,1,.458,1.032,9.194,9.194,0,0,1,.3,3.347.289.289,0,0,1-.288.278" fill="#b78016"/>
    <path id="Tracé_543" data-name="Tracé 543" d="M21.015,19.485a.973.973,0,0,0-.131.009,2.245,2.245,0,0,0-.839.379l-2.871,1.789a5.565,5.565,0,0,0-1.45,1.14,5.59,5.59,0,0,0-.451.7,6.125,6.125,0,0,1-.505.773,6.108,6.108,0,0,1-.792.77l-1.247,1.068a4.752,4.752,0,0,0,2.758-.676,5.831,5.831,0,0,0,1.2-1.293,11.038,11.038,0,0,1,.7-.863,5.593,5.593,0,0,1,1.759-1.269,10.752,10.752,0,0,1,1.278-.459c.327-.1.663-.207.98-.335a3.157,3.157,0,0,0,1.4-.967,6.891,6.891,0,0,1-.615-.322,2.542,2.542,0,0,0-1.165-.44m-8.5,7.2c-.2,0-.386,0-.566-.006a.288.288,0,0,1-.182-.507L13.6,24.6a5.455,5.455,0,0,0,.718-.695,5.372,5.372,0,0,0,.455-.7,6.069,6.069,0,0,1,.5-.768,6.151,6.151,0,0,1,1.595-1.268l2.873-1.789a2.729,2.729,0,0,1,1.067-.461,2.656,2.656,0,0,1,1.655.5,4.251,4.251,0,0,0,.827.4.286.286,0,0,1,.175.15.3.3,0,0,1,.01.232,3.3,3.3,0,0,1-1.861,1.549c-.337.137-.685.245-1.023.35a10.149,10.149,0,0,0-1.21.434,5,5,0,0,0-1.576,1.137c-.235.252-.452.54-.663.818A6.287,6.287,0,0,1,15.82,25.9a5.671,5.671,0,0,1-3.306.786" fill="#b78016"/>
    <path id="Tracé_544" data-name="Tracé 544" d="M34.766,28.179a9.826,9.826,0,0,0-5.026,1.466,9.834,9.834,0,0,0-1.113,1.049A10.052,10.052,0,0,1,27.4,31.842a10.129,10.129,0,0,1-.992.624,5.849,5.849,0,0,0-1.382.982c-.071.074-.141.153-.212.233l-.027.03a4.943,4.943,0,0,0,1.774-.557A7.234,7.234,0,0,0,28.333,31.5,6.617,6.617,0,0,1,30.6,29.555c1.528-.66,3.245-.153,4.873.493.157.062.314.128.464.2a6.264,6.264,0,0,0-1.173-2.073m-11,6.25a.572.572,0,0,1-.224-.046.288.288,0,0,1,.089-.554c.075,0,.15-.011.224-.018a3.761,3.761,0,0,0,.521-.513c.075-.085.15-.169.223-.246a6.372,6.372,0,0,1,1.514-1.085,9.552,9.552,0,0,0,.936-.588A9.4,9.4,0,0,0,28.21,30.3a10.375,10.375,0,0,1,1.18-1.109c1.6-1.219,3.744-1.428,5.468-1.6a.29.29,0,0,1,.243.095A6.861,6.861,0,0,1,36.727,31a.289.289,0,0,1-.531.2,1.811,1.811,0,0,0-.933-.611c-1.513-.6-3.1-1.077-4.432-.5a6.1,6.1,0,0,0-2.061,1.79,7.785,7.785,0,0,1-1.927,1.781,6.776,6.776,0,0,1-2.829.722.65.65,0,0,1-.246.052" fill="#b78016"/>
    <path id="Tracé_545" data-name="Tracé 545" d="M35.439,28.042c1.774,3.979,1.356,5.662,1.018,7.023-.025.1-.049.2-.073.3a11.591,11.591,0,0,0-.312,2.743,7.42,7.42,0,0,0,.415-1.639,8.653,8.653,0,0,1,.425-1.713,8.406,8.406,0,0,1,.51-1,5.5,5.5,0,0,0,.587-1.268,5.1,5.1,0,0,0,.093-1.545,3.392,3.392,0,0,0-.619-2.153,3.018,3.018,0,0,0-2.044-.746m.385,11.271a.277.277,0,0,1-.094-.016.287.287,0,0,1-.193-.249,12.155,12.155,0,0,1,.286-3.816q.036-.151.075-.306c.345-1.391.737-2.968-1.182-7.081a.288.288,0,0,1,.276-.41,4.045,4.045,0,0,1,2.917.963,3.87,3.87,0,0,1,.769,2.516,5.6,5.6,0,0,1-.112,1.72,6,6,0,0,1-.643,1.405,7.791,7.791,0,0,0-.475.931,8.252,8.252,0,0,0-.393,1.6,4.963,4.963,0,0,1-1.02,2.652.286.286,0,0,1-.211.092" fill="#b78016"/>
    <path id="Tracé_546" data-name="Tracé 546" d="M31.688,32.345a5.834,5.834,0,0,0-2.229,1.725A8.543,8.543,0,0,1,27.424,35.8a7.835,7.835,0,0,1-2.147.664,6.075,6.075,0,0,0-2.255.774,6.1,6.1,0,0,0-1.64,2.036c-.138.229-.279.466-.426.693a18.069,18.069,0,0,1-4.888,4.7l.16-.033a12.337,12.337,0,0,0,2.992-.9,11.293,11.293,0,0,0,2.98-2.486,20.979,20.979,0,0,1,1.7-1.652A20.611,20.611,0,0,1,26.072,38.1a20.389,20.389,0,0,0,2.07-1.433,18.43,18.43,0,0,0,3.546-4.32M14.222,45.878a.289.289,0,0,1-.186-.509,1.564,1.564,0,0,1,.237-.162c2.211-1.492,4.668-3.19,6.2-5.552.142-.219.281-.451.416-.675a6.627,6.627,0,0,1,1.81-2.216A6.6,6.6,0,0,1,25.16,35.9a7.277,7.277,0,0,0,1.992-.608,8.091,8.091,0,0,0,1.889-1.621c.917-.962,1.864-1.957,3.235-2.011a.288.288,0,0,1,.254.444,20.788,20.788,0,0,1-4.021,5.005,20.855,20.855,0,0,1-2.128,1.475,20.1,20.1,0,0,0-2.107,1.464,20.765,20.765,0,0,0-1.658,1.607,11.884,11.884,0,0,1-3.138,2.6,12.792,12.792,0,0,1-3.132.945,7.729,7.729,0,0,0-1.773.5l-.19.128a.287.287,0,0,1-.161.049" fill="#b78016"/>
    <path id="Tracé_547" data-name="Tracé 547" d="M19.074,26.881c-.118.32-.267.633-.409.933s-.27.572-.374.846a8.863,8.863,0,0,0-.257,3.826,9.586,9.586,0,0,1-.269,4.017,9.515,9.515,0,0,1-1.369,2.3,11.354,11.354,0,0,0-1.123,1.753,8.677,8.677,0,0,0-.689,3.468c.405-.84.9-1.749,1.414-2.693.5-.913,1.011-1.857,1.489-2.821a16.812,16.812,0,0,0,2.181-7.941,16.124,16.124,0,0,0-.594-3.692M14.286,45.722a.221.221,0,0,1-.051-.005A.286.286,0,0,1,14,45.435a11.674,11.674,0,0,1,.754-5.123,11.7,11.7,0,0,1,1.179-1.846,8.961,8.961,0,0,0,1.292-2.16,9.035,9.035,0,0,0,.236-3.778,9.41,9.41,0,0,1,.292-4.072c.113-.3.255-.6.393-.889a4.258,4.258,0,0,0,.589-1.915l-.177-.6a.288.288,0,0,1,.531-.216,1.872,1.872,0,0,1,.215.713,19.808,19.808,0,0,1,.943,5.015A18.2,18.2,0,0,1,18,38.771c-.484.973-1,1.922-1.5,2.84a35.171,35.171,0,0,0-1.948,3.924.289.289,0,0,1-.27.187" fill="#b78016"/>
    <path id="Tracé_548" data-name="Tracé 548" d="M31.332,37.539c-.894.837-1.853,1.6-2.792,2.352a34.965,34.965,0,0,0-3.561,3.115c-.435.456-.854.949-1.26,1.424A21.981,21.981,0,0,1,21.595,46.7a13.525,13.525,0,0,1-6.178,2.969c-.113.024-.227.046-.341.069a6.565,6.565,0,0,0-1.566.448,5.284,5.284,0,0,0-2.18,2.368c.67-.316,1.462-.6,2.285-.89.347-.123.7-.248,1.046-.377A33.568,33.568,0,0,0,31.332,37.539M10.616,53.565a.289.289,0,0,1-.257-.42c.6-1.171,1.426-2.775,2.9-3.483a7.111,7.111,0,0,1,1.7-.493c.112-.023.224-.045.336-.069a12.95,12.95,0,0,0,5.915-2.836,21.676,21.676,0,0,0,2.067-2.208c.411-.481.836-.98,1.282-1.448A35.439,35.439,0,0,1,28.18,39.44a27.4,27.4,0,0,0,4.355-4.021.288.288,0,0,1,.481.313A34.1,34.1,0,0,1,14.862,51.823c-.35.13-.7.256-1.054.381a14.572,14.572,0,0,0-3.03,1.311.284.284,0,0,1-.162.05" fill="#b78016"/>
    <path id="Tracé_549" data-name="Tracé 549" d="M11.128,29.791a9.664,9.664,0,0,1-.543,1.611,8.329,8.329,0,0,0-.567,1.772,7.43,7.43,0,0,0,.608,3.488,9.616,9.616,0,0,1,.693,3.222A9.387,9.387,0,0,1,10.194,43.6a18.637,18.637,0,0,0-.749,1.78,8.925,8.925,0,0,0,.522,6.814c.126-.764.27-1.662.41-2.539l.011-.064a20.376,20.376,0,0,0,.286-2.379c.015-.359.01-.729.005-1.087a14.541,14.541,0,0,1,.039-1.612,14.638,14.638,0,0,1,.639-2.77c.1-.345.211-.7.3-1.052a18.136,18.136,0,0,0-.534-10.9m-1.01,23.531a.289.289,0,0,1-.243-.133,9.356,9.356,0,0,1-.976-8,19.057,19.057,0,0,1,.771-1.836,8.792,8.792,0,0,0,1.072-3.483,9.172,9.172,0,0,0-.662-3.026,7.967,7.967,0,0,1-.632-3.761,8.768,8.768,0,0,1,.6-1.9,4.238,4.238,0,0,0,.484-2.805.288.288,0,0,1,.536-.209,18.686,18.686,0,0,1,1.149,12.666c-.1.359-.2.72-.309,1.069a14.091,14.091,0,0,0-.618,2.661,14,14,0,0,0-.036,1.547c.005.366.009.744-.006,1.119a20.657,20.657,0,0,1-.293,2.446l-.01.065c-.194,1.205-.394,2.452-.545,3.337a.289.289,0,0,1-.227.234.276.276,0,0,1-.057.006" fill="#b78016"/>
    <path id="Tracé_550" data-name="Tracé 550" d="M5.648,36.658l-.922,2.076a7.581,7.581,0,0,0-.941,3.81A7.334,7.334,0,0,0,4.2,44.055c.1.288.2.587.288.89a13.933,13.933,0,0,1,.377,3.033c.032.628.064,1.278.153,1.9a16.723,16.723,0,0,0,2.236,5.814A41.315,41.315,0,0,1,5.937,43.059c.015-.3.034-.6.052-.906a14.841,14.841,0,0,0-.341-5.495M8.194,58.124a.288.288,0,0,1-.246-.138c-1.445-2.365-3.083-5.046-3.5-8.024-.091-.651-.125-1.314-.157-1.955A13.335,13.335,0,0,0,3.93,45.1c-.079-.285-.179-.573-.277-.853a7.864,7.864,0,0,1-.44-1.63A8.017,8.017,0,0,1,4.2,38.5l1.2-2.708a.289.289,0,0,1,.263-.171h0a.287.287,0,0,1,.263.17c.9,2,.765,4.235.635,6.4-.018.3-.036.6-.051.9A40.363,40.363,0,0,0,8.467,57.744a.289.289,0,0,1-.273.38" fill="#b78016"/>
    <path id="Tracé_551" data-name="Tracé 551" d="M19.483,51.576a27.036,27.036,0,0,0-2.676,1.488,16.655,16.655,0,0,1-4.54,2.159l-.256.061a3.1,3.1,0,0,0-1.12.408,3.3,3.3,0,0,0-.771.945,7.476,7.476,0,0,1-.7.967,11.7,11.7,0,0,0,7.029-3.058c.4-.369.79-.783,1.17-1.184a17.544,17.544,0,0,1,1.866-1.786M8.654,58.211a.289.289,0,0,1-.175-.518,4.917,4.917,0,0,0,1.156-1.368,3.744,3.744,0,0,1,.921-1.1,3.577,3.577,0,0,1,1.325-.5c.083-.019.166-.038.248-.059a15.956,15.956,0,0,0,4.379-2.092,22.411,22.411,0,0,1,3.348-1.781,3.8,3.8,0,0,1,2-.325.288.288,0,0,1,.008.567c-1.541.309-2.654,1.484-3.833,2.727-.385.407-.784.828-1.2,1.21a12.26,12.26,0,0,1-8.183,3.242Z" fill="#b78016"/>
    <path id="Tracé_552" data-name="Tracé 552" d="M22,51.1a2.117,2.117,0,0,0-.759.171,10.878,10.878,0,0,0-3.7,3l-.061.065a10.671,10.671,0,0,0,3.079-1l.122-.063a3.384,3.384,0,0,1,1.013-.389,2.583,2.583,0,0,1,1.45.249A4.611,4.611,0,0,1,24.6,54.159a6.108,6.108,0,0,0-1.2-2.282,2.061,2.061,0,0,0-1.34-.773L22,51.1m3.26,4.873a.29.29,0,0,1-.267-.178,4.047,4.047,0,0,0-2.08-2.136,2.024,2.024,0,0,0-1.124-.207,2.919,2.919,0,0,0-.84.333l-.125.064a11.231,11.231,0,0,1-4.08,1.162.288.288,0,0,1-.232-.487q.317-.332.614-.647a11.417,11.417,0,0,1,3.907-3.144,2.66,2.66,0,0,1,1.049-.208,2.61,2.61,0,0,1,1.745.966,8.47,8.47,0,0,1,1.716,4.14.288.288,0,0,1-.2.33.291.291,0,0,1-.082.012" fill="#b78016"/>
    <path id="Tracé_553" data-name="Tracé 553" d="M.6,49.5a5.963,5.963,0,0,0,.769,3.013,8.216,8.216,0,0,1,.871,2.9,7.6,7.6,0,0,1-.03.872A5.329,5.329,0,0,0,2.2,57.346a5.129,5.129,0,0,0,.789,1.867c1.03,1.744,2.12,3.474,3.251,5.161a28.727,28.727,0,0,0-1.537-5.5c-.155-.368-.327-.739-.494-1.1-.251-.539-.511-1.1-.722-1.669-.248-.67-.433-1.366-.611-2.039-.156-.588-.316-1.2-.518-1.775A6.16,6.16,0,0,0,.6,49.5M6.8,66a.29.29,0,0,1-.238-.125c-1.424-2.064-2.794-4.207-4.07-6.369a5.591,5.591,0,0,1-.865-2.084,5.741,5.741,0,0,1,0-1.18,7.165,7.165,0,0,0,.028-.808,7.779,7.779,0,0,0-.822-2.691,5.574,5.574,0,0,1-.708-3.824.288.288,0,0,1,.176-.189.285.285,0,0,1,.257.029A6.28,6.28,0,0,1,2.9,52.107c.208.6.372,1.218.531,1.816.174.66.355,1.342.594,1.987.2.55.457,1.1.7,1.625.169.364.344.74.5,1.118a31.615,31.615,0,0,1,1.685,6.183q.083.418.163.818a.288.288,0,0,1-.169.323A.282.282,0,0,1,6.8,66" fill="#b78016"/>
    <path id="Tracé_554" data-name="Tracé 554" d="M12.736,60.044l-.676.359a8.831,8.831,0,0,0-2.571,1.779,8.409,8.409,0,0,0-1.4,2.659c-.011.027-.021.055-.031.083.2-.1.407-.2.608-.289a7.475,7.475,0,0,0,2.093-1.26,7.486,7.486,0,0,0,1.434-2.256c.173-.358.349-.722.547-1.075m-5.249,5.8a.288.288,0,0,1-.261-.41c.1-.218.2-.486.319-.8A8.869,8.869,0,0,1,9.057,61.8a9.394,9.394,0,0,1,2.733-1.908l1.689-.9a.288.288,0,0,1,.358.438,9.461,9.461,0,0,0-1.129,1.935,8.019,8.019,0,0,1-1.554,2.423,8.052,8.052,0,0,1-2.248,1.366,13.883,13.883,0,0,0-1.271.644.283.283,0,0,1-.148.041" fill="#b78016"/>
    <path id="Tracé_555" data-name="Tracé 555" d="M17.636,57.38a9.3,9.3,0,0,0-1.594.481c-.9.372-1.783.982-4.006,4.773a15.238,15.238,0,0,0,3.289-2.612c.267-.3.531-.631.786-.951a11.907,11.907,0,0,1,1.525-1.691m-6.421,6.389a.284.284,0,0,1-.2-.081.287.287,0,0,1-.051-.349c2.746-4.85,3.745-5.55,4.857-6.011a14.681,14.681,0,0,1,3.422-.814.288.288,0,0,1,.117.564,5.8,5.8,0,0,0-2.8,2.351c-.26.328-.528.666-.807.978a19,19,0,0,1-4.389,3.32.294.294,0,0,1-.151.042" fill="#b78016"/>
    <path id="Tracé_556" data-name="Tracé 556" d="M20.137,59.038A13.079,13.079,0,0,1,17.8,61.209c-.475.376-.966.765-1.4,1.17a20.95,20.95,0,0,0-2.418,2.882A16.585,16.585,0,0,1,10.7,68.878c-.248.183-.508.354-.76.52a7.01,7.01,0,0,0-1.5,1.2,5.283,5.283,0,0,0-1.085,3,15.987,15.987,0,0,1,4.038-3.864c.358-.273.729-.555,1.081-.833a27.661,27.661,0,0,0,6.412-7.222,11.343,11.343,0,0,0,1.256-2.637M6.969,75.4a.256.256,0,0,1-.047,0,.287.287,0,0,1-.241-.294C6.742,73.26,6.889,71.5,8,70.216a7.545,7.545,0,0,1,1.624-1.3c.245-.161.5-.328.734-.5a15.937,15.937,0,0,0,3.163-3.5,21.318,21.318,0,0,1,2.488-2.961c.453-.421.953-.817,1.438-1.2,1.285-1.016,2.5-1.976,2.952-3.413a.289.289,0,0,1,.564.086,8.956,8.956,0,0,1-1.59,4.547,28.222,28.222,0,0,1-6.545,7.372c-.356.282-.729.565-1.09.84C9.831,71.638,7.86,73.137,7.245,75.2a.288.288,0,0,1-.276.206" fill="#b78016"/>
    <path id="Tracé_557" data-name="Tracé 557" d="M2.729,65.695a12.57,12.57,0,0,1-.05,1.736,5.294,5.294,0,0,0,.349,3.082,5.392,5.392,0,0,0,1.4,1.428c.164.13.327.261.486.4a10,10,0,0,1,1.2,1.21,21.271,21.271,0,0,0-1.347-3.64l-.848-1.924a13.4,13.4,0,0,0-1.194-2.288m3.893,9.5a.29.29,0,0,1-.28-.219,6.267,6.267,0,0,0-1.8-2.2c-.154-.131-.312-.258-.472-.385A5.886,5.886,0,0,1,2.528,70.8,5.8,5.8,0,0,1,2.1,67.388a7.239,7.239,0,0,0-.111-2.6.289.289,0,0,1,.476-.292A9.854,9.854,0,0,1,4.45,67.751L5.3,69.675A16.088,16.088,0,0,1,6.91,74.887a.288.288,0,0,1-.242.305.245.245,0,0,1-.046,0" fill="#b78016"/>
    <path id="Tracé_558" data-name="Tracé 558" d="M21.025,67.22l-3.633,1.114a4.215,4.215,0,0,0-1.253.536,4.194,4.194,0,0,0-.944,1.116l-4.684,7.032a9.438,9.438,0,0,0-1.156,2.1A6.906,6.906,0,0,0,9.2,82.368,13.311,13.311,0,0,1,11.046,76.8c1.443-2.208,3.785-3.64,5.851-4.9.927-.567,1.532-.567,1.919-.389ZM9.286,84.553a.289.289,0,0,1-.281-.225c-.363-1.6-.814-3.593-.195-5.4A9.838,9.838,0,0,1,10.031,76.7l4.684-7.031A4.719,4.719,0,0,1,15.8,68.4a4.7,4.7,0,0,1,1.423-.62l4.287-1.315a.288.288,0,0,1,.341.407L19.18,72.062a.288.288,0,0,1-.458.074c-.37-.363-1.114,0-1.524.255-2.014,1.232-4.3,2.627-5.67,4.726-1.411,2.159-1.749,4.834-1.955,7.173a.287.287,0,0,1-.267.262h-.02" fill="#b78016"/>
    <path id="Tracé_559" data-name="Tracé 559" d="M20.432,79.373a.289.289,0,0,1-.27-.188,8.149,8.149,0,0,1-.51-3c0-.161.01-.323.018-.485a4.912,4.912,0,0,0-.942-3.437.288.288,0,0,1,.506-.277,5.457,5.457,0,0,1,1.012,3.742c-.007.156-.015.312-.017.468s0,.322.007.483a18.469,18.469,0,0,1,.827-2.524,15.043,15.043,0,0,0,.925-3.051,6.948,6.948,0,0,0-.714-4.22.288.288,0,1,1,.51-.268,7.509,7.509,0,0,1,.774,4.573,15.431,15.431,0,0,1-.956,3.171,8.668,8.668,0,0,0-.887,4.668.288.288,0,0,1-.2.332.3.3,0,0,1-.078.01" fill="#b78016"/>
  </g>
</svg>
