<svg xmlns="http://www.w3.org/2000/svg" xmlns:xlink="http://www.w3.org/1999/xlink" width="95.125" height="91.25" viewBox="0 0 95.125 91.25">
  <defs>
    <clipPath id="clip-path">
      <rect id="Rectangle_107" data-name="Rectangle 107" width="95.125" height="91.25" transform="translate(0 -0.001)" fill="none"/>
    </clipPath>
  </defs>
  <g id="Groupe_511" data-name="Groupe 511" transform="translate(0 0)">
    <g id="Groupe_509" data-name="Groupe 509" clip-path="url(#clip-path)">
      <path id="Tracé_574" data-name="Tracé 574" d="M65.864,0h-.053a29.493,29.493,0,0,0-17.648,5.9l-.6.454-.6-.454A29.1,29.1,0,0,0,29.376,0a29.792,29.792,0,0,0-4.138.29A29.123,29.123,0,0,0,5.905,11.675,29.489,29.489,0,0,0,0,29.375C0,48.834,32.632,80.192,42.633,89.339a7.291,7.291,0,0,0,4.923,1.91h.014a7.294,7.294,0,0,0,4.936-1.918c10-9.148,42.619-40.51,42.619-59.955A29.348,29.348,0,0,0,65.864,0M50.571,86.214l0,0a4.429,4.429,0,0,1-6.016,0C29.648,72.331,4.425,44.74,4.425,29.366a24.855,24.855,0,0,1,24.753-24.9h.076a24.753,24.753,0,0,1,16.823,6.569,2.213,2.213,0,0,0,2.98,0A24.83,24.83,0,0,1,90.711,29.372c-.006,15.383-25.235,42.968-40.14,56.842" fill="#fff"/>
    </g>
  </g>
</svg>
