<?xml version="1.0" encoding="utf-8"?>
<!-- Generator: Adobe Illustrator 27.0.1, SVG Export Plug-In . SVG Version: 6.00 Build 0)  -->
<svg version="1.1" id="Calque_1" xmlns="http://www.w3.org/2000/svg" xmlns:xlink="http://www.w3.org/1999/xlink" x="0px" y="0px"
	 viewBox="0 0 33 33" style="enable-background:new 0 0 33 33;" xml:space="preserve">
<style type="text/css">
	.st0{clip-path:url(#SVGID_00000025435869230833844220000010624758832337132718_);fill:#FFFFFF;}
	.st1{fill:#FFFFFF;}
	.st2{fill:#FFFDFA;}
</style>
<g>
	<g>
		<defs>
			<circle id="SVGID_1_" cx="16.5" cy="16.5" r="15.1"/>
		</defs>
		<clipPath id="SVGID_00000010302498897361658410000002128593769169467569_">
			<use xlink:href="#SVGID_1_"  style="overflow:visible;"/>
		</clipPath>
		<path style="clip-path:url(#SVGID_00000010302498897361658410000002128593769169467569_);fill:#FFFFFF;" d="M25.8,30.6
			C25.8,30.6,25.7,30.6,25.8,30.6c-0.7-1.6-0.9-2.8-0.7-4c0.1-1.1,0.6-2.1,1.1-3c0.1-0.2,0.2-0.3,0.2-0.5c0.7-1.5,1.4-3.4,1-5.2
			c-0.1-0.7-0.4-1.4-0.7-2c-0.3-0.7-0.6-1.4-0.8-2.2c-0.2-0.9-0.1-1.7,0-2.6c0-0.3,0.1-0.6,0.1-0.8c0.1-1.2,0-2.4-0.1-3.6
			c0,0,0-0.1,0.1-0.1c0,0,0.1,0,0.1,0.1c0.1,1.2,0.2,2.4,0.1,3.6c0,0.3,0,0.6-0.1,0.9c-0.1,0.8-0.2,1.7,0,2.6
			c0.1,0.7,0.5,1.4,0.8,2.1c0.3,0.6,0.6,1.3,0.8,2c0.4,1.9-0.3,3.8-1,5.3c-0.1,0.2-0.1,0.3-0.2,0.5c-0.4,1-0.9,1.9-1.1,3
			c-0.1,1.1,0,2.3,0.6,3.8C25.9,30.5,25.9,30.6,25.8,30.6C25.8,30.6,25.8,30.6,25.8,30.6z"/>
		<path style="clip-path:url(#SVGID_00000010302498897361658410000002128593769169467569_);fill:#FFFFFF;" d="M26,11
			C26,11,26,11,26,11C26,11,26,10.9,26,11c-0.1-0.1-0.1-0.1-0.1-0.2c-0.1-0.2-0.2-0.3-0.2-0.5c0-0.2,0-0.3-0.1-0.5l0-0.9
			c0-1.2-0.1-2.5,0.2-3.7c0,0,0-0.1,0.1-0.1c0,0,0.1,0,0.1,0.1c0.1,0.4,0.2,0.9,0.4,1.3c0,0,0,0.1,0,0.1c0.1,0.1,0.1,0.3,0.2,0.5
			c0.1,0.3,0.1,0.6,0.1,0.8C26.6,8.8,26.5,9.9,26,11C26.1,10.9,26,11,26,11z M25.9,5.5c-0.2,1.1-0.2,2.3-0.2,3.4l0,0.9
			c0,0.2,0,0.3,0,0.5c0,0.2,0.1,0.3,0.2,0.5c0,0,0,0,0,0c0.4-0.9,0.4-2,0.4-2.9c0-0.3,0-0.5,0-0.8c0-0.1-0.1-0.3-0.2-0.4
			c0,0,0-0.1,0-0.1C26.1,6.2,26,5.8,25.9,5.5z"/>
		<path style="clip-path:url(#SVGID_00000010302498897361658410000002128593769169467569_);fill:#FFFFFF;" d="M26,13.3
			C26,13.3,26,13.3,26,13.3C25.9,13.3,25.9,13.3,26,13.3c-0.1-0.6,0.1-1.1,0.3-1.6c0.1-0.3,0.3-0.6,0.4-1c0-0.2,0.1-0.4,0.1-0.5
			c0-0.3,0.1-0.6,0.2-0.8C26.9,9.3,27,9.2,27,9c0.1-0.2,0.2-0.3,0.2-0.5c0-0.2,0-0.5,0-0.7c0-0.3-0.1-0.7,0.1-1c0,0,0,0,0.1,0
			c0,0,0.1,0,0.1,0.1c0.2,0.8,0.4,1.5,0.2,2.2c0,0.1-0.1,0.2-0.1,0.3c0,0.1-0.1,0.3-0.1,0.4c0,0.1,0,0.3,0,0.4c0,0.2,0,0.4-0.1,0.6
			c-0.1,0.2-0.1,0.3-0.2,0.5c-0.1,0.1-0.2,0.3-0.2,0.4c0,0.1-0.1,0.2-0.1,0.3c0,0.2-0.1,0.4-0.2,0.5c-0.1,0.1-0.2,0.2-0.3,0.3
			C26.2,13,26.1,13.1,26,13.3C26,13.3,26,13.3,26,13.3z M27.4,7.1c-0.1,0.2,0,0.4,0,0.7c0,0.2,0,0.5,0,0.7c0,0.2-0.1,0.4-0.2,0.6
			c-0.1,0.1-0.1,0.2-0.2,0.3c-0.1,0.2-0.1,0.5-0.2,0.8c0,0.2,0,0.4-0.1,0.5c-0.1,0.3-0.2,0.7-0.4,1c-0.2,0.4-0.3,0.8-0.4,1.2
			c0.1-0.1,0.1-0.1,0.2-0.2c0.1-0.1,0.2-0.2,0.3-0.3c0.1-0.1,0.1-0.3,0.2-0.5c0-0.1,0-0.2,0.1-0.3c0.1-0.2,0.1-0.3,0.2-0.5
			c0.1-0.2,0.2-0.3,0.2-0.4c0.1-0.2,0.1-0.4,0.1-0.5c0-0.1,0-0.3,0-0.4c0-0.1,0.1-0.3,0.1-0.4c0-0.1,0.1-0.2,0.1-0.3
			C27.7,8.4,27.6,7.8,27.4,7.1z"/>
		<path style="clip-path:url(#SVGID_00000010302498897361658410000002128593769169467569_);fill:#FFFFFF;" d="M25.8,13
			C25.7,13,25.7,13,25.8,13c-0.5-0.4-1-0.9-1.2-1.6c0-0.1,0-0.2,0-0.3c0-0.1,0-0.3-0.1-0.4c0-0.2-0.1-0.3-0.2-0.5
			c-0.1-0.1-0.1-0.3-0.2-0.4c-0.1-0.4-0.1-0.9,0-1.3c0-0.2,0.1-0.5,0.1-0.7c0-0.2,0-0.5-0.1-0.7c0-0.4-0.1-0.7,0-1.1
			c0,0,0-0.1,0.1-0.1c0,0,0.1,0,0.1,0c0.3,0.6,0.5,1.3,0.5,1.9c0,0.1,0,0.2,0,0.3c0,0.3,0,0.6,0,0.8c0,0.2,0.1,0.3,0.2,0.5
			c0,0.1,0.1,0.1,0.1,0.2c0.1,0.3,0.2,0.7,0.2,1l0,0c0,0.1,0,0.2,0.1,0.3c0,0.1,0.1,0.1,0.1,0.2c0,0,0.1,0.1,0.1,0.1
			c0.1,0.2,0.2,0.5,0.2,0.8c0,0.3,0.1,0.5,0.2,0.7C25.8,12.9,25.8,13,25.8,13C25.8,13,25.8,13,25.8,13z M24.2,6.3
			c0,0.3,0,0.5,0.1,0.8c0,0.2,0.1,0.5,0.1,0.7c0,0.2,0,0.5-0.1,0.7c-0.1,0.4-0.1,0.8,0,1.2c0,0.1,0.1,0.3,0.2,0.4
			c0.1,0.2,0.2,0.3,0.2,0.5c0,0.1,0,0.3,0.1,0.4c0,0.1,0,0.2,0,0.3c0.1,0.5,0.4,0.9,0.8,1.3c0-0.1-0.1-0.3-0.1-0.4
			c0-0.2-0.1-0.5-0.2-0.7c0,0-0.1-0.1-0.1-0.1c-0.1-0.1-0.1-0.2-0.1-0.2c0-0.1-0.1-0.2-0.1-0.3l0,0c0-0.3-0.1-0.7-0.2-1
			c0-0.1-0.1-0.1-0.1-0.2c-0.1-0.2-0.1-0.3-0.2-0.5c-0.1-0.3-0.1-0.6,0-0.9c0-0.1,0-0.2,0-0.3C24.5,7.3,24.4,6.8,24.2,6.3z"/>
		<path style="clip-path:url(#SVGID_00000010302498897361658410000002128593769169467569_);fill:#FFFFFF;" d="M26.4,15.1
			C26.4,15.1,26.4,15.1,26.4,15.1c-0.4-0.5-0.1-1.1,0-1.3c0.1-0.1,0.2-0.3,0.2-0.4c0.2-0.2,0.3-0.5,0.4-0.7c0-0.1,0.1-0.2,0.1-0.3
			c0-0.1,0-0.3,0.1-0.4c0.1-0.2,0.2-0.4,0.3-0.6c0-0.1,0.1-0.2,0.1-0.3c0.3-0.5,0.4-1.2,0.5-1.8c0.1-0.3,0.1-0.7,0.1-1
			c0,0,0-0.1,0.1-0.1c0,0,0.1,0,0.1,0.1c0.3,1.1,0,2.2-0.2,3.2c-0.1,0.5-0.3,1.1-0.5,1.6c-0.2,0.3-0.4,0.6-0.6,0.8
			C26.9,14.3,26.6,14.7,26.4,15.1C26.5,15.1,26.5,15.1,26.4,15.1C26.4,15.1,26.4,15.1,26.4,15.1z M28.4,8.9c0,0.2-0.1,0.3-0.1,0.5
			c-0.1,0.6-0.2,1.2-0.5,1.8c0,0.1-0.1,0.2-0.1,0.3c-0.1,0.2-0.2,0.4-0.3,0.5c0,0.1-0.1,0.2-0.1,0.4c0,0.1,0,0.2-0.1,0.4
			c-0.1,0.3-0.2,0.5-0.4,0.8c-0.1,0.1-0.2,0.2-0.2,0.4c-0.1,0.2-0.3,0.6-0.2,1c0.1-0.3,0.4-0.7,0.6-1c0.2-0.3,0.4-0.5,0.5-0.8
			c0.3-0.5,0.4-1,0.5-1.6C28.3,10.7,28.5,9.8,28.4,8.9z"/>
		<path style="clip-path:url(#SVGID_00000010302498897361658410000002128593769169467569_);fill:#FFFFFF;" d="M26.5,15.5
			C26.5,15.5,26.5,15.5,26.5,15.5c-0.7-0.4-1.3-0.8-1.9-1.3c-0.2-0.2-0.5-0.4-0.6-0.7c-0.1-0.2-0.1-0.5-0.2-0.7
			c0-0.2-0.1-0.4-0.1-0.6c-0.1-0.2-0.2-0.4-0.3-0.6c-0.2-0.3-0.3-0.5-0.4-0.8c0,0,0-0.1,0-0.1c0-0.1,0-0.3-0.1-0.4c0,0,0,0,0,0
			c0,0,0-0.1,0-0.1c0,0,0.1,0,0.1,0c0,0,0,0,0,0c0.6,0.4,1,1,1.3,1.6c0.1,0.1,0.1,0.3,0.2,0.5c0.1,0.3,0.2,0.5,0.3,0.8
			c0.1,0.2,0.3,0.4,0.5,0.6l0.6,0.7c0.3,0.4,0.7,0.7,0.9,1.1C26.6,15.4,26.6,15.4,26.5,15.5C26.5,15.5,26.5,15.5,26.5,15.5z
			 M23,10.5c0,0,0,0.1,0,0.1c0,0,0,0.1,0,0.1c0.1,0.3,0.2,0.5,0.4,0.8c0.1,0.2,0.3,0.4,0.3,0.6c0.1,0.2,0.1,0.4,0.1,0.6
			c0,0.2,0.1,0.5,0.2,0.7c0.1,0.3,0.4,0.5,0.6,0.7c0.5,0.4,1,0.8,1.5,1.1c-0.2-0.2-0.4-0.5-0.7-0.8L25,13.7
			c-0.2-0.2-0.4-0.4-0.5-0.6c-0.1-0.2-0.2-0.5-0.3-0.8c0-0.1-0.1-0.3-0.2-0.4C23.8,11.3,23.5,10.9,23,10.5z"/>
		<path style="clip-path:url(#SVGID_00000010302498897361658410000002128593769169467569_);fill:#FFFFFF;" d="M27,16.4
			C27,16.4,26.9,16.4,27,16.4c-0.2-0.4-0.1-0.8,0.1-1.1c0.1-0.2,0.2-0.4,0.4-0.5c0.1-0.1,0.2-0.2,0.3-0.4c0.2-0.3,0.3-0.7,0.4-1
			c0,0,0-0.1,0-0.1c0.1-0.2,0.1-0.5,0.2-0.7c0-0.1,0.1-0.2,0.1-0.3c0-0.1,0.1-0.2,0.1-0.3c0.3-0.5,0.2-1.2,0.2-1.8
			c0,0,0-0.1,0.1-0.1c0,0,0.1,0,0.1,0c0.4,0.8,0.5,1.8,0.2,2.8c-0.2,0.8-0.7,1.6-1.4,2.4l0,0C27.4,15.7,27.1,16.1,27,16.4
			C27.1,16.4,27,16.4,27,16.4C27,16.4,27,16.4,27,16.4z M28.9,10.7c0,0.5,0,1-0.2,1.4c0,0.1-0.1,0.2-0.1,0.3c0,0.1-0.1,0.2-0.1,0.3
			c-0.1,0.2-0.1,0.4-0.2,0.7c0,0,0,0.1,0,0.1c-0.1,0.3-0.2,0.7-0.4,1c-0.1,0.1-0.2,0.3-0.3,0.4c-0.1,0.2-0.3,0.3-0.4,0.5
			C27.1,15.5,27,15.8,27,16c0.1-0.2,0.3-0.4,0.5-0.6l0,0c0.7-0.8,1.2-1.5,1.4-2.3C29.2,12.2,29.2,11.4,28.9,10.7z"/>
		<path style="clip-path:url(#SVGID_00000010302498897361658410000002128593769169467569_);fill:#FFFFFF;" d="M27.4,17.6
			C27.4,17.6,27.4,17.5,27.4,17.6c-0.1-0.5,0-1,0.4-1.5c0.1-0.2,0.3-0.4,0.5-0.6c0.2-0.2,0.3-0.4,0.4-0.6c0.3-0.4,0.5-1,0.6-1.5
			c0,0,0,0,0-0.1c0-0.1,0-0.2,0.1-0.3c0-0.1,0.1-0.1,0.1-0.2c0,0,0.1-0.1,0.1-0.1c0.2-0.3,0.1-0.6,0.1-0.9c0-0.3,0-0.6,0.1-0.9
			c0,0,0,0,0.1,0c0,0,0.1,0,0.1,0c0.3,0.7,0.3,1.5,0.1,2.4c-0.2,0.8-0.5,1.5-0.8,2.3c-0.2,0.4-0.4,0.8-0.7,1.1
			c-0.1,0.1-0.2,0.2-0.4,0.3C28.1,16.9,28,17,27.9,17C27.7,17.2,27.5,17.4,27.4,17.6C27.5,17.5,27.5,17.6,27.4,17.6z M29.9,11.2
			c0,0.2,0,0.4,0,0.6c0,0.3,0,0.7-0.1,1c0,0-0.1,0.1-0.1,0.1c0,0.1-0.1,0.1-0.1,0.2c0,0.1-0.1,0.2-0.1,0.3c0,0,0,0,0,0.1
			c-0.1,0.6-0.4,1.1-0.7,1.5c-0.1,0.2-0.3,0.4-0.5,0.6c-0.2,0.2-0.3,0.4-0.5,0.6c-0.3,0.4-0.4,0.7-0.4,1c0.1-0.1,0.2-0.2,0.3-0.3
			c0.1-0.1,0.2-0.1,0.3-0.2c0.1-0.1,0.2-0.2,0.4-0.2c0.3-0.3,0.5-0.6,0.7-1c0.3-0.7,0.7-1.4,0.8-2.2C30.1,12.5,30.1,11.8,29.9,11.2z
			"/>
		<path style="clip-path:url(#SVGID_00000010302498897361658410000002128593769169467569_);fill:#FFFFFF;" d="M27.7,19
			C27.7,19,27.7,19,27.7,19C27.6,19,27.6,18.9,27.7,19c-0.1-0.4-0.1-0.8,0.2-1.1c0.1-0.1,0.1-0.1,0.2-0.2c0,0,0.1-0.1,0.1-0.1
			c0.2-0.1,0.3-0.4,0.4-0.6c0.1-0.2,0.2-0.4,0.4-0.5c0.1-0.1,0.1-0.1,0.2-0.2c0.1-0.1,0.1-0.1,0.2-0.2c0.2-0.2,0.3-0.6,0.4-0.9
			l0.6-2c0,0,0-0.1,0.1-0.1c0,0,0.1,0,0.1,0.1c0.1,0.8-0.1,1.6-0.3,2.3c-0.2,0.7-0.5,1.6-1.1,2.2c-0.2,0.2-0.5,0.4-0.7,0.6
			C28.2,18.6,27.9,18.7,27.7,19C27.7,19,27.7,19,27.7,19z M30.5,13.7L30,15.3c-0.1,0.3-0.2,0.7-0.5,1c-0.1,0.1-0.1,0.1-0.2,0.2
			c-0.1,0.1-0.1,0.1-0.2,0.2c-0.1,0.1-0.2,0.3-0.3,0.5c-0.1,0.2-0.3,0.5-0.5,0.6c0,0-0.1,0.1-0.1,0.1C28.1,17.9,28,18,28,18
			c-0.2,0.2-0.2,0.4-0.2,0.7c0.2-0.2,0.4-0.3,0.6-0.5c0.2-0.2,0.5-0.4,0.7-0.6c0.5-0.6,0.8-1.4,1-2.1C30.3,14.9,30.5,14.3,30.5,13.7
			z"/>
		<path style="clip-path:url(#SVGID_00000010302498897361658410000002128593769169467569_);fill:#FFFFFF;" d="M26.4,16.4
			c-0.4,0-0.7-0.1-1-0.4c-0.1-0.1-0.3-0.3-0.4-0.4l-0.6-0.8c0,0,0-0.1,0-0.1c0,0,0,0,0.1,0c0.2,0,0.4,0.2,0.6,0.3
			c0.1,0.1,0.2,0.2,0.4,0.3c0,0,0.1,0,0.1,0c0.1,0,0.2,0.1,0.2,0.1c0.1,0.1,0.2,0.2,0.3,0.3c0.1,0.1,0.2,0.2,0.3,0.3
			c0.1,0,0.2,0.1,0.3,0.1c0.1,0,0.2,0,0.3,0.1c0,0,0,0,0,0.1c0,0,0,0.1-0.1,0.1l0,0C26.8,16.4,26.6,16.4,26.4,16.4
			C26.4,16.4,26.4,16.4,26.4,16.4z M24.7,15l0.4,0.5c0.1,0.1,0.2,0.3,0.4,0.4c0.3,0.2,0.6,0.3,0.9,0.3c0,0,0,0,0,0
			c-0.1,0-0.1,0-0.2-0.1c-0.1-0.1-0.2-0.2-0.3-0.3c-0.1-0.1-0.1-0.2-0.2-0.3c-0.1,0-0.1-0.1-0.2-0.1c0,0-0.1,0-0.1,0
			c-0.2-0.1-0.3-0.2-0.4-0.3C24.9,15.1,24.8,15.1,24.7,15z"/>
		<path style="clip-path:url(#SVGID_00000010302498897361658410000002128593769169467569_);fill:#FFFFFF;" d="M27.5,20.6
			C27.5,20.6,27.4,20.6,27.5,20.6C27.4,20.6,27.4,20.6,27.5,20.6c-0.1-0.4,0.1-0.7,0.4-0.9c0.1-0.1,0.2-0.1,0.2-0.2
			c0.2-0.1,0.4-0.3,0.5-0.4c0.1-0.2,0.2-0.3,0.3-0.5c0.1-0.1,0.1-0.3,0.2-0.4c0.1-0.2,0.3-0.4,0.5-0.6c0.2-0.2,0.4-0.4,0.6-0.7
			c0.1-0.3,0.2-0.6,0.3-0.9c0,0,0-0.1,0.1-0.1c0,0,0,0,0,0c0,0,0.1,0,0.1,0.1c0.1,0.9,0,1.8-0.5,2.6s-1.1,1.4-2,1.8
			c-0.1,0-0.2,0.1-0.2,0.1C27.8,20.5,27.6,20.6,27.5,20.6C27.5,20.6,27.5,20.6,27.5,20.6z M30.5,16.4c0,0.2-0.1,0.3-0.2,0.5
			c-0.1,0.3-0.4,0.5-0.6,0.7c-0.2,0.2-0.4,0.4-0.5,0.6c-0.1,0.1-0.1,0.2-0.2,0.4c-0.1,0.2-0.2,0.4-0.3,0.5c-0.1,0.2-0.3,0.3-0.5,0.5
			c-0.1,0.1-0.1,0.1-0.2,0.2c-0.2,0.2-0.4,0.4-0.4,0.6c0.1,0,0.2-0.1,0.3-0.1c0.1,0,0.2-0.1,0.2-0.1c0.8-0.3,1.5-1,1.9-1.7
			C30.4,17.9,30.5,17.2,30.5,16.4z"/>
		<path style="clip-path:url(#SVGID_00000010302498897361658410000002128593769169467569_);fill:#FFFFFF;" d="M26.7,22.7
			C26.7,22.7,26.7,22.7,26.7,22.7c-0.1,0-0.1-0.1-0.1-0.1c0.2-0.4,0.6-0.7,0.9-1c0.3-0.2,0.6-0.5,0.8-0.8c0,0,0-0.1,0.1-0.1
			c0.1-0.1,0.1-0.2,0.2-0.3c0.1-0.1,0.2-0.1,0.3-0.2c0,0,0,0,0.1,0c0.5-0.2,0.9-0.6,1.2-1.1c0,0,0-0.1,0.1-0.1
			c0.1-0.2,0.2-0.4,0.4-0.5c0,0,0.1,0,0.1,0c0,0,0,0,0,0.1c-0.2,0.7-0.4,1.5-1,2c-0.2,0.1-0.3,0.2-0.5,0.3c-0.1,0-0.2,0.1-0.2,0.2
			c-0.3,0.2-0.6,0.4-0.8,0.7c0,0-0.1,0.1-0.1,0.1c-0.2,0.3-0.4,0.5-0.8,0.6c-0.1,0-0.2,0-0.3,0c-0.1,0-0.1,0-0.2,0
			C27,22.6,26.8,22.7,26.7,22.7C26.8,22.7,26.8,22.7,26.7,22.7z M30.7,18.7c-0.1,0.1-0.1,0.2-0.2,0.3c0,0,0,0.1-0.1,0.1
			c-0.3,0.5-0.7,0.9-1.3,1.2c0,0,0,0-0.1,0c-0.1,0.1-0.2,0.1-0.3,0.2c-0.1,0.1-0.1,0.2-0.2,0.3c0,0,0,0.1-0.1,0.1
			c-0.2,0.4-0.5,0.6-0.9,0.9c-0.3,0.2-0.5,0.4-0.7,0.7c0,0,0.1,0,0.1,0c0.1,0,0.2,0,0.2,0c0.1,0,0.2,0,0.2,0
			c0.3-0.1,0.5-0.3,0.7-0.6c0,0,0.1-0.1,0.1-0.1c0.2-0.3,0.5-0.5,0.8-0.8c0.1-0.1,0.2-0.1,0.2-0.2c0.2-0.1,0.3-0.2,0.5-0.3
			C30.3,19.9,30.6,19.2,30.7,18.7z"/>
		<path style="clip-path:url(#SVGID_00000010302498897361658410000002128593769169467569_);fill:#FFFFFF;" d="M25.8,24.6
			C25.8,24.6,25.8,24.6,25.8,24.6c-0.1-0.1-0.1-0.1,0-0.1l0.1-0.1c0.4-0.3,0.8-0.5,1.1-0.9c0,0,0-0.1,0.1-0.1
			c0.1-0.1,0.2-0.2,0.3-0.3c0.1-0.1,0.3-0.2,0.4-0.2c0.1,0,0.2-0.1,0.3-0.1c0.3-0.1,0.5-0.4,0.7-0.7c0.1-0.1,0.2-0.2,0.3-0.3
			c0.3-0.4,0.8-0.6,1.2-0.8c0,0,0.1,0,0.1,0c0,0,0,0.1,0,0.1c-0.2,0.2-0.4,0.4-0.6,0.7c0,0,0,0.1-0.1,0.1c-0.1,0.1-0.1,0.3-0.2,0.4
			c-0.1,0.1-0.3,0.2-0.4,0.3c-0.1,0-0.2,0.1-0.2,0.1c-0.2,0.2-0.4,0.4-0.6,0.6c-0.1,0.2-0.2,0.3-0.4,0.5
			C27.3,24.3,26.6,24.4,25.8,24.6C25.8,24.6,25.8,24.6,25.8,24.6z M29.9,21.2c-0.3,0.1-0.6,0.3-0.8,0.6c-0.1,0.1-0.2,0.2-0.3,0.3
			c-0.2,0.3-0.4,0.5-0.7,0.7c-0.1,0-0.2,0.1-0.3,0.1c-0.1,0.1-0.3,0.1-0.4,0.2c-0.1,0.1-0.2,0.2-0.2,0.3c0,0,0,0.1-0.1,0.1
			c-0.3,0.3-0.6,0.6-0.9,0.8c0.6-0.1,1.2-0.3,1.6-0.7c0.1-0.1,0.3-0.3,0.4-0.5c0.2-0.2,0.3-0.5,0.6-0.7c0.1-0.1,0.2-0.1,0.2-0.1
			c0.1-0.1,0.3-0.1,0.4-0.2c0.1-0.1,0.1-0.2,0.2-0.4c0,0,0-0.1,0.1-0.1C29.7,21.5,29.8,21.4,29.9,21.2z"/>
		<path style="clip-path:url(#SVGID_00000010302498897361658410000002128593769169467569_);fill:#FFFFFF;" d="M25.3,27.2
			C25.2,27.2,25.2,27.2,25.3,27.2c-0.1-0.5,0-0.9,0.2-1.2c0.3-0.3,0.6-0.5,1-0.7c0.2-0.1,0.5-0.2,0.7-0.4c0.1-0.1,0.2-0.1,0.3-0.2
			c0.1-0.1,0.2-0.2,0.3-0.3c0.1-0.1,0.2-0.2,0.3-0.2c0.2-0.1,0.4-0.2,0.5-0.4c0.1-0.1,0.2-0.3,0.2-0.4c0-0.1,0.1-0.2,0.1-0.2
			c0.2-0.3,0.4-0.5,0.6-0.5c0,0,0.1,0,0.1,0s0,0.1,0,0.1c-0.2,0.2-0.3,0.5-0.5,0.8c-0.1,0.2-0.2,0.4-0.3,0.6
			c-0.5,0.7-1.2,1.2-1.9,1.7l-1.1,0.7C25.6,26.7,25.4,26.9,25.3,27.2C25.3,27.2,25.3,27.2,25.3,27.2C25.3,27.2,25.3,27.2,25.3,27.2z
			 M29.4,22.9c-0.1,0.1-0.2,0.2-0.3,0.3c0,0.1-0.1,0.2-0.1,0.2c-0.1,0.2-0.1,0.3-0.3,0.4c-0.2,0.2-0.4,0.3-0.6,0.4
			c-0.1,0.1-0.2,0.1-0.3,0.2c-0.1,0.1-0.2,0.2-0.3,0.2c-0.1,0.1-0.2,0.2-0.3,0.2c-0.2,0.2-0.5,0.3-0.7,0.4c-0.4,0.2-0.7,0.3-0.9,0.6
			c-0.2,0.2-0.3,0.5-0.3,0.7c0.1-0.1,0.3-0.2,0.4-0.3l1.1-0.7c0.7-0.4,1.4-0.9,1.9-1.6c0.1-0.2,0.2-0.4,0.3-0.6
			C29.2,23.3,29.3,23.1,29.4,22.9z"/>
		<path style="clip-path:url(#SVGID_00000010302498897361658410000002128593769169467569_);fill:#FFFFFF;" d="M26.7,22.6
			C26.7,22.6,26.7,22.6,26.7,22.6c-0.4-0.4-0.8-0.9-0.9-1.5c0-0.2,0-0.4,0-0.6c0-0.2,0-0.3,0-0.5c-0.1-0.5-0.4-1-0.6-1.5l-0.1-0.1
			c0-0.1-0.1-0.2-0.1-0.4c0-0.1,0.1-0.1,0.1-0.1c0,0,0,0,0.1-0.1c0-0.1,0-0.1,0-0.2l-0.1-0.5c0,0,0-0.1,0-0.1c0,0,0.1,0,0.1,0
			c0.2,0.4,0.5,0.9,0.6,1.3c0,0.1,0.1,0.2,0.1,0.3c0,0.2,0.1,0.4,0.2,0.5c0,0.1,0.1,0.2,0.2,0.3c0.1,0.1,0.1,0.3,0.2,0.4
			c0.1,0.2,0.1,0.5,0.1,0.7C26.6,21.4,26.7,22,26.7,22.6C26.8,22.6,26.8,22.6,26.7,22.6C26.7,22.6,26.7,22.6,26.7,22.6z M25.3,17.7
			c0,0.1,0,0.2,0,0.3c0,0,0,0.1-0.1,0.1c0,0,0,0.1-0.1,0.1c0,0.1,0,0.2,0.1,0.2l0.1,0.1c0.3,0.5,0.6,1,0.7,1.6c0,0.2,0,0.4,0,0.5
			c0,0.2,0,0.4,0,0.6c0.1,0.4,0.3,0.8,0.6,1.1c-0.1-0.5-0.1-0.9-0.2-1.4c0-0.2,0-0.5-0.1-0.7c0-0.1-0.1-0.3-0.2-0.4
			c-0.1-0.1-0.1-0.2-0.2-0.3c-0.1-0.2-0.1-0.4-0.2-0.6c0-0.1,0-0.2-0.1-0.3C25.6,18.2,25.5,17.9,25.3,17.7z"/>
		<path style="clip-path:url(#SVGID_00000010302498897361658410000002128593769169467569_);fill:#FFFFFF;" d="M25.7,24.6
			C25.7,24.6,25.7,24.6,25.7,24.6c-0.7-0.5-1.1-1.3-1-2.1c0-0.1,0-0.2,0.1-0.3c0-0.2,0.1-0.4,0.1-0.6c0-0.2-0.1-0.4-0.2-0.6
			c0-0.1-0.1-0.2-0.1-0.3c-0.2-0.5-0.2-1.2,0-1.7c0,0,0-0.1,0.1,0c0,0,0.1,0,0.1,0.1c0,0.3,0.2,0.6,0.3,0.9c0.1,0.2,0.2,0.4,0.3,0.6
			c0.1,0.4,0.1,0.8,0.1,1.2c0,0.1,0,0.2,0,0.2C25.4,22.8,25.6,23.7,25.7,24.6C25.8,24.5,25.8,24.5,25.7,24.6
			C25.8,24.6,25.8,24.6,25.7,24.6z M24.7,19.3c-0.1,0.4-0.1,0.9,0.1,1.3c0,0.1,0.1,0.2,0.1,0.3c0.1,0.2,0.2,0.4,0.2,0.6
			c0,0.2,0,0.5-0.1,0.7c0,0.1,0,0.2-0.1,0.3c-0.1,0.7,0.2,1.4,0.7,1.8c-0.2-0.7-0.3-1.5-0.3-2.4c0-0.1,0-0.2,0-0.2
			c0-0.4,0.1-0.8-0.1-1.2c-0.1-0.2-0.2-0.4-0.3-0.6C24.9,19.7,24.8,19.5,24.7,19.3z"/>
		<path style="clip-path:url(#SVGID_00000010302498897361658410000002128593769169467569_);fill:#FFFFFF;" d="M25.1,27.2
			C25.1,27.2,25.1,27.2,25.1,27.2C25.1,27.2,25.1,27.2,25.1,27.2c-0.5-0.3-0.9-0.7-1.2-1.1c-0.4-0.5-0.5-1-0.5-1.5
			c0-0.2,0.1-0.4,0.1-0.6c0-0.1,0.1-0.3,0.1-0.4c0.1-0.4,0-0.9-0.1-1.3c0,0,0-0.1,0-0.1c-0.1-0.1-0.1-0.3-0.1-0.4
			c0-0.1,0-0.3,0.1-0.4l0.3-1c0,0,0-0.1,0.1-0.1c0,0,0.1,0,0.1,0.1c0.3,0.9,0.5,1.8,0.5,2.8c0,0.1,0,0.2,0,0.3c0,0.4,0,0.8,0.1,1.2
			c0.1,0.2,0.1,0.3,0.2,0.5c0.1,0.2,0.2,0.4,0.3,0.7c0,0.1,0,0.2,0,0.3c0,0.2,0,0.3,0.1,0.5c0,0.1,0.1,0.1,0.1,0.2
			c0.1,0.1,0.1,0.2,0.1,0.3C25.2,27.2,25.2,27.2,25.1,27.2z M23.8,20.7l-0.2,0.8c0,0.1-0.1,0.2-0.1,0.3c0,0.1,0.1,0.2,0.1,0.4
			c0,0,0,0.1,0,0.1c0.2,0.4,0.2,0.9,0.1,1.4c0,0.1-0.1,0.3-0.1,0.4c-0.1,0.2-0.1,0.4-0.1,0.6c0,0.4,0.1,0.9,0.5,1.4
			c0.3,0.4,0.6,0.7,1,1c0,0,0,0,0-0.1c0-0.1-0.1-0.1-0.1-0.2c-0.1-0.2-0.1-0.3-0.1-0.5c0-0.1,0-0.2,0-0.3c0-0.2-0.1-0.4-0.3-0.7
			c-0.1-0.2-0.2-0.3-0.2-0.5c-0.1-0.4-0.1-0.8-0.1-1.2c0-0.1,0-0.2,0-0.3C24.2,22.4,24.1,21.5,23.8,20.7z"/>
		<path style="clip-path:url(#SVGID_00000010302498897361658410000002128593769169467569_);fill:#FFFFFF;" d="M27.3,20.6
			C27.3,20.6,27.3,20.6,27.3,20.6c-0.1-0.2-0.2-0.4-0.3-0.5c-0.1-0.2-0.3-0.4-0.3-0.7c0-0.1,0-0.1,0-0.2c0-0.1,0-0.1,0-0.2
			c0-0.2-0.1-0.4-0.2-0.6L26,17.2c0,0,0-0.1,0-0.1c0,0,0.1,0,0.1,0c0.3,0.2,0.6,0.5,0.8,0.8c0.2,0.3,0.2,0.7,0.3,1
			C27.3,19.5,27.3,20.1,27.3,20.6C27.4,20.5,27.4,20.6,27.3,20.6C27.3,20.6,27.3,20.6,27.3,20.6z M26.3,17.4l0.4,0.9
			c0.1,0.2,0.2,0.4,0.2,0.6c0,0.1,0,0.1,0,0.2c0,0.1,0,0.1,0,0.2c0,0.2,0.2,0.4,0.3,0.6c0,0,0,0,0,0c0-0.3-0.1-0.7-0.1-1
			c0-0.3-0.1-0.7-0.2-1C26.7,17.8,26.5,17.6,26.3,17.4z"/>
		<path style="clip-path:url(#SVGID_00000010302498897361658410000002128593769169467569_);fill:#FFFFFF;" d="M26.8,18
			C26.8,18,26.8,18,26.8,18c-0.1-0.3-0.2-0.5-0.3-0.6c-0.1-0.1-0.2-0.3-0.4-0.4c-0.2-0.1-0.4-0.1-0.6-0.1c0.2,0.1,0.4,0.1,0.5,0.2
			c0,0,0.1,0.1,0.1,0.1c0,0-0.1,0.1-0.1,0.1c-0.3-0.1-0.6-0.2-0.8-0.3c0,0-0.1,0,0-0.1c0,0,0-0.1,0.1-0.1c0.3-0.1,0.7-0.1,1,0
			c0.2,0.1,0.4,0.3,0.4,0.5C26.8,17.5,26.9,17.7,26.8,18C26.9,18,26.9,18,26.8,18C26.9,18,26.9,18,26.8,18z"/>
		<path style="clip-path:url(#SVGID_00000010302498897361658410000002128593769169467569_);fill:#FFFFFF;" d="M25.9,15.7
			C25.8,15.7,25.8,15.7,25.9,15.7c-0.4-0.4-0.8-0.8-1.4-1.1c-0.2-0.1-0.3-0.1-0.4-0.1c-0.1,0-0.1,0-0.2,0c0,0,0,0,0,0
			c0.2,0.1,0.5,0.2,0.7,0.2c0,0,0.1,0.1,0.1,0.1c0,0-0.1,0.1-0.1,0.1c-0.3-0.1-0.7-0.2-1-0.4c0,0-0.1-0.1,0-0.1c0,0,0.1-0.1,0.1,0
			c0.1,0,0.2,0,0.3,0c0.1,0,0.1,0,0.2,0c0.1,0,0.3,0,0.5,0.1c0.6,0.2,1,0.7,1.4,1.1C25.9,15.6,25.9,15.6,25.9,15.7
			C25.9,15.7,25.9,15.7,25.9,15.7z"/>
		<path style="clip-path:url(#SVGID_00000010302498897361658410000002128593769169467569_);fill:#FFFFFF;" d="M6.2,28.9
			C6.1,28.9,6.1,28.9,6.2,28.9c-2.3-3.1-3.3-6.6-3-9.9c0.1-1.4,0.5-2.7,1-3.8C4.7,14,5.6,13,6.4,12c1-1.2,2-2.5,2.6-4
			C9,7.8,9.1,7.6,9.1,7.4c0.2-0.7,0.5-1.5,1-2c0.2-0.2,0.5-0.4,0.8-0.6c0.5-0.3,1-0.6,1.1-1.2c0,0,0.1-0.1,0.1,0c0,0,0.1,0.1,0,0.1
			C12,4.2,11.5,4.6,11,4.9c-0.3,0.2-0.6,0.4-0.8,0.6C9.7,6,9.5,6.7,9.3,7.4C9.2,7.6,9.1,7.9,9.1,8.1c-0.5,1.5-1.6,2.8-2.6,4
			c-0.8,1-1.6,2-2.2,3.2c-0.6,1.1-0.9,2.4-1,3.7C3,22.2,4,25.7,6.2,28.7C6.2,28.8,6.2,28.8,6.2,28.9C6.2,28.9,6.2,28.9,6.2,28.9z"/>
		<path style="clip-path:url(#SVGID_00000010302498897361658410000002128593769169467569_);fill:#FFFFFF;" d="M10.8,5
			C10.8,5,10.8,5,10.8,5c-0.1-0.1-0.1-0.1-0.1-0.1c0.1-0.1,0.2-0.2,0.2-0.4c0-0.1,0.1-0.1,0.1-0.2c0.1-0.2,0.3-0.4,0.5-0.6
			c0.8-1,1.6-1.8,2.6-2.1c0,0,0.1,0,0.1,0c0,0,0,0.1,0,0.1C14,1.8,14,2,13.9,2.2c0,0.1-0.1,0.2-0.1,0.3c-0.1,0.2-0.3,0.3-0.4,0.5
			c0,0-0.1,0.1-0.1,0.1c-0.2,0.2-0.4,0.4-0.6,0.7c-0.1,0.1-0.3,0.3-0.4,0.4C11.7,4.7,11.3,4.9,10.8,5C10.8,5,10.8,5,10.8,5z
			 M13.9,1.9c-0.9,0.3-1.5,1.1-2.2,1.9c-0.2,0.2-0.3,0.4-0.4,0.6c0,0.1-0.1,0.1-0.1,0.2c0,0.1-0.1,0.2-0.1,0.2
			c0.3-0.1,0.7-0.3,1-0.7c0.1-0.1,0.3-0.3,0.4-0.4c0.2-0.2,0.4-0.5,0.6-0.7c0,0,0.1-0.1,0.1-0.1c0.2-0.1,0.3-0.3,0.4-0.4
			c0.1-0.1,0.1-0.2,0.1-0.3C13.8,2.1,13.8,2,13.9,1.9z"/>
		<path style="clip-path:url(#SVGID_00000010302498897361658410000002128593769169467569_);fill:#FFFFFF;" d="M10,5.7
			C10,5.7,10,5.7,10,5.7C9.9,5.7,9.9,5.7,10,5.7C9.8,5.3,9.7,4.8,9.8,4.4C9.9,4.2,10,4,10.1,3.8c0.1-0.1,0.1-0.2,0.2-0.3
			c0-0.1,0.1-0.2,0.1-0.2c0.1-0.2,0.1-0.4,0.3-0.5c0.1-0.1,0.2-0.2,0.4-0.3c0.1-0.1,0.3-0.2,0.4-0.3c0,0,0.1,0,0.1,0
			c0,0,0.1,0,0.1,0.1c0,0.4-0.2,0.8-0.4,1C11.1,3.3,11,3.4,11,3.4c-0.1,0.2-0.3,0.4-0.4,0.6c-0.2,0.3-0.2,0.6-0.3,1
			C10.2,5.2,10.1,5.5,10,5.7C10,5.7,10,5.7,10,5.7z M11.4,2.4c-0.1,0.1-0.2,0.1-0.2,0.2c-0.1,0.1-0.2,0.2-0.3,0.2
			c-0.1,0.1-0.2,0.3-0.3,0.5c0,0.1-0.1,0.2-0.1,0.2c-0.1,0.1-0.1,0.2-0.2,0.4C10.1,4.1,10,4.2,10,4.4c-0.1,0.3,0,0.7,0,1
			c0-0.1,0.1-0.3,0.1-0.4c0.1-0.3,0.2-0.7,0.3-1c0.1-0.2,0.3-0.4,0.4-0.6C10.9,3.3,11,3.2,11,3.1C11.2,2.8,11.3,2.6,11.4,2.4z"/>
		<path style="clip-path:url(#SVGID_00000010302498897361658410000002128593769169467569_);fill:#FFFFFF;" d="M10.4,5.9
			c-0.2,0-0.3,0-0.5-0.1c0,0-0.1,0-0.1-0.1c0,0,0-0.1,0-0.1l0.2-0.1C11,5.3,12,4.9,12.7,4.2c0.1-0.1,0.1-0.1,0.2-0.2
			c0.1-0.1,0.2-0.2,0.3-0.3C13.6,3.4,14,3.2,14.5,3c0.1,0,0.2-0.1,0.3-0.1c0,0,0.1,0,0.1,0c0,0,0,0.1,0,0.1
			c-0.3,0.2-0.4,0.5-0.6,0.8c-0.2,0.4-0.4,0.7-0.8,0.9c-0.2,0.1-0.4,0.1-0.6,0.2c-0.2,0-0.4,0.1-0.5,0.1c-0.2,0.1-0.3,0.2-0.5,0.3
			c-0.1,0.1-0.2,0.1-0.3,0.2C11.2,5.8,10.8,5.9,10.4,5.9z M10.2,5.7c0.4,0,0.9-0.1,1.2-0.3c0.1-0.1,0.2-0.1,0.3-0.2
			C11.9,5.1,12,5,12.2,4.9c0.2-0.1,0.4-0.1,0.6-0.1c0.2,0,0.4-0.1,0.6-0.2c0.3-0.2,0.5-0.5,0.8-0.9c0.1-0.2,0.2-0.4,0.4-0.5
			c-0.4,0.2-0.8,0.4-1.2,0.7C13.2,3.9,13.1,4,13,4.1c-0.1,0.1-0.1,0.1-0.2,0.2C12.1,5,11.2,5.4,10.2,5.7z"/>
		<path style="clip-path:url(#SVGID_00000010302498897361658410000002128593769169467569_);fill:#FFFFFF;" d="M9.3,7.2
			C9.3,7.2,9.3,7.2,9.3,7.2C9,6.9,8.7,6.6,8.7,6.2c0-0.2,0-0.4,0.1-0.5c0-0.2,0.1-0.3,0.1-0.5c0-0.1,0-0.2,0-0.3
			c0-0.1-0.1-0.3,0-0.4C8.8,4.3,8.9,4.2,9,4C9,3.9,9.1,3.9,9.1,3.8c0-0.1,0-0.1,0.1-0.2c0-0.1,0-0.1,0.1-0.2C9.3,3.1,9.4,3,9.5,3
			c0,0,0.1,0,0.1,0c0,0,0,0,0,0.1c-0.2,0.7-0.4,1.3-0.3,2c0,0.1,0,0.2,0,0.3c0,0.2,0,0.4,0,0.6c0,0.1,0,0.1,0,0.2c0,0.1,0,0.2,0,0.3
			c0,0.1,0,0.3,0.1,0.4C9.4,6.9,9.4,7,9.3,7.2C9.4,7.2,9.4,7.2,9.3,7.2C9.3,7.2,9.3,7.2,9.3,7.2z M9.4,3.2c0,0.1-0.1,0.1-0.1,0.2
			c0,0.1,0,0.1-0.1,0.2c0,0.1,0,0.2-0.1,0.2c0,0.1-0.1,0.2-0.2,0.3C9,4.2,8.9,4.4,8.9,4.5c0,0.1,0,0.3,0,0.4c0,0.1,0,0.2,0,0.3
			c0,0.2,0,0.3-0.1,0.5c0,0.2-0.1,0.3-0.1,0.5c0,0.3,0.2,0.5,0.4,0.7c0,0,0-0.1,0-0.1c0-0.1-0.1-0.3-0.1-0.4c0-0.1,0-0.2,0-0.3
			c0-0.1,0-0.1,0-0.2c0-0.2,0-0.4,0-0.6c0-0.1,0-0.2,0-0.3C9.1,4.4,9.3,3.8,9.4,3.2z"/>
		<path style="clip-path:url(#SVGID_00000010302498897361658410000002128593769169467569_);fill:#FFFFFF;" d="M10.1,7.3
			c-0.3,0-0.5-0.1-0.8-0.2c0,0-0.1,0-0.1-0.1c0,0,0-0.1,0-0.1c0.1,0,0.2-0.1,0.3-0.1c0.2-0.1,0.5-0.2,0.7-0.3c0,0,0.1,0,0.1,0
			c0.2-0.1,0.3-0.1,0.5-0.2c0.1-0.1,0.2-0.1,0.3-0.2C11.3,6,11.4,6,11.5,5.9c0.6-0.5,1.5-0.4,2.1-0.4c0,0,0.1,0,0.1,0.1
			c0,0,0,0.1,0,0.1c-0.4,0.3-0.8,0.6-1.3,0.7c-0.1,0-0.2,0-0.3,0c-0.2,0-0.3,0-0.5,0.1c-0.2,0.1-0.4,0.2-0.6,0.4
			c-0.2,0.2-0.4,0.4-0.7,0.4C10.3,7.3,10.2,7.3,10.1,7.3z M9.6,7.1c0.3,0.1,0.5,0.1,0.8,0.1c0.2-0.1,0.4-0.2,0.6-0.4
			c0.2-0.2,0.4-0.3,0.6-0.4c0.2-0.1,0.3-0.1,0.5-0.1c0.1,0,0.2,0,0.3,0c0.4-0.1,0.7-0.3,1-0.5c0,0,0,0,0,0c-0.7,0-1.3,0.1-1.8,0.4
			c-0.1,0.1-0.1,0.1-0.2,0.2c-0.1,0.1-0.2,0.2-0.3,0.2c-0.2,0.1-0.3,0.2-0.5,0.2c0,0-0.1,0-0.1,0C10.2,6.8,10,6.9,9.7,7
			C9.7,7,9.6,7,9.6,7.1z"/>
		<path style="clip-path:url(#SVGID_00000010302498897361658410000002128593769169467569_);fill:#FFFFFF;" d="M8.8,8.7
			C8.7,8.7,8.7,8.7,8.8,8.7C8.2,8.4,7.9,7.8,7.9,7.2c0-0.1,0-0.3,0-0.4c0-0.2,0-0.4,0-0.6c0-0.1,0-0.2-0.1-0.3
			c0-0.1-0.1-0.2-0.1-0.3c0-0.2,0-0.4,0.1-0.6c0.1-0.4,0.2-0.8,0.4-1.1c0,0,0.1,0,0.1,0c0,0,0.1,0,0.1,0.1c0,0.6,0,1.1-0.1,1.7l0,0
			c0,0.2,0,0.3,0,0.5c0,0.1,0.1,0.3,0.1,0.4c0,0.1,0,0.1,0.1,0.2c0.1,0.3,0.1,0.6,0.2,0.9C8.7,7.9,8.8,8.3,8.8,8.7
			C8.8,8.6,8.8,8.7,8.8,8.7C8.8,8.7,8.8,8.7,8.8,8.7z M8.2,4.2C8.1,4.5,8,4.7,8,5c0,0.2-0.1,0.4-0.1,0.6c0,0.1,0,0.2,0.1,0.3
			C8,6,8,6.1,8.1,6.2c0,0.2,0,0.4,0,0.6C8,6.9,8,7,8,7.2c0,0.5,0.2,1,0.6,1.3C8.6,8.2,8.5,7.8,8.5,7.5c0-0.3-0.1-0.6-0.2-0.9
			c0-0.1,0-0.1-0.1-0.2c0-0.1-0.1-0.3-0.1-0.4c0-0.2,0-0.4,0-0.5l0,0C8.2,5.1,8.2,4.7,8.2,4.2z"/>
		<path style="clip-path:url(#SVGID_00000010302498897361658410000002128593769169467569_);fill:#FFFFFF;" d="M9.2,8.8
			c-0.2,0-0.3,0-0.5-0.1c0,0-0.1,0,0-0.1c0,0,0-0.1,0.1-0.1c0.3,0,0.6-0.2,0.8-0.4C9.6,8.1,9.7,8,9.8,8c0.1-0.1,0.3-0.3,0.5-0.4
			c0.1-0.1,0.2-0.1,0.3-0.1c0.1-0.1,0.3-0.1,0.4-0.2c0,0,0,0,0,0c0.3,0,0.5,0.1,0.7,0.3c0,0,0,0.1,0,0.1c0,0-0.1,0-0.1,0
			c-0.3-0.1-0.7,0.2-0.9,0.3C10.7,8,10.6,8,10.5,8.1c-0.2,0.2-0.3,0.3-0.5,0.5C9.7,8.7,9.5,8.8,9.2,8.8z M9,8.7c0.3,0,0.6,0,0.9-0.2
			c0.2-0.1,0.3-0.3,0.5-0.4c0.1-0.1,0.2-0.2,0.3-0.3c0.2-0.1,0.4-0.4,0.8-0.4c-0.1-0.1-0.3-0.1-0.4-0.1c-0.1,0.1-0.3,0.2-0.4,0.2
			c-0.1,0-0.2,0.1-0.3,0.1C10.2,7.8,10,7.9,9.9,8.1C9.8,8.1,9.7,8.2,9.6,8.3C9.4,8.5,9.2,8.6,9,8.7z"/>
		<path style="clip-path:url(#SVGID_00000010302498897361658410000002128593769169467569_);fill:#FFFFFF;" d="M7.9,10.1
			C7.9,10.1,7.9,10.1,7.9,10.1c-0.2,0-0.3-0.3-0.4-0.5C7.2,9.2,7,8.7,6.9,8.1l0,0c0-0.3-0.1-0.5-0.3-0.6c0,0,0,0,0-0.1
			c0,0,0-0.1,0.1-0.1c0.3,0,0.6-0.2,0.7-0.5c0,0,0,0,0.1,0c0,0,0.1,0,0.1,0.1c0.1,0.3,0.1,0.6,0,0.9c0,0.3,0,0.6,0.1,0.9
			c0,0.1,0.1,0.2,0.1,0.2c0,0.1,0.1,0.2,0.1,0.3C8,9.5,8,9.8,7.9,10.1C8,10.1,7.9,10.1,7.9,10.1C7.9,10.1,7.9,10.1,7.9,10.1z
			 M6.9,7.4C7,7.6,7.1,7.8,7.1,8.1l0,0c0.1,0.5,0.3,1.1,0.5,1.5c0.1,0.1,0.1,0.3,0.2,0.3c0-0.2,0-0.5-0.1-0.7c0-0.1-0.1-0.2-0.1-0.3
			c0-0.1-0.1-0.2-0.1-0.3C7.4,8.4,7.4,8,7.4,7.7c0-0.2,0-0.4,0-0.7C7.3,7.2,7.1,7.4,6.9,7.4z"/>
		<path style="clip-path:url(#SVGID_00000010302498897361658410000002128593769169467569_);fill:#FFFFFF;" d="M4.7,8.6
			c-0.1,0-0.1,0-0.1,0c0,0-0.1,0-0.1-0.1c0,0,0-0.1,0-0.1L5,8.1C5,8,5.1,8,5.2,7.9c0-0.1,0.1-0.1,0.1-0.2c0-0.1,0.1-0.1,0.1-0.2
			c0.1-0.1,0.3-0.2,0.4-0.3l0.8-0.5c0.1-0.1,0.2-0.1,0.3-0.1c0.2,0,0.3,0.1,0.4,0.1c0.1,0,0.1,0.1,0.2,0.1c0,0,0,0,0,0
			c0,0,0,0,0,0.1C7.5,7.1,7.2,7.3,7.1,7.3C7,7.4,6.9,7.4,6.8,7.4c-0.1,0-0.2,0.1-0.3,0.1C6.3,7.6,6.2,7.7,6.1,7.8C6,7.9,6,8,5.9,8
			C5.8,8.2,5.7,8.3,5.6,8.4C5.3,8.6,5,8.6,4.7,8.6z M6.9,6.7C6.9,6.7,6.9,6.7,6.9,6.7c-0.1,0-0.2,0.1-0.3,0.1L5.9,7.3
			C5.8,7.4,5.6,7.5,5.5,7.6c0,0.1-0.1,0.1-0.1,0.2c0,0.1-0.1,0.1-0.1,0.2C5.2,8.1,5.1,8.1,5.1,8.2L4.7,8.5c0.3,0,0.5,0,0.7-0.2
			c0.1-0.1,0.2-0.2,0.3-0.3C5.8,7.9,5.9,7.8,6,7.7c0.1-0.1,0.3-0.3,0.5-0.3c0.1-0.1,0.2-0.1,0.3-0.1c0.1,0,0.2-0.1,0.3-0.1
			C7.2,7.1,7.3,7,7.4,6.9c-0.1,0-0.1-0.1-0.2-0.1C7.1,6.8,7,6.7,6.9,6.7z"/>
		<path style="clip-path:url(#SVGID_00000010302498897361658410000002128593769169467569_);fill:#FFFFFF;" d="M7.6,10.7
			C7.6,10.7,7.6,10.6,7.6,10.7c-0.1,0-0.1-0.1-0.1-0.1c0,0,0-0.1,0.1-0.1c0,0,0,0,0.1,0c0,0,0.1-0.1,0.1-0.1c0,0,0,0,0.1-0.1
			C8,10.2,8.1,10.1,8.3,10C8.3,10,8.4,9.9,8.5,9.8c0.1-0.1,0.2-0.2,0.3-0.3C8.9,9.5,9,9.4,9.1,9.3c0.4-0.3,1-0.4,1.4-0.4
			c0,0,0,0,0.1,0c0.2,0.2,0.4,0.5,0.4,0.9c0,0,0,0.1,0,0.1c0,0-0.1,0-0.1,0c0-0.1-0.1-0.1-0.2-0.2c-0.4-0.2-0.8-0.3-1.2-0.1
			C9.3,9.6,9.1,9.8,9,10c-0.1,0.2-0.3,0.4-0.5,0.5C8.2,10.6,8,10.6,7.6,10.7C7.7,10.6,7.7,10.7,7.6,10.7z M10.5,9
			c-0.4,0-0.9,0.1-1.3,0.4C9.1,9.5,9,9.6,8.9,9.7C8.8,9.8,8.7,9.9,8.6,10c-0.1,0.1-0.2,0.1-0.3,0.2c-0.1,0.1-0.3,0.2-0.4,0.3
			c0,0,0,0-0.1,0.1c0,0,0,0,0,0c0.2,0,0.3-0.1,0.5-0.1c0.2-0.1,0.3-0.3,0.5-0.4C9,9.7,9.2,9.5,9.4,9.4c0.4-0.2,0.9,0,1.3,0.1
			c0,0,0.1,0,0.1,0.1C10.8,9.4,10.7,9.2,10.5,9z"/>
		<path style="clip-path:url(#SVGID_00000010302498897361658410000002128593769169467569_);fill:#FFFFFF;" d="M10.8,11.9
			C10.8,11.9,10.8,11.9,10.8,11.9C10.8,11.9,10.7,11.9,10.8,11.9c-0.1-0.4-0.1-0.7,0-1.1c0,0,0-0.1,0-0.1c0.1-0.4,0.2-0.8-0.3-1.9
			c0,0,0-0.1,0-0.1c0,0,0,0,0.1,0c0.3,0,0.6,0,0.8,0.3c0.2,0.2,0.2,0.4,0.2,0.7c0,0.1,0,0.3,0,0.5c0,0.1-0.1,0.3-0.2,0.4
			c0,0.1-0.1,0.2-0.1,0.2c-0.1,0.1-0.1,0.3-0.1,0.4C11.1,11.5,11,11.7,10.8,11.9C10.9,11.9,10.8,11.9,10.8,11.9z M10.7,9
			c0.5,1,0.4,1.5,0.3,1.8c0,0,0,0.1,0,0.1c-0.1,0.2-0.1,0.5-0.1,0.7c0.1-0.1,0.1-0.3,0.1-0.4c0-0.2,0.1-0.3,0.1-0.5
			c0-0.1,0.1-0.2,0.1-0.3c0.1-0.1,0.1-0.2,0.2-0.3c0-0.1,0-0.3,0-0.4c0-0.2,0-0.4-0.2-0.6C11.1,9,10.9,9,10.7,9z"/>
		<path style="clip-path:url(#SVGID_00000010302498897361658410000002128593769169467569_);fill:#FFFFFF;" d="M5.1,13.7
			C5.1,13.7,5.1,13.7,5.1,13.7c-0.1-0.1-0.1-0.1,0-0.1c0,0,0,0,0.1,0c0.6-0.4,1.2-0.8,1.6-1.5c0-0.1,0.1-0.1,0.1-0.2
			c0.1-0.2,0.3-0.4,0.5-0.6C7.6,11.1,7.8,11.1,8,11c0.2,0,0.4-0.1,0.5-0.2c0.2-0.1,0.3-0.3,0.5-0.4c0.2-0.3,0.5-0.5,0.9-0.5
			c0,0,0.1,0,0.1,0c0,0,0,0.1,0,0.1c-0.3,0.5-0.6,1-1.1,1.3c-0.2,0.1-0.4,0.3-0.6,0.4c-0.2,0.1-0.4,0.2-0.6,0.4
			c-0.2,0.1-0.3,0.3-0.4,0.4c-0.2,0.3-0.5,0.5-0.8,0.7c-0.3,0.1-0.6,0.2-0.8,0.2C5.5,13.5,5.3,13.6,5.1,13.7
			C5.2,13.6,5.2,13.6,5.1,13.7C5.2,13.7,5.1,13.7,5.1,13.7z M9.7,10.1c-0.2,0.1-0.4,0.3-0.6,0.5C9,10.7,8.8,10.9,8.6,11
			c-0.2,0.1-0.4,0.1-0.6,0.2c-0.2,0-0.4,0.1-0.6,0.2c-0.2,0.1-0.3,0.3-0.4,0.5C7,12,6.9,12,6.9,12.1c-0.3,0.5-0.8,0.9-1.3,1.2
			c0,0,0,0,0,0c0.3-0.1,0.5-0.1,0.8-0.2c0.3-0.2,0.5-0.4,0.8-0.7c0.1-0.1,0.3-0.3,0.4-0.4c0.2-0.1,0.4-0.3,0.6-0.4
			c0.2-0.1,0.4-0.2,0.5-0.4C9.2,10.9,9.5,10.5,9.7,10.1z"/>
		<path style="clip-path:url(#SVGID_00000010302498897361658410000002128593769169467569_);fill:#FFFFFF;" d="M5.2,13.6
			C5.1,13.6,5.1,13.6,5.2,13.6C5.1,13.6,5.1,13.6,5.2,13.6c-0.1-0.5-0.1-1,0.1-1.4c0.1-0.2,0.2-0.3,0.3-0.5c0.1-0.2,0.3-0.4,0.3-0.6
			C6,10.8,6,10.5,6,10.2c0-0.4-0.1-0.7,0.1-1.1c0-0.1,0.1-0.2,0.1-0.2c0.1-0.2,0.2-0.3,0.2-0.5c0-0.1,0-0.1,0-0.2c0,0,0-0.1,0-0.1
			c0,0,0.1,0,0.1,0c0,0.1,0.1,0.1,0.1,0.2c0.1,0.4,0.2,0.9,0.2,1.3c0,0.8-0.3,1.6-0.6,2.2C6,12,5.9,12.3,5.7,12.5
			C5.5,12.9,5.3,13.3,5.2,13.6C5.2,13.6,5.2,13.6,5.2,13.6z M6.4,8.7c0,0.1-0.1,0.2-0.1,0.2c0,0.1-0.1,0.2-0.1,0.2
			c-0.1,0.3-0.1,0.6-0.1,1c0,0.4,0.1,0.7-0.1,1.1c-0.1,0.2-0.2,0.4-0.4,0.6c-0.1,0.1-0.2,0.3-0.3,0.5c-0.1,0.3-0.2,0.6-0.2,0.9
			c0.1-0.2,0.2-0.5,0.4-0.7C5.7,12.2,5.9,12,6,11.7c0.4-0.8,0.6-1.5,0.6-2.1C6.6,9.3,6.5,9,6.4,8.7z"/>
		<path style="clip-path:url(#SVGID_00000010302498897361658410000002128593769169467569_);fill:#FFFFFF;" d="M4.2,15.7
			C4.2,15.7,4.2,15.7,4.2,15.7c-0.1,0-0.1-0.1-0.1-0.1c0.2-0.3,0.4-0.7,0.8-0.9c0.1-0.1,0.3-0.1,0.4-0.1c0,0,0.1,0,0.1,0
			C6,14.4,6.6,14.1,7,13.8c0.2-0.2,0.4-0.4,0.5-0.6c0.1-0.1,0.2-0.3,0.3-0.4c0.3-0.3,0.6-0.6,1-0.8c0.4-0.3,0.8-0.7,1.1-1.1
			c0,0,0.1,0,0.1,0c0,0,0,0.1,0,0.1c-1,1.9-2.7,3.5-4.8,4.2c-0.1,0-0.2,0.1-0.3,0.1C4.7,15.4,4.4,15.5,4.2,15.7
			C4.2,15.7,4.2,15.7,4.2,15.7z M9.6,11.5c-0.2,0.2-0.5,0.4-0.7,0.6c-0.3,0.3-0.7,0.5-0.9,0.8c-0.1,0.1-0.2,0.2-0.3,0.4
			c-0.2,0.2-0.4,0.4-0.6,0.6c-0.4,0.4-1,0.6-1.6,0.8c0,0-0.1,0-0.1,0c-0.1,0-0.3,0.1-0.4,0.1c-0.3,0.1-0.4,0.3-0.6,0.6
			c0.2-0.1,0.4-0.2,0.6-0.2c0.1,0,0.2-0.1,0.3-0.1C7.1,14.4,8.6,13.1,9.6,11.5z"/>
		<path style="clip-path:url(#SVGID_00000010302498897361658410000002128593769169467569_);fill:#FFFFFF;" d="M4.1,15.6
			C4,15.6,4,15.6,4.1,15.6c-0.5-0.7-0.6-1.4-0.3-2.1c0.1-0.2,0.1-0.3,0.2-0.5c0.1-0.3,0.3-0.6,0.3-0.9c0-0.3-0.1-0.5-0.2-0.8
			c-0.1-0.3-0.2-0.6-0.2-1C3.9,10.1,4,10,4,9.8c0.1-0.3,0.2-0.5,0.1-0.7c0,0,0-0.1,0-0.1c0,0,0.1,0,0.1,0c0.5,1,0.6,2.2,0.3,3.3
			c0,0.1-0.1,0.2-0.1,0.3c-0.1,0.2-0.1,0.5-0.2,0.7c0,0.1,0,0.3,0,0.4c0,0.1,0,0.2,0,0.3c0,0.2,0,0.4-0.1,0.6l0,0
			C4.2,15,4.2,15.3,4.1,15.6C4.1,15.6,4.1,15.6,4.1,15.6C4.1,15.6,4.1,15.6,4.1,15.6z M4.3,9.4c0,0.1-0.1,0.3-0.1,0.4
			C4.1,10,4.1,10.2,4,10.3c0,0.3,0.1,0.6,0.2,0.9c0.1,0.3,0.2,0.6,0.2,0.8c0,0.3-0.2,0.7-0.3,1c-0.1,0.2-0.1,0.3-0.2,0.5
			c-0.2,0.6-0.1,1.2,0.1,1.8c0-0.2,0.1-0.4,0.1-0.7l0,0c0-0.2,0.1-0.4,0.1-0.6c0-0.1,0-0.2,0-0.3c0-0.1,0-0.3,0-0.4
			c0-0.3,0.1-0.5,0.2-0.7c0-0.1,0.1-0.2,0.1-0.3C4.7,11.4,4.7,10.3,4.3,9.4z"/>
		<path style="clip-path:url(#SVGID_00000010302498897361658410000002128593769169467569_);fill:#FFFFFF;" d="M3.5,16.9
			C3.5,16.9,3.5,16.9,3.5,16.9c-0.4-0.7-0.9-1.4-1-2.1c0-0.2,0-0.3,0-0.5c0-0.3,0-0.5-0.1-0.8c0-0.1,0-0.2-0.1-0.2
			c0-0.1-0.1-0.3-0.1-0.4c0-0.4,0.1-0.8,0.3-1.1L2.8,11c0,0,0,0,0.1,0c0,0,0,0,0,0c0,0,0.1,0,0.1,0c0.2,0.5,0.2,1.1,0.2,1.7
			c0,0.1,0,0.2,0,0.2C3,14.2,3.2,15.6,3.5,16.9C3.6,16.8,3.6,16.9,3.5,16.9C3.6,16.9,3.6,16.9,3.5,16.9z M2.9,11.2l-0.2,0.5
			c-0.1,0.3-0.3,0.7-0.2,1c0,0.1,0.1,0.3,0.1,0.4c0,0.1,0.1,0.2,0.1,0.2c0.1,0.3,0.1,0.5,0.1,0.8c0,0.2,0,0.3,0,0.5
			c0.1,0.5,0.3,1.1,0.6,1.5C3,15.2,2.9,14,3,12.9c0-0.1,0-0.2,0-0.2C3,12.2,3,11.7,2.9,11.2z"/>
		<path style="clip-path:url(#SVGID_00000010302498897361658410000002128593769169467569_);fill:#FFFFFF;" d="M3.7,16.9
			C3.6,16.9,3.6,16.9,3.7,16.9c-0.1-0.1-0.1-0.1,0-0.1c0.1-0.1,0.2-0.2,0.3-0.4c0.1-0.1,0.1-0.2,0.2-0.3C4.3,16,4.4,16,4.5,16
			c0,0,0,0,0.1,0c0.4-0.1,0.8-0.3,1.2-0.6C6,15.3,6.3,15.1,6.6,15c0.1-0.1,0.3-0.1,0.5-0.1c0,0,0.1,0,0.1,0.1c0,0,0,0.1-0.1,0.1
			c-0.4,0.1-0.7,0.4-1,0.7C6,15.8,5.9,16,5.8,16.1C5.2,16.6,4.5,16.9,3.7,16.9C3.7,16.9,3.7,16.9,3.7,16.9z M6.5,15.2
			c-0.2,0.1-0.5,0.3-0.7,0.4c-0.4,0.2-0.8,0.5-1.2,0.6c0,0,0,0-0.1,0c-0.1,0-0.2,0-0.3,0.1c-0.1,0.1-0.1,0.1-0.2,0.2
			c-0.1,0.1-0.1,0.2-0.2,0.3c0.7-0.1,1.3-0.3,1.8-0.8c0.1-0.1,0.2-0.2,0.3-0.3C6.2,15.5,6.3,15.3,6.5,15.2z"/>
		<path style="clip-path:url(#SVGID_00000010302498897361658410000002128593769169467569_);fill:#FFFFFF;" d="M8,16.3
			C8,16.3,8,16.3,8,16.3c-0.2-0.3-0.4-0.5-0.6-0.6c-0.1,0-0.2-0.1-0.3-0.1c-0.1,0-0.1,0-0.2,0.1l0,0c-0.3,0.2-0.7,0.3-1.1,0.3
			c0,0-0.1,0-0.1,0c0,0,0-0.1,0-0.1c0.1-0.1,0.1-0.1,0.2-0.2c0.3-0.4,0.6-0.7,1-0.8c0.1,0,0.2-0.1,0.3-0.1c0.2,0,0.4,0.1,0.5,0.3
			C7.9,15.4,8,15.9,8,16.3C8.1,16.3,8.1,16.3,8,16.3C8,16.3,8,16.3,8,16.3z M7.2,15c-0.1,0-0.1,0-0.2,0c-0.4,0.1-0.6,0.4-1,0.8
			c0,0,0,0,0,0c0.3,0,0.6-0.1,0.8-0.3l0,0c0.1,0,0.2-0.1,0.3-0.1c0.1,0,0.2,0,0.4,0.1c0.1,0.1,0.3,0.2,0.4,0.3
			c-0.1-0.2-0.2-0.4-0.3-0.6C7.5,15.1,7.3,15,7.2,15C7.2,15,7.2,15,7.2,15z"/>
		<path style="clip-path:url(#SVGID_00000010302498897361658410000002128593769169467569_);fill:#FFFFFF;" d="M3.2,19
			C3.2,19,3.1,18.9,3.2,19c-0.4-0.6-0.8-1.1-1.1-1.7c-0.1-0.2-0.2-0.4-0.2-0.5c0-0.1,0-0.2,0-0.3c0-0.1,0-0.1,0-0.2
			c0-0.2-0.1-0.5-0.2-0.7c-0.1-0.3-0.3-0.7-0.2-1c0,0,0,0,0,0c0,0,0,0,0.1,0c0.3,0.2,0.5,0.5,0.6,0.9c0.1,0.2,0.1,0.3,0.1,0.5
			c0,0.2,0.1,0.4,0.2,0.5c0.1,0.1,0.1,0.3,0.2,0.4c0,0.1,0.1,0.2,0.1,0.3c0.2,0.5,0.3,1.1,0.4,1.6C3.2,18.7,3.2,18.8,3.2,19
			C3.3,18.9,3.2,18.9,3.2,19C3.2,18.9,3.2,19,3.2,19z M1.6,14.6c0,0.3,0.1,0.5,0.2,0.8C1.9,15.6,2,15.9,2,16.2c0,0.1,0,0.2,0,0.2
			c0,0.1,0,0.2,0,0.3c0,0.2,0.1,0.3,0.2,0.5c0.3,0.5,0.6,0.9,0.9,1.4c-0.1-0.5-0.2-1-0.4-1.4c0-0.1-0.1-0.2-0.1-0.3
			c-0.1-0.1-0.1-0.3-0.2-0.4c-0.1-0.2-0.1-0.4-0.2-0.5c0-0.2-0.1-0.3-0.1-0.5C1.9,15,1.7,14.8,1.6,14.6z"/>
		<path style="clip-path:url(#SVGID_00000010302498897361658410000002128593769169467569_);fill:#FFFFFF;" d="M3.4,18.9
			C3.3,18.9,3.3,18.9,3.4,18.9c-0.1,0-0.1-0.1-0.1-0.1c0-0.1,0.1-0.1,0.1-0.2c0.1-0.2,0.2-0.5,0.4-0.7c0.2-0.2,0.5-0.4,0.7-0.5
			l0.4-0.2c0,0,0.1,0,0.1,0c0,0,0,0.1,0,0.1c-0.1,0.1-0.2,0.3-0.3,0.5c-0.1,0.2-0.2,0.5-0.4,0.6c-0.2,0.2-0.4,0.3-0.6,0.4
			C3.6,18.8,3.5,18.8,3.4,18.9C3.4,18.9,3.4,18.9,3.4,18.9z M4.7,17.4l-0.2,0.1c-0.2,0.1-0.5,0.3-0.7,0.5c-0.2,0.2-0.3,0.5-0.4,0.7
			c0,0,0,0,0,0c0.1,0,0.1-0.1,0.2-0.1c0.2-0.1,0.4-0.2,0.6-0.3c0.2-0.2,0.3-0.4,0.4-0.6C4.6,17.6,4.7,17.5,4.7,17.4z"/>
		<path style="clip-path:url(#SVGID_00000010302498897361658410000002128593769169467569_);fill:#FFFFFF;" d="M4.3,18.4
			C4.3,18.4,4.3,18.4,4.3,18.4c-0.1,0-0.1-0.1-0.1-0.1c0.7-1.3,1-1.5,1.3-1.6c0.3-0.1,0.6-0.2,0.9-0.2c0,0,0.1,0,0.1,0.1
			c0,0,0,0.1-0.1,0.1c-0.3,0.1-0.5,0.3-0.7,0.6c-0.1,0.1-0.1,0.2-0.2,0.3C5.2,17.8,4.8,18.1,4.3,18.4C4.4,18.4,4.4,18.4,4.3,18.4z
			 M6,16.7c-0.1,0-0.3,0.1-0.4,0.1c-0.2,0.1-0.5,0.3-1.1,1.3c0.3-0.2,0.6-0.4,0.9-0.7c0.1-0.1,0.1-0.2,0.2-0.3
			C5.8,17,5.9,16.8,6,16.7z"/>
		<path style="clip-path:url(#SVGID_00000010302498897361658410000002128593769169467569_);fill:#FFFFFF;" d="M3.2,21.4
			C3.2,21.4,3.2,21.4,3.2,21.4C3.2,21.4,3.2,21.4,3.2,21.4c-0.1-0.6,0-1,0.3-1.4c0.1-0.1,0.3-0.2,0.4-0.3c0.1,0,0.1-0.1,0.2-0.1
			c0.3-0.2,0.6-0.6,0.8-0.9c0.2-0.3,0.4-0.5,0.7-0.8c0.1-0.1,0.3-0.2,0.4-0.3c0.3-0.3,0.7-0.5,0.8-0.9c0,0,0-0.1,0.1-0.1
			c0,0,0.1,0,0.1,0.1c0,0.5-0.2,0.9-0.4,1.2c-0.5,0.7-1,1.4-1.7,1.9c-0.1,0.1-0.2,0.1-0.3,0.2C4,20.4,3.5,20.8,3.2,21.4
			C3.3,21.4,3.3,21.4,3.2,21.4z M6.7,17.1c-0.2,0.2-0.4,0.4-0.6,0.6C6,17.8,5.8,17.9,5.7,18c-0.2,0.2-0.4,0.5-0.6,0.8
			c-0.3,0.3-0.5,0.7-0.9,1c-0.1,0-0.1,0.1-0.2,0.1c-0.1,0.1-0.3,0.2-0.4,0.3c-0.2,0.2-0.3,0.5-0.3,0.8c0.2-0.4,0.7-0.7,1.1-1
			c0.1-0.1,0.2-0.1,0.3-0.2c0.7-0.5,1.2-1.2,1.7-1.9C6.5,17.6,6.6,17.4,6.7,17.1z"/>
		<path style="clip-path:url(#SVGID_00000010302498897361658410000002128593769169467569_);fill:#FFFFFF;" d="M3.1,21.4
			C3.1,21.4,3.1,21.3,3.1,21.4C3,21.2,2.8,21,2.6,20.7c0,0-0.1-0.1-0.1-0.1c-0.2-0.1-0.3-0.2-0.4-0.4c-0.2-0.3-0.1-0.6-0.1-0.9
			c0-0.2,0-0.5,0-0.7c0,0,0-0.1,0-0.1c0,0,0.1,0,0.1,0c0.2,0.2,0.4,0.6,0.5,0.9l0.2,0.5C3,20.3,3.2,20.8,3.1,21.4
			C3.2,21.3,3.2,21.4,3.1,21.4C3.1,21.4,3.1,21.4,3.1,21.4z M2.1,18.9c0,0.2,0,0.3,0,0.5c0,0.3,0,0.6,0.1,0.8
			c0.1,0.1,0.2,0.3,0.4,0.4c0,0,0.1,0.1,0.1,0.1c0.1,0.1,0.2,0.2,0.3,0.3c-0.1-0.3-0.2-0.6-0.4-1l-0.2-0.5
			C2.3,19.3,2.2,19.1,2.1,18.9z"/>
		<path style="clip-path:url(#SVGID_00000010302498897361658410000002128593769169467569_);fill:#FFFFFF;" d="M3.8,23.8
			C3.8,23.8,3.8,23.8,3.8,23.8c-0.2-0.5-0.3-1-0.1-1.5c0.1-0.2,0.2-0.4,0.3-0.6l1.2-1.8c0.1-0.1,0.2-0.2,0.3-0.3
			c0.1-0.1,0.3-0.1,0.4-0.2l1.1-0.3c0,0,0.1,0,0.1,0c0,0,0,0.1,0,0.1l-0.7,1.4c0,0,0,0-0.1,0c0,0,0,0-0.1,0c-0.1-0.1-0.3,0-0.4,0.1
			c-0.5,0.3-1.1,0.7-1.5,1.2C4.1,22.4,4,23.1,3.8,23.8C3.9,23.8,3.9,23.8,3.8,23.8C3.8,23.8,3.8,23.8,3.8,23.8z M6.9,19.3l-1,0.3
			c-0.1,0-0.2,0.1-0.3,0.1c-0.1,0.1-0.2,0.2-0.2,0.3l-1.2,1.8C4,22,3.9,22.2,3.9,22.4c-0.1,0.3-0.1,0.6,0,0.9c0.1-0.5,0.2-1,0.5-1.5
			c0.4-0.6,1-1,1.5-1.3c0.2-0.1,0.4-0.1,0.5-0.1L6.9,19.3z"/>
		<path style="clip-path:url(#SVGID_00000010302498897361658410000002128593769169467569_);fill:#FFFFFF;" d="M6.8,22.5
			C6.7,22.5,6.7,22.4,6.8,22.5c-0.2-0.3-0.2-0.6-0.2-0.8c0,0,0-0.1,0-0.1c0-0.1,0-0.2,0-0.3c0-0.2-0.1-0.4-0.2-0.6c0,0,0-0.1,0-0.1
			c0,0,0.1,0,0.1,0c0.1,0.2,0.2,0.4,0.3,0.7c0,0.1,0,0.2,0,0.3c0,0,0,0.1,0,0.1c0,0,0,0.1,0,0.1c0.1-0.2,0.1-0.4,0.2-0.7
			c0.1-0.3,0.2-0.5,0.2-0.8c0.1-0.4,0-0.8-0.2-1.1c0,0,0-0.1,0-0.1c0,0,0.1,0,0.1,0c0.2,0.4,0.3,0.8,0.2,1.2c0,0.3-0.1,0.6-0.3,0.8
			C6.9,21.6,6.8,22,6.8,22.5C6.8,22.4,6.8,22.5,6.8,22.5C6.8,22.5,6.8,22.5,6.8,22.5z"/>
		<path style="clip-path:url(#SVGID_00000010302498897361658410000002128593769169467569_);fill:#FFFFFF;" d="M10.5,32.6
			C10.5,32.6,10.5,32.6,10.5,32.6c-0.7-0.9-1.4-1.9-1.7-3c-0.2-0.6-0.2-1.1-0.3-1.7c0-0.4-0.1-0.8-0.1-1.2c-0.1-0.3-0.1-0.6-0.2-0.9
			c-0.1-0.5-0.2-0.9-0.3-1.4c-0.4-0.5-0.4-1.2-0.4-1.8l0-1.7c0,0,0-0.1,0.1-0.1c0,0,0.1,0,0.1,0c0.3,0.4,0.4,1,0.4,1.7
			c0,0.2,0,0.5,0,0.7c0,0.3,0,0.7,0,1c0,0,0,0,0,0c0,0,0,0,0,0c0,0,0,0.1,0,0.1c0,0,0,0,0,0c0,0.4,0.2,0.9,0.3,1.3
			c0.1,0.3,0.2,0.6,0.2,0.9c0.1,0.4,0.1,0.8,0.1,1.2c0,0.6,0.1,1.1,0.3,1.7c0.3,1.1,1,2.1,1.7,2.9C10.6,32.5,10.6,32.6,10.5,32.6
			C10.5,32.6,10.5,32.6,10.5,32.6z M7.7,21.1l0,1.4c0,0.5,0,1.1,0.2,1.5c0-0.3,0-0.6,0-0.9c0-0.2,0-0.5,0-0.7
			C8,22,7.9,21.5,7.7,21.1z"/>
		<path style="clip-path:url(#SVGID_00000010302498897361658410000002128593769169467569_);fill:#FFFFFF;" d="M8.3,25.7
			C8.3,25.7,8.3,25.7,8.3,25.7C8.2,25.7,8.2,25.6,8.3,25.7c-0.1-0.7,0-1.4,0.1-2c0.1-0.7,0.2-1.5,0.7-2.2c0,0,0,0,0.1,0
			c0,0,0.1,0,0.1,0.1c0,0.2,0,0.4-0.1,0.6c0,0.1-0.1,0.2-0.1,0.3c0,0.2,0,0.5,0,0.7c0,0.1,0,0.2,0,0.3C9.1,24.3,8.8,25.1,8.3,25.7
			C8.3,25.7,8.3,25.7,8.3,25.7z M9.1,21.8c-0.4,0.6-0.5,1.3-0.5,1.9c-0.1,0.5-0.1,1.1-0.2,1.6c0.4-0.5,0.5-1.2,0.5-1.9
			c0-0.1,0-0.2,0-0.3c0-0.2,0-0.5,0-0.8c0-0.1,0.1-0.2,0.1-0.3C9,22.1,9,22,9.1,21.8z"/>
		<path style="clip-path:url(#SVGID_00000010302498897361658410000002128593769169467569_);fill:#FFFFFF;" d="M8.2,25.7
			C8.1,25.7,8.1,25.7,8.2,25.7c-0.5-0.3-1.1-0.6-1.5-1.1c-0.2-0.2-0.3-0.5-0.3-0.7l-0.8-1.8c0,0,0-0.1,0-0.1c0,0,0.1,0,0.1,0
			c0.6,0.6,1.1,1.3,1.4,2.1l0,0c0.1,0.1,0.1,0.3,0.2,0.4c0.1,0.1,0.1,0.1,0.2,0.2c0,0,0.1,0.1,0.1,0.1C7.8,25,7.9,25.1,8,25.3
			c0.1,0.1,0.1,0.2,0.2,0.3C8.2,25.6,8.2,25.7,8.2,25.7C8.2,25.7,8.2,25.7,8.2,25.7z M5.9,22.4l0.6,1.4c0.1,0.2,0.2,0.5,0.3,0.7
			c0.3,0.4,0.7,0.7,1.1,0.9c0,0,0,0,0,0c-0.1-0.2-0.2-0.4-0.4-0.5c0,0-0.1-0.1-0.1-0.1c-0.1-0.1-0.1-0.1-0.2-0.2
			c-0.1-0.1-0.2-0.3-0.2-0.4l0,0C6.7,23.5,6.3,22.9,5.9,22.4z"/>
		<path style="clip-path:url(#SVGID_00000010302498897361658410000002128593769169467569_);fill:#FFFFFF;" d="M8.7,27.5
			C8.7,27.5,8.7,27.5,8.7,27.5C8.6,27.5,8.6,27.5,8.7,27.5c0-0.4,0.1-0.9,0.3-1.3c0.1-0.4,0.3-0.8,0.3-1.1c0-0.1,0-0.3,0.1-0.4
			c0-0.2,0.1-0.5,0.1-0.7c0.1-0.4,0.4-0.8,0.7-0.9c0,0,0.1,0,0.1,0c0,0,0,0,0,0.1c0,0.3-0.1,0.7-0.2,1c-0.1,0.2-0.2,0.5-0.2,0.7
			c0,0.1,0,0.3-0.1,0.4c0,0.2,0,0.3-0.1,0.5C9.6,26.5,9.1,27,8.7,27.5C8.7,27.5,8.7,27.5,8.7,27.5z M10.1,23.3
			c-0.2,0.1-0.4,0.4-0.5,0.7c-0.1,0.2-0.1,0.4-0.1,0.7c0,0.1,0,0.3-0.1,0.4c-0.1,0.4-0.2,0.8-0.3,1.2c-0.1,0.3-0.2,0.6-0.3,0.8
			c0.3-0.4,0.6-0.9,0.7-1.4c0-0.2,0-0.3,0.1-0.5c0-0.1,0-0.3,0.1-0.4c0-0.2,0.1-0.5,0.2-0.7C10,23.9,10.1,23.6,10.1,23.3z"/>
		<path style="clip-path:url(#SVGID_00000010302498897361658410000002128593769169467569_);fill:#FFFFFF;" d="M8.6,27.6
			C8.6,27.6,8.6,27.6,8.6,27.6c-0.2-0.1-0.3-0.2-0.4-0.3c-0.2-0.2-0.4-0.3-0.6-0.4c-0.1-0.1-0.2-0.1-0.3-0.1c-0.1,0-0.3-0.1-0.4-0.2
			c-0.2-0.1-0.4-0.3-0.5-0.4c-0.3-0.3-0.7-0.7-1-1.1c-0.3-0.5-0.4-1-0.3-1.5c0,0,0,0,0-0.1c0,0,0.1,0,0.1,0c0.4,0.3,0.7,0.7,0.9,1.1
			c0,0.1,0.1,0.1,0.1,0.2c0.1,0.2,0.2,0.4,0.3,0.5c0.2,0.2,0.4,0.3,0.6,0.5c0.1,0.1,0.2,0.1,0.3,0.2c0.6,0.4,1,1.1,1.4,1.6
			C8.7,27.5,8.7,27.5,8.6,27.6C8.6,27.6,8.6,27.6,8.6,27.6z M5.2,23.6c-0.1,0.4,0.1,0.8,0.3,1.2c0.3,0.4,0.6,0.8,0.9,1.1
			c0.1,0.1,0.3,0.3,0.5,0.4c0.1,0.1,0.2,0.1,0.4,0.2c0.1,0,0.2,0.1,0.3,0.1c0.2,0.1,0.4,0.3,0.6,0.4c0,0,0,0,0,0
			C8,26.7,7.6,26.3,7.2,26c-0.1-0.1-0.2-0.1-0.3-0.2c-0.2-0.1-0.4-0.3-0.6-0.5C6.2,25.2,6.1,25,6,24.8C6,24.7,6,24.7,6,24.6
			C5.8,24.2,5.5,23.9,5.2,23.6z"/>
		<path style="clip-path:url(#SVGID_00000010302498897361658410000002128593769169467569_);fill:#FFFFFF;" d="M8.9,29.2
			C8.8,29.2,8.8,29.2,8.9,29.2C8.8,29.2,8.8,29.2,8.9,29.2c-0.2-0.5,0.1-1,0.3-1.4c0.1-0.2,0.2-0.3,0.3-0.5c0.1-0.1,0.1-0.3,0.2-0.4
			c0.1-0.2,0.2-0.5,0.3-0.7c0.1-0.1,0.2-0.2,0.2-0.3c0.1-0.1,0.1-0.2,0.2-0.2c0.2-0.3,0.3-0.7,0.4-1.1c0,0,0-0.1,0.1-0.1
			c0,0,0,0,0,0c0.1,0,0.1,0,0.2,0.1c0.1,0.1,0.1,0.2,0.1,0.4c-0.1,0.8-0.2,1.3-0.5,1.8c-0.2,0.4-0.4,0.7-0.7,1
			c-0.1,0.1-0.2,0.3-0.3,0.4c-0.2,0.3-0.4,0.6-0.6,0.9C9,29.1,8.9,29.2,8.9,29.2C8.9,29.2,8.9,29.2,8.9,29.2z M10.9,24.8
			c-0.1,0.4-0.2,0.7-0.4,1.1c-0.1,0.1-0.1,0.2-0.2,0.3c-0.1,0.1-0.2,0.2-0.2,0.3c-0.1,0.2-0.2,0.4-0.3,0.7c0,0.1-0.1,0.3-0.2,0.4
			c-0.1,0.2-0.2,0.3-0.3,0.5c-0.2,0.3-0.4,0.6-0.4,1c0.1-0.2,0.3-0.5,0.5-0.8c0.1-0.1,0.2-0.3,0.3-0.4c0.2-0.3,0.5-0.6,0.7-1
			c0.3-0.5,0.4-1,0.5-1.8C11,24.9,11,24.8,10.9,24.8z"/>
		<path style="clip-path:url(#SVGID_00000010302498897361658410000002128593769169467569_);fill:#FFFFFF;" d="M8.8,29.3
			C8.7,29.3,8.7,29.3,8.8,29.3c-0.2-0.2-0.2-0.3-0.3-0.4c-0.2-0.3-0.5-0.5-0.8-0.6c-0.1,0-0.1,0-0.2-0.1c-0.1,0-0.2-0.1-0.3-0.1
			C7,28,6.8,27.8,6.7,27.6c-0.1-0.1-0.2-0.2-0.3-0.3c0,0-0.1-0.1-0.1-0.1C6.2,27.2,6.1,27.1,6,27c-0.1-0.2-0.2-0.4,0-0.6
			c0,0,0.1,0,0.1,0c0.2,0.1,0.4,0.2,0.5,0.3l1.3,0.8c0.1,0.1,0.2,0.1,0.3,0.3c0.1,0.1,0.1,0.2,0.1,0.3c0,0,0,0,0,0.1
			c0.1,0.2,0.2,0.5,0.3,0.7c0,0,0.1,0.1,0.1,0.1C8.8,29.1,8.9,29.2,8.8,29.3C8.8,29.3,8.8,29.3,8.8,29.3C8.8,29.3,8.8,29.3,8.8,29.3
			z M6,26.6c0,0.1,0,0.2,0.1,0.3c0.1,0.1,0.2,0.1,0.2,0.2c0,0,0.1,0.1,0.1,0.1c0.1,0.1,0.2,0.2,0.3,0.3c0.1,0.2,0.3,0.3,0.5,0.4
			C7.3,28,7.4,28,7.5,28c0.1,0,0.1,0,0.2,0.1c0.2,0.1,0.3,0.2,0.5,0.3c0-0.1-0.1-0.1-0.1-0.2c0,0,0,0,0-0.1C8,28,8,27.9,8,27.9
			c-0.1-0.1-0.2-0.1-0.2-0.2l-1.3-0.8C6.3,26.8,6.2,26.7,6,26.6z"/>
		<path style="clip-path:url(#SVGID_00000010302498897361658410000002128593769169467569_);fill:#FFFFFF;" d="M9.8,31.5
			C9.7,31.5,9.7,31.4,9.8,31.5c-0.2-0.4-0.2-0.8-0.3-1.2c0-0.1,0-0.3,0-0.4c0-0.1,0.1-0.3,0.2-0.4c0,0,0-0.1,0.1-0.1
			c0.1-0.1,0.1-0.3,0.1-0.4c0-0.1,0.1-0.3,0.1-0.4c0.1-0.2,0.3-0.5,0.5-0.7c0,0,0.1,0,0.1,0c0,0,0,0.1,0,0.1
			c-0.1,0.2-0.1,0.5-0.1,0.7c0,0.1,0,0.3-0.1,0.4c-0.1,0.4-0.2,0.7-0.3,1C10,30.5,9.8,31,9.8,31.5C9.8,31.4,9.8,31.4,9.8,31.5
			C9.8,31.5,9.8,31.5,9.8,31.5z M10.4,28.1c-0.1,0.1-0.2,0.3-0.2,0.4c-0.1,0.1-0.1,0.3-0.1,0.4c0,0.1-0.1,0.3-0.2,0.4
			c0,0.1,0,0.1-0.1,0.1c-0.1,0.1-0.1,0.2-0.1,0.4c0,0.1,0,0.2,0,0.4c0,0.2,0.1,0.5,0.1,0.7c0.1-0.3,0.1-0.6,0.2-0.9
			c0.1-0.3,0.2-0.7,0.3-1c0-0.1,0-0.3,0.1-0.4C10.3,28.4,10.3,28.2,10.4,28.1z"/>
		<path style="clip-path:url(#SVGID_00000010302498897361658410000002128593769169467569_);fill:#FFFFFF;" d="M17.8,8.9
			c-0.1,0-0.1-0.1-0.2-0.2c0,0,0-0.1,0-0.1c0.1-0.1,0.1-0.2,0.2-0.2c0-0.5,0-1,0.1-1.4c0.1-0.6,0.4-1.3,0.8-2c0.6-1.1,1.4-2,2.3-2.8
			c1-0.8,2-1.4,3.1-1.6c0,0,0.1,0,0.1,0.1c0,0,0,0.1-0.1,0.1c-2,0.4-4,2-5.3,4.3c-0.4,0.7-0.7,1.4-0.8,2C18,7.5,18,8,18,8.4
			c0,0,0.1,0,0.1,0c0.1,0,0.1,0.1,0.1,0.2C18.2,8.8,18.1,9,18,9C17.9,9,17.9,9,17.8,8.9z M17.8,8.7c0,0.1,0.1,0.1,0.2,0.1
			c0.1,0,0.1-0.1,0.1-0.1c0,0,0-0.1-0.1-0.1c0,0,0,0-0.1,0c0,0,0,0,0,0C17.9,8.6,17.8,8.7,17.8,8.7z"/>
		<path style="clip-path:url(#SVGID_00000010302498897361658410000002128593769169467569_);fill:#FFFFFF;" d="M17.1,7.7
			C17.1,7.7,17,7.6,17.1,7.7c0-0.5,0.2-0.9,0.5-1.1c0.1-0.1,0.2-0.2,0.3-0.2c0.2-0.1,0.3-0.1,0.5-0.1c0,0,0,0,0,0
			c0.2,0.1,0.4,0.4,0.5,0.7C19,7.2,19,7.5,19,7.8c0,0,0,0.1-0.1,0.1c0,0-0.1,0-0.1-0.1c0-0.3,0-0.6-0.1-0.8
			c-0.1-0.3-0.2-0.5-0.4-0.6c-0.1,0-0.3,0-0.4,0.1c-0.1,0-0.2,0.1-0.3,0.2c-0.2,0.3-0.4,0.6-0.5,1C17.2,7.7,17.2,7.7,17.1,7.7
			C17.1,7.7,17.1,7.7,17.1,7.7z"/>
		<path style="clip-path:url(#SVGID_00000010302498897361658410000002128593769169467569_);fill:#FFFFFF;" d="M19.5,6.7
			C19.4,6.7,19.4,6.6,19.5,6.7c0-0.6-0.2-1.2-0.6-1.6c-0.3-0.1-0.5-0.1-0.7,0c-0.2,0-0.4,0.1-0.5,0.3c0,0-0.1,0-0.1,0
			c0,0,0-0.1,0-0.1c0.1-0.2,0.3-0.3,0.6-0.4c0.2,0,0.4,0,0.7,0c0,0,0,0,0,0c0.4,0.4,0.7,1,0.6,1.6C19.6,6.7,19.5,6.7,19.5,6.7
			C19.5,6.7,19.5,6.7,19.5,6.7z"/>
		<path style="clip-path:url(#SVGID_00000010302498897361658410000002128593769169467569_);fill:#FFFFFF;" d="M20.1,5.5
			C20,5.5,20,5.5,20.1,5.5C20,5.5,20,5.5,20.1,5.5l-0.2-0.8c-0.1-0.2-0.3-0.4-0.4-0.6C19.2,4.1,18.9,4,18.6,4c-0.1,0-0.2,0-0.4,0.1
			c-0.1,0-0.2,0.1-0.3,0.1c0,0-0.1,0-0.1,0c0,0,0-0.1,0-0.1C18,4.1,18.1,4.1,18.2,4c0.1-0.1,0.3-0.1,0.4-0.1c0.3,0,0.6,0,0.9,0.1
			c0,0,0,0,0,0c0.2,0.2,0.4,0.4,0.5,0.7l0.2,0.7c0,0,0,0,0,0C20.2,5.5,20.2,5.5,20.1,5.5C20.1,5.5,20.1,5.5,20.1,5.5z"/>
		<path style="clip-path:url(#SVGID_00000010302498897361658410000002128593769169467569_);fill:#FFFFFF;" d="M18.3,3.7
			c-0.1,0-0.1-0.1-0.1-0.1c0-0.1,0-0.1,0-0.2c0,0,0,0,0.1,0c0.1,0,0.2,0,0.3,0C18.7,3.1,19,3,19.4,3c0.3,0,0.6,0.1,0.9,0.1
			c0,0,0.1,0.1,0.1,0.1c0,0-0.1,0.1-0.1,0.1c-0.3-0.1-0.5-0.1-0.8-0.1c-0.3,0-0.5,0.1-0.7,0.2c0,0,0,0,0,0c0,0.1,0,0.1,0,0.2
			c-0.1,0.1-0.2,0.1-0.2,0.1C18.3,3.7,18.3,3.7,18.3,3.7z M18.3,3.4C18.3,3.5,18.3,3.5,18.3,3.4c0,0.1,0.1,0.1,0.1,0.1
			c0,0,0.1,0,0.1,0c0,0,0,0,0,0c0,0,0,0,0,0c0,0,0,0,0,0C18.4,3.4,18.3,3.4,18.3,3.4z"/>
		<path style="clip-path:url(#SVGID_00000010302498897361658410000002128593769169467569_);fill:#FFFFFF;" d="M17.7,4.6
			C17.6,4.6,17.6,4.6,17.7,4.6c-0.2-0.1-0.2-0.3-0.2-0.4c0,0,0,0,0,0c0.1,0,0.3,0,0.4,0c0,0,0,0,0,0c0.1,0,0.1,0.1,0.1,0.2
			c0,0.1,0,0.2-0.1,0.2C17.9,4.7,17.8,4.7,17.7,4.6z M17.7,4.3c0,0.1,0,0.1,0.1,0.2c0,0,0.1,0,0.2,0c0,0,0-0.1,0-0.1c0,0,0,0,0-0.1
			C17.8,4.3,17.7,4.3,17.7,4.3z"/>
		<path style="clip-path:url(#SVGID_00000010302498897361658410000002128593769169467569_);fill:#FFFFFF;" d="M20,5.9
			c-0.1,0-0.1-0.1-0.2-0.1c0,0,0,0,0-0.1c0.1-0.1,0.2-0.2,0.3-0.3c0,0,0,0,0,0c0,0,0.1,0,0.1,0c0.1,0,0.1,0.1,0.1,0.2
			c0,0.1-0.1,0.2-0.2,0.3C20.1,5.9,20,5.9,20,5.9z M20,5.7c0,0,0.1,0.1,0.1,0.1c0.1,0,0.1-0.1,0.1-0.1c0,0,0-0.1,0-0.1
			C20.1,5.6,20,5.7,20,5.7z"/>
		<path style="clip-path:url(#SVGID_00000010302498897361658410000002128593769169467569_);fill:#FFFFFF;" d="M19.4,7
			c-0.1,0-0.1-0.1-0.2-0.1c0,0,0-0.1,0-0.1c0.1-0.1,0.2-0.2,0.3-0.2c0,0,0.1,0,0.1,0c0.1,0,0.1,0.1,0.1,0.2c0,0.1-0.1,0.2-0.3,0.2
			C19.5,7.1,19.4,7,19.4,7z M19.4,6.9c0,0,0.1,0.1,0.1,0.1c0.1,0,0.1-0.1,0.1-0.1c0,0,0-0.1,0-0.1c0,0,0,0,0,0
			C19.5,6.8,19.4,6.8,19.4,6.9z M19.5,6.7L19.5,6.7L19.5,6.7z"/>
		<path style="clip-path:url(#SVGID_00000010302498897361658410000002128593769169467569_);fill:#FFFFFF;" d="M17.5,5.8
			C17.5,5.8,17.5,5.8,17.5,5.8C17.4,5.8,17.4,5.7,17.5,5.8c-0.1-0.2,0-0.4,0.1-0.5c0,0,0.1,0,0.1,0c0.1,0,0.1,0.1,0.2,0.2
			c0,0.1,0,0.1,0,0.2c0,0.1-0.1,0.1-0.1,0.1C17.6,5.8,17.5,5.8,17.5,5.8z M17.6,5.4c0,0.1-0.1,0.1-0.1,0.2c0,0,0,0,0,0
			c0,0,0.1,0,0.1-0.1C17.7,5.6,17.7,5.5,17.6,5.4C17.7,5.5,17.6,5.5,17.6,5.4z"/>
		<path style="clip-path:url(#SVGID_00000010302498897361658410000002128593769169467569_);fill:#FFFFFF;" d="M17,8.1
			c-0.1,0-0.1-0.1-0.1-0.1c0,0,0,0,0-0.1c0-0.1,0.1-0.2,0.3-0.3c0.1,0,0.2,0,0.2,0.1c0.1,0.1,0.1,0.3,0,0.4
			C17.2,8.1,17.1,8.1,17,8.1C17,8.1,17,8.1,17,8.1z M17,7.9C17,7.9,17,7.9,17,7.9c0.1,0.1,0.2,0,0.2,0c0,0,0-0.1,0-0.2c0,0,0,0,0,0
			l0,0C17.1,7.8,17,7.8,17,7.9z M17.1,7.7L17.1,7.7L17.1,7.7z"/>
		<path style="clip-path:url(#SVGID_00000010302498897361658410000002128593769169467569_);fill:#FFFFFF;" d="M18.7,8.3
			c-0.1,0-0.1-0.1-0.2-0.2c0,0,0-0.1,0-0.1c0.1-0.1,0.2-0.2,0.3-0.2l0,0c0.1,0,0.1,0,0.2,0C19.1,7.9,19.2,8,19.1,8
			c0,0.1-0.1,0.2-0.3,0.2C18.8,8.3,18.8,8.3,18.7,8.3z M18.7,8.1c0,0,0.1,0.1,0.1,0.1C18.9,8.1,19,8.1,19,8c0,0,0-0.1,0-0.1
			c0,0,0,0,0,0c0,0,0,0,0,0C18.9,7.9,18.8,8,18.7,8.1z M18.9,7.8L18.9,7.8L18.9,7.8z"/>
		<path style="clip-path:url(#SVGID_00000010302498897361658410000002128593769169467569_);fill:#FFFFFF;" d="M15.5,27.5
			c0-0.1,0.1-0.1,0.2-0.2c0,0,0.1,0,0.1,0c0.1,0.1,0.1,0.2,0.2,0.2c0.5,0.1,1,0.2,1.4,0.4c0.6,0.2,1.2,0.6,1.9,1.2
			c1,0.8,1.8,1.7,2.4,2.7c0.7,1.1,1,2.2,1.1,3.3c0,0,0,0.1-0.1,0.1c0,0-0.1,0-0.1-0.1c-0.1-2.1-1.4-4.2-3.4-5.9
			c-0.7-0.5-1.3-0.9-1.8-1.1c-0.4-0.2-0.8-0.3-1.3-0.3c0,0,0,0.1-0.1,0.1c-0.1,0.1-0.1,0.1-0.2,0.1c-0.1,0-0.3-0.2-0.3-0.3
			C15.5,27.6,15.5,27.5,15.5,27.5z M15.7,27.5c-0.1,0-0.1,0.1-0.1,0.2c0,0.1,0.1,0.1,0.1,0.2c0,0,0.1,0,0.1,0c0,0,0,0,0-0.1
			c0,0,0,0,0,0C15.8,27.6,15.8,27.6,15.7,27.5z"/>
		<path style="clip-path:url(#SVGID_00000010302498897361658410000002128593769169467569_);fill:#FFFFFF;" d="M16.9,27
			C16.9,27,16.9,26.9,16.9,27c0.5,0.1,0.8,0.3,1.1,0.6c0.1,0.1,0.2,0.2,0.2,0.3c0.1,0.2,0,0.4,0,0.5c0,0,0,0,0,0
			c-0.2,0.2-0.5,0.3-0.8,0.4c-0.3,0-0.6,0-0.9-0.1c0,0-0.1,0-0.1-0.1c0,0,0-0.1,0.1-0.1c0.3,0,0.6,0.1,0.8,0.1
			c0.3,0,0.5-0.1,0.7-0.3c0-0.1,0-0.3,0-0.4c0-0.1-0.1-0.2-0.2-0.3c-0.2-0.3-0.5-0.5-0.9-0.6C16.9,27.1,16.9,27,16.9,27
			C16.9,27,16.9,27,16.9,27z"/>
		<path style="clip-path:url(#SVGID_00000010302498897361658410000002128593769169467569_);fill:#FFFFFF;" d="M17.5,29.5
			C17.5,29.5,17.6,29.4,17.5,29.5c0.6,0.1,1.2,0,1.6-0.3c0.1-0.3,0.1-0.4,0.1-0.6c0-0.2-0.1-0.4-0.2-0.6c0,0,0-0.1,0-0.1
			c0,0,0.1,0,0.1,0c0.2,0.2,0.3,0.4,0.3,0.7c0,0.2,0,0.4-0.2,0.7c0,0,0,0,0,0c-0.5,0.4-1.1,0.5-1.7,0.3
			C17.5,29.6,17.5,29.6,17.5,29.5C17.5,29.5,17.5,29.5,17.5,29.5z"/>
		<path style="clip-path:url(#SVGID_00000010302498897361658410000002128593769169467569_);fill:#FFFFFF;" d="M18.6,30.3
			C18.6,30.2,18.6,30.2,18.6,30.3C18.6,30.2,18.6,30.2,18.6,30.3l0.8-0.1c0.3,0,0.5-0.2,0.7-0.3c0.1-0.2,0.2-0.5,0.2-0.8
			c0-0.1,0-0.2,0-0.4c0-0.1-0.1-0.2-0.1-0.3c0,0,0-0.1,0-0.1c0,0,0.1,0,0.1,0c0,0.1,0.1,0.2,0.1,0.3c0,0.2,0.1,0.3,0.1,0.4
			c0,0.3-0.1,0.6-0.3,0.8c0,0,0,0,0,0c-0.2,0.2-0.5,0.4-0.8,0.4l-0.7,0.1c0,0,0,0,0,0C18.6,30.4,18.5,30.4,18.6,30.3
			C18.5,30.3,18.5,30.3,18.6,30.3z"/>
		<path style="clip-path:url(#SVGID_00000010302498897361658410000002128593769169467569_);fill:#FFFFFF;" d="M20.7,28.8
			c0,0,0.1-0.1,0.1-0.1c0.1,0,0.1,0,0.2,0c0,0,0,0,0,0.1c0,0.1,0,0.2,0,0.3c0.2,0.3,0.2,0.6,0.2,0.9c0,0.3-0.2,0.6-0.3,0.8
			c0,0-0.1,0.1-0.1,0c0,0-0.1-0.1,0-0.1c0.1-0.2,0.2-0.5,0.3-0.8c0-0.3,0-0.5-0.1-0.8c0,0,0,0,0,0c-0.1,0-0.1,0-0.2,0
			C20.6,29.1,20.6,29,20.7,28.8C20.6,28.9,20.6,28.8,20.7,28.8z M20.9,28.8C20.9,28.8,20.9,28.8,20.9,28.8c-0.1,0-0.1,0.1-0.1,0.1
			c0,0,0,0.1,0,0.1c0,0,0,0,0,0c0,0,0,0,0,0c0,0,0,0,0,0C20.9,28.9,20.9,28.9,20.9,28.8z"/>
		<path style="clip-path:url(#SVGID_00000010302498897361658410000002128593769169467569_);fill:#FFFFFF;" d="M19.8,28
			C19.8,28,19.8,28,19.8,28c0.2-0.1,0.3-0.2,0.4-0.1c0,0,0,0,0,0.1c0,0.1,0,0.3-0.1,0.4c0,0,0,0,0,0c0,0.1-0.1,0.1-0.2,0.1
			c-0.1,0-0.1,0-0.2-0.1C19.7,28.3,19.8,28.1,19.8,28z M20.1,28.1c-0.1,0-0.1,0-0.2,0c0,0-0.1,0.1,0,0.2c0,0,0,0,0.1,0
			c0,0,0,0,0.1,0C20.1,28.2,20.1,28.2,20.1,28.1z"/>
		<path style="clip-path:url(#SVGID_00000010302498897361658410000002128593769169467569_);fill:#FFFFFF;" d="M18.2,30.1
			c0-0.1,0.1-0.1,0.2-0.1c0,0,0.1,0,0.1,0c0.1,0.1,0.2,0.2,0.2,0.3c0,0,0,0,0,0c0,0,0,0.1,0,0.1c-0.1,0.1-0.2,0.1-0.2,0.1
			c-0.1,0-0.2-0.1-0.2-0.3C18.1,30.2,18.2,30.1,18.2,30.1z M18.4,30.1c0,0-0.1,0.1-0.1,0.1c0,0.1,0,0.1,0.1,0.1c0,0,0.1,0,0.1,0
			C18.5,30.3,18.4,30.2,18.4,30.1z"/>
		<path style="clip-path:url(#SVGID_00000010302498897361658410000002128593769169467569_);fill:#FFFFFF;" d="M17.2,29.3
			c0-0.1,0.1-0.1,0.2-0.1c0,0,0.1,0,0.1,0c0.1,0.1,0.1,0.2,0.2,0.3c0,0,0,0.1,0,0.1c0,0.1-0.1,0.1-0.2,0.1c-0.1,0-0.2-0.2-0.2-0.3
			C17.1,29.4,17.1,29.4,17.2,29.3z M17.3,29.4c0,0-0.1,0.1-0.1,0.1c0,0.1,0,0.1,0.1,0.1c0,0,0.1,0,0.1,0c0,0,0,0,0,0
			C17.4,29.5,17.4,29.4,17.3,29.4z M17.5,29.6L17.5,29.6L17.5,29.6z"/>
		<path style="clip-path:url(#SVGID_00000010302498897361658410000002128593769169467569_);fill:#FFFFFF;" d="M18.7,27.7
			C18.7,27.7,18.7,27.6,18.7,27.7C18.7,27.6,18.8,27.6,18.7,27.7c0.2,0,0.4,0,0.5,0.2c0,0,0,0.1,0,0.1c0,0.1-0.1,0.1-0.2,0.1
			c-0.1,0-0.1,0-0.2,0c-0.1,0-0.1-0.1-0.1-0.2C18.7,27.8,18.7,27.7,18.7,27.7z M19,27.9c0,0-0.1-0.1-0.2-0.1c0,0,0,0,0,0
			c0,0,0,0.1,0,0.1C18.9,27.9,18.9,27.9,19,27.9C19,27.9,19,27.9,19,27.9z"/>
		<path style="clip-path:url(#SVGID_00000010302498897361658410000002128593769169467569_);fill:#FFFFFF;" d="M16.5,26.8
			c0-0.1,0.1-0.1,0.2-0.1c0,0,0,0,0.1,0c0.1,0.1,0.2,0.2,0.2,0.3c0,0.1,0,0.2-0.1,0.2c-0.1,0-0.3,0-0.3-0.1
			C16.5,27.1,16.5,27,16.5,26.8C16.5,26.9,16.5,26.8,16.5,26.8z M16.7,26.8C16.7,26.9,16.6,26.9,16.7,26.8c-0.1,0.1-0.1,0.2-0.1,0.2
			c0,0,0.1,0.1,0.2,0c0,0,0,0,0,0l0,0C16.8,27,16.8,26.9,16.7,26.8z M16.9,27L16.9,27L16.9,27z"/>
		<path style="clip-path:url(#SVGID_00000010302498897361658410000002128593769169467569_);fill:#FFFFFF;" d="M16.1,28.5
			c0-0.1,0.1-0.1,0.2-0.1c0,0,0.1,0,0.1,0c0.1,0.1,0.2,0.2,0.2,0.3l0,0c0,0.1,0,0.1-0.1,0.2C16.4,29,16.3,29,16.2,29
			c-0.1,0-0.2-0.2-0.2-0.3C16,28.6,16,28.6,16.1,28.5z M16.2,28.5c0,0-0.1,0.1-0.1,0.1c0,0.1,0,0.1,0.1,0.1c0,0,0.1,0,0.1,0
			c0,0,0,0,0,0c0,0,0,0,0,0C16.3,28.7,16.3,28.6,16.2,28.5z M16.4,28.8L16.4,28.8L16.4,28.8z"/>
	</g>
	<path class="st1" d="M16.5,31.7c-2.1,0-4-0.4-5.9-1.2c-1.8-0.8-3.4-1.9-4.8-3.3c-1.4-1.4-2.5-3-3.3-4.8c-0.8-1.9-1.2-3.9-1.2-5.9
		c0-2.1,0.4-4,1.2-5.9c0.8-1.8,1.9-3.4,3.3-4.8c1.4-1.4,3-2.5,4.8-3.3c1.9-0.8,3.9-1.2,5.9-1.2s4,0.4,5.9,1.2
		c1.8,0.8,3.4,1.9,4.8,3.3c1.4,1.4,2.5,3,3.3,4.8c0.8,1.9,1.2,3.9,1.2,5.9c0,2.1-0.4,4-1.2,5.9c-0.8,1.8-1.9,3.4-3.3,4.8
		c-1.4,1.4-3,2.5-4.8,3.3C20.5,31.3,18.6,31.7,16.5,31.7z M16.5,1.4C8.2,1.4,1.4,8.2,1.4,16.5s6.8,15.1,15.1,15.1
		s15.1-6.8,15.1-15.1S24.8,1.4,16.5,1.4z"/>
	<path class="st2" d="M16.5,33c-2.2,0-4.4-0.4-6.4-1.3c-2-0.8-3.7-2-5.2-3.5c-1.5-1.5-2.7-3.3-3.5-5.2c-0.9-2-1.3-4.2-1.3-6.4
		s0.4-4.4,1.3-6.4c0.8-2,2-3.7,3.5-5.2c1.5-1.5,3.3-2.7,5.2-3.5c2-0.9,4.2-1.3,6.4-1.3s4.4,0.4,6.4,1.3c2,0.8,3.7,2,5.2,3.5
		c1.5,1.5,2.7,3.3,3.5,5.2c0.9,2,1.3,4.2,1.3,6.4s-0.4,4.4-1.3,6.4c-0.8,2-2,3.7-3.5,5.2c-1.5,1.5-3.3,2.7-5.2,3.5
		C20.9,32.6,18.7,33,16.5,33z M16.5,0.2c-9,0-16.3,7.3-16.3,16.3s7.3,16.3,16.3,16.3s16.3-7.3,16.3-16.3S25.5,0.2,16.5,0.2z"/>
	<path class="st1" d="M16.5,16.2C16.5,16.2,16.5,16.2,16.5,16.2C16.5,16.2,16.5,16.2,16.5,16.2C16.6,16.2,16.6,16.2,16.5,16.2
		C16.6,16.2,16.6,16.2,16.5,16.2C16.6,16.2,16.6,16.2,16.5,16.2C16.6,16.2,16.6,16.2,16.5,16.2c0.1,0,0.1,0,0.1,0c0,0,0,0,0,0
		c0,0,0,0,0,0c0,0,0,0,0,0c0,0,0,0,0-0.1c0,0,0-0.1,0-0.2c0-0.1,0-0.1,0-0.2c0,0,0-0.1,0-0.1c0,0,0,0,0,0c0,0,0,0,0,0c0,0,0,0,0,0
		c0,0,0,0,0,0c0,0,0,0,0,0s0,0,0,0c0,0,0,0,0,0c0,0,0,0,0,0c0,0,0,0,0,0c0,0,0,0,0,0c0,0,0,0,0,0.1c0,0,0,0.1,0,0.2
		C16.5,16,16.5,16,16.5,16.2C16.5,16.1,16.5,16.2,16.5,16.2L16.5,16.2z"/>
	<path class="st1" d="M12.1,25.1C12.1,25.1,12,25.1,12.1,25.1C12,25,12,25,12,24.9c0,0,0-0.1-0.1-0.1c-0.9-1.2-1.4-2.7-1.4-4.5
		c0-1.5,0.4-3,1-4.4c0.1-0.1,0.1-0.3,0.2-0.4c0.1-0.2,0.1-0.3,0.2-0.5c1-2.1,0.5-4.6,0.5-4.7c0-0.1,0-0.1,0.1-0.1
		c0.1,0,0.1,0,0.1,0.1c0,0,0.5,2.6-0.6,4.8c-0.1,0.1-0.1,0.3-0.2,0.5c-0.1,0.1-0.1,0.3-0.2,0.4c-1.8,3.8-0.9,7,0.4,8.7
		c0,0.1,0.1,0.1,0.1,0.2c0,0,0,0,0,0.1C12.2,25,12.2,25,12.1,25.1C12.1,25.1,12.1,25.1,12.1,25.1z"/>
	<path class="st1" d="M21.1,25.1C21.1,25.1,21.1,25.1,21.1,25.1C21,25,21,25,21,24.9c0,0,0,0,0-0.1c0-0.1,0-0.1,0.1-0.2
		c1.3-1.6,2.2-4.9,0.4-8.7c-0.1-0.1-0.1-0.3-0.2-0.4c-0.1-0.2-0.1-0.3-0.2-0.5c-1.1-2.2-0.6-4.8-0.6-4.8c0-0.1,0.1-0.1,0.1-0.1
		c0.1,0,0.1,0.1,0.1,0.1c0,0-0.5,2.5,0.5,4.7c0.1,0.2,0.1,0.3,0.2,0.5c0.1,0.1,0.1,0.3,0.2,0.4c0.7,1.4,1,2.9,1,4.4
		c0,1.7-0.5,3.3-1.4,4.5c0,0,0,0.1-0.1,0.1C21.2,25,21.2,25,21.1,25.1C21.2,25.1,21.1,25.1,21.1,25.1z"/>
	<path class="st1" d="M16.7,25.1C16.6,25.1,16.6,25.1,16.7,25.1C16.6,25.1,16.6,25,16.7,25.1c0.7-5.7-2-6.2-2-6.2
		c0,0-0.1-0.1-0.1-0.1c0,0,0.1-0.1,0.1-0.1c0,0,0.7,0.1,1.4,1C16.8,20.8,17.1,22.6,16.7,25.1C16.7,25,16.7,25.1,16.7,25.1z"/>
	<path class="st1" d="M18.5,18.7c0,0-0.7,0.1-1.4,1c-0.3,0.4-0.5,0.8-0.6,1.3l0.1,0.3c0.1-0.6,0.3-1.1,0.6-1.6
		c0.6-0.8,1.2-0.9,1.3-0.9C18.6,18.9,18.6,18.8,18.5,18.7C18.6,18.7,18.6,18.7,18.5,18.7z"/>
	<path class="st1" d="M15.2,19c0,0,1.3-1.2,2.8,0c0,0-1,0.6-1.4,2.1C16.6,21.1,16.1,19.5,15.2,19z"/>
</g>
</svg>
