<svg xmlns="http://www.w3.org/2000/svg" xmlns:xlink="http://www.w3.org/1999/xlink" width="107.04" height="125.625" viewBox="0 0 107.04 125.625">
  <defs>
    <clipPath id="clip-path">
      <circle id="Ellipse_19" data-name="Ellipse 19" cx="42.433" cy="42.433" r="42.433" fill="none"/>
    </clipPath>
  </defs>
  <g id="Groupe_289" data-name="Groupe 289" transform="translate(-1210.795 203.354)">
    <g id="Groupe_288" data-name="Groupe 288" transform="translate(1223.613 -199.525)">
      <g id="Groupe_287" data-name="Groupe 287" transform="translate(0 0)" clip-path="url(#clip-path)">
        <path id="Tracé_303" data-name="Tracé 303" d="M1499.546-69.075a.212.212,0,0,1-.2-.137c-1.639-4.287-2.2-7.776-1.774-10.979a29.612,29.612,0,0,1,2.99-8.5c.211-.449.423-.9.63-1.347,1.885-4.094,3.907-9.458,2.8-14.64a27.8,27.8,0,0,0-2.079-5.6,26.411,26.411,0,0,1-2.178-6.043,26.426,26.426,0,0,1,.02-7.3c.075-.781.152-1.588.2-2.379a79.443,79.443,0,0,0-.2-10.156.213.213,0,0,1,.2-.226.211.211,0,0,1,.225.2,79.778,79.778,0,0,1,.2,10.211c-.052.8-.13,1.607-.2,2.391a26.108,26.108,0,0,0-.026,7.183,26.087,26.087,0,0,0,2.147,5.944,28.115,28.115,0,0,1,2.108,5.684c1.134,5.3-.916,10.753-2.829,14.907-.207.45-.419.9-.631,1.35a29.3,29.3,0,0,0-2.953,8.379c-.419,3.13.137,6.553,1.749,10.771a.212.212,0,0,1-.123.274A.207.207,0,0,1,1499.546-69.075Z" transform="translate(-1431.028 151.064)" fill="#fff"/>
        <path id="Tracé_304" data-name="Tracé 304" d="M1503.746-135.3h0a.213.213,0,0,1-.191-.123c-.065-.14-.133-.278-.2-.414a7.1,7.1,0,0,1-.577-1.435,6.97,6.97,0,0,1-.146-1.387l-.09-2.449c-.128-3.472-.261-7.062.668-10.5a.214.214,0,0,1,.211-.157.213.213,0,0,1,.2.168,22.983,22.983,0,0,0,1.095,3.636l.094.237a9.176,9.176,0,0,1,.442,1.285,9.148,9.148,0,0,1,.146,2.359c-.07,2.785-.15,5.943-1.46,8.662A.213.213,0,0,1,1503.746-135.3Zm-.337-15.338a38.119,38.119,0,0,0-.444,9.514l.09,2.449a6.676,6.676,0,0,0,.134,1.3,6.687,6.687,0,0,0,.546,1.348l.005.011c1.093-2.546,1.167-5.477,1.233-8.08a8.818,8.818,0,0,0-.135-2.25,8.8,8.8,0,0,0-.422-1.225c-.032-.08-.064-.159-.1-.239A23.344,23.344,0,0,1,1503.409-150.634Z" transform="translate(-1434.656 162.194)" fill="#fff"/>
        <path id="Tracé_305" data-name="Tracé 305" d="M1506.029-116.1h-.013a.212.212,0,0,1-.2-.2,9.416,9.416,0,0,1,1.125-4.344,14.981,14.981,0,0,0,.983-2.7,14.5,14.5,0,0,0,.22-1.473,9.682,9.682,0,0,1,.453-2.292,9.808,9.808,0,0,1,.47-1.02,6.055,6.055,0,0,0,.6-1.471,6.5,6.5,0,0,0,0-1.948,4.651,4.651,0,0,1,.271-2.753.213.213,0,0,1,.21-.11.212.212,0,0,1,.182.152c.619,2.138,1.129,4.224.589,6.245-.072.269-.162.534-.25.79a8.262,8.262,0,0,0-.311,1.061,8.475,8.475,0,0,0-.118,1.189,6.6,6.6,0,0,1-.226,1.643,6.623,6.623,0,0,1-.655,1.348,6.591,6.591,0,0,0-.594,1.19,6.867,6.867,0,0,0-.209.858,4.288,4.288,0,0,1-.483,1.47,4.637,4.637,0,0,1-.9.973,2.453,2.453,0,0,0-.927,1.222A.212.212,0,0,1,1506.029-116.1Zm4.061-17.426a5.992,5.992,0,0,0-.006,1.933,6.815,6.815,0,0,1,0,2.078,6.464,6.464,0,0,1-.633,1.576,9.591,9.591,0,0,0-.451.975,9.215,9.215,0,0,0-.429,2.193,14.846,14.846,0,0,1-.227,1.517,15.321,15.321,0,0,1-1.009,2.782,11.582,11.582,0,0,0-1.069,3.263,6.512,6.512,0,0,1,.619-.6,4.341,4.341,0,0,0,.823-.879,3.924,3.924,0,0,0,.427-1.328,7.2,7.2,0,0,1,.223-.911,7.027,7.027,0,0,1,.63-1.268,6.228,6.228,0,0,0,.617-1.261,6.2,6.2,0,0,0,.207-1.538,8.74,8.74,0,0,1,.126-1.25,8.685,8.685,0,0,1,.326-1.116c.085-.249.173-.507.241-.762A10.329,10.329,0,0,0,1510.09-133.521Z" transform="translate(-1437.084 149.636)" fill="#fff"/>
        <path id="Tracé_306" data-name="Tracé 306" d="M1491.922-123.446a.212.212,0,0,1-.136-.049c-1.268-1.056-2.767-2.509-3.114-4.386a8.994,8.994,0,0,1-.106-.935,6.494,6.494,0,0,0-.153-1.133,6.512,6.512,0,0,0-.576-1.347,8.119,8.119,0,0,1-.547-1.215,8.054,8.054,0,0,1-.056-3.588,15.373,15.373,0,0,0,.175-1.892,14.91,14.91,0,0,0-.166-1.987,9.731,9.731,0,0,1-.06-3.142.213.213,0,0,1,.18-.169.213.213,0,0,1,.218.116,12.32,12.32,0,0,1,1.293,5.459c0,.312-.011.629-.022.935a9.113,9.113,0,0,0,.117,2.351,9.126,9.126,0,0,0,.435,1.284c.073.184.148.374.217.564a10.906,10.906,0,0,1,.618,2.808l.011.135a3.048,3.048,0,0,0,.144.844,3.023,3.023,0,0,0,.341.6c.08.119.163.241.236.37a5.854,5.854,0,0,1,.586,2.158,4.335,4.335,0,0,0,.538,1.887.212.212,0,0,1-.03.278A.212.212,0,0,1,1491.922-123.446Zm-4.412-18.867a12.536,12.536,0,0,0,.155,2.282,15.242,15.242,0,0,1,.169,2.044,15.615,15.615,0,0,1-.179,1.945,7.628,7.628,0,0,0,.039,3.4,7.686,7.686,0,0,0,.52,1.151,6.928,6.928,0,0,1,.611,1.436,6.93,6.93,0,0,1,.166,1.206,8.533,8.533,0,0,0,.1.891,6.608,6.608,0,0,0,2.256,3.516,9.6,9.6,0,0,1-.209-1.168,5.537,5.537,0,0,0-.534-2.005c-.066-.115-.14-.226-.219-.343a3.385,3.385,0,0,1-.386-.682,3.4,3.4,0,0,1-.171-.962l-.01-.132a10.493,10.493,0,0,0-.594-2.7c-.067-.185-.141-.372-.213-.553a9.383,9.383,0,0,1-.454-1.345,9.429,9.429,0,0,1-.127-2.462c.011-.3.022-.615.022-.919A11.9,11.9,0,0,0,1487.51-142.314Z" transform="translate(-1423.518 156.062)" fill="#fff"/>
        <path id="Tracé_307" data-name="Tracé 307" d="M1510.08-99.958a.212.212,0,0,1-.18-.1c-.834-1.323-.1-2.973.261-3.621.2-.358.422-.707.639-1.044a8.216,8.216,0,0,0,1.07-2.048,8.214,8.214,0,0,0,.209-.974,8.049,8.049,0,0,1,.247-1.106,8.018,8.018,0,0,1,.807-1.619c.138-.232.282-.473.409-.712a16.539,16.539,0,0,0,1.414-4.914,17.056,17.056,0,0,0,.341-2.77.212.212,0,0,1,.182-.208.212.212,0,0,1,.234.147c.934,2.992.116,6.291-.542,8.942a19,19,0,0,1-1.5,4.445,19.353,19.353,0,0,1-1.547,2.324,11.285,11.285,0,0,0-1.838,3.109.212.212,0,0,1-.176.147Zm5.528-17.485c-.065.481-.15.956-.234,1.423a16.851,16.851,0,0,1-1.457,5.039c-.132.249-.278.494-.42.731a7.592,7.592,0,0,0-.767,1.532,7.676,7.676,0,0,0-.232,1.047,8.663,8.663,0,0,1-.221,1.024,8.65,8.65,0,0,1-1.119,2.156c-.213.331-.434.672-.624,1.018a3.757,3.757,0,0,0-.478,2.756,13.787,13.787,0,0,1,1.723-2.75,19.006,19.006,0,0,0,1.514-2.272,18.69,18.69,0,0,0,1.465-4.347A19.871,19.871,0,0,0,1515.608-117.444Z" transform="translate(-1439.771 138.54)" fill="#fff"/>
        <path id="Tracé_308" data-name="Tracé 308" d="M1484.384-85.424a.214.214,0,0,1-.1-.028,32.509,32.509,0,0,1-5.091-3.565,6.559,6.559,0,0,1-1.759-2.048,7.183,7.183,0,0,1-.521-2,8.059,8.059,0,0,0-.384-1.649,8.207,8.207,0,0,0-.927-1.594,6.216,6.216,0,0,1-1.144-2.29c-.019-.1-.035-.2-.05-.3a1.534,1.534,0,0,0-.375-.994l-.064-.045a.213.213,0,0,1-.059-.291.213.213,0,0,1,.29-.066c.031.019.061.04.088.061a10.127,10.127,0,0,1,3.556,4.466c.169.42.312.857.45,1.279a10.976,10.976,0,0,0,.869,2.14,10.95,10.95,0,0,0,1.335,1.711l1.692,1.9a21.1,21.1,0,0,1,2.384,2.995.213.213,0,0,1-.032.256A.213.213,0,0,1,1484.384-85.424Zm-9.624-13.9c.025.122.044.244.062.363.015.1.03.2.048.289a5.813,5.813,0,0,0,1.077,2.129,8.517,8.517,0,0,1,.973,1.68,8.375,8.375,0,0,1,.407,1.736,6.764,6.764,0,0,0,.485,1.879,6.2,6.2,0,0,0,1.651,1.908,32.131,32.131,0,0,0,4.231,3.054c-.517-.7-1.181-1.444-1.829-2.17l-1.691-1.9a11.3,11.3,0,0,1-1.385-1.779,11.287,11.287,0,0,1-.906-2.223c-.136-.415-.276-.844-.44-1.252A9.71,9.71,0,0,0,1474.76-99.324Z" transform="translate(-1413.976 124.971)" fill="#fff"/>
        <path id="Tracé_309" data-name="Tracé 309" d="M1516.362-82.6a.213.213,0,0,1-.207-.165,4.484,4.484,0,0,1,.364-3,8.724,8.724,0,0,1,1.036-1.5,11.165,11.165,0,0,0,.792-1.075,9.183,9.183,0,0,0,1.02-2.746q.04-.173.079-.347a10.052,10.052,0,0,1,.572-1.918c.125-.277.274-.543.418-.8.13-.232.265-.472.377-.713a10.454,10.454,0,0,0,.536-4.938.212.212,0,0,1,.157-.216.213.213,0,0,1,.244.108,10.64,10.64,0,0,1,.561,7.781,17.207,17.207,0,0,1-4.032,6.745l-.062.067c-.751.815-1.6,1.739-1.643,2.519a.213.213,0,0,1-.194.2Zm5.462-16.074a8.816,8.816,0,0,1-.625,3.986c-.119.256-.258.5-.393.742s-.284.505-.4.765a9.739,9.739,0,0,0-.546,1.837q-.039.175-.08.349a9.565,9.565,0,0,1-1.072,2.873,11.553,11.553,0,0,1-.821,1.116,8.284,8.284,0,0,0-.989,1.426,4.107,4.107,0,0,0-.427,1.769,10.343,10.343,0,0,1,1.434-1.8l.062-.067a16.786,16.786,0,0,0,3.937-6.576A10.564,10.564,0,0,0,1521.824-98.671Z" transform="translate(-1444.493 124.756)" fill="#fff"/>
        <path id="Tracé_310" data-name="Tracé 310" d="M1521.14-74.6a.213.213,0,0,1-.211-.187,5.839,5.839,0,0,1,1.249-4c.4-.581.866-1.128,1.311-1.657.428-.508.871-1.033,1.257-1.581a11.479,11.479,0,0,0,1.821-4.177c.011-.052.022-.1.033-.157a4.124,4.124,0,0,1,.289-.981,4.122,4.122,0,0,1,.288-.481c.077-.116.149-.226.212-.34a4.769,4.769,0,0,0,.313-2.625,6.226,6.226,0,0,1,.191-2.515.212.212,0,0,1,.2-.14.212.212,0,0,1,.2.14,12.209,12.209,0,0,1,.279,6.718,29.41,29.41,0,0,1-2.337,6.31,8.428,8.428,0,0,1-2,2.972,8.777,8.777,0,0,1-1.044.719c-.257.159-.522.323-.765.5a2.671,2.671,0,0,0-1.072,1.294A.212.212,0,0,1,1521.14-74.6Zm6.984-17.826a9.174,9.174,0,0,0,0,1.613,5.152,5.152,0,0,1-.364,2.854c-.071.13-.152.252-.23.37a3.728,3.728,0,0,0-.259.431,3.739,3.739,0,0,0-.256.882c-.011.053-.022.107-.033.16a11.9,11.9,0,0,1-1.889,4.333c-.4.564-.845,1.1-1.279,1.611s-.895,1.061-1.288,1.626a6.148,6.148,0,0,0-1.186,2.9,4.761,4.761,0,0,1,.829-.777c.257-.19.53-.359.794-.522a8.363,8.363,0,0,0,.994-.684,8.082,8.082,0,0,0,1.892-2.829,29.04,29.04,0,0,0,2.306-6.216A12.258,12.258,0,0,0,1528.124-92.423Z" transform="translate(-1448.007 119.99)" fill="#fff"/>
        <path id="Tracé_311" data-name="Tracé 311" d="M1523.552-53.079a.209.209,0,0,1-.077-.014.213.213,0,0,1-.135-.2,3.77,3.77,0,0,1,.773-2.76,3.755,3.755,0,0,1,.552-.429c.12-.082.235-.159.341-.245a5.158,5.158,0,0,0,1.182-1.631,7.013,7.013,0,0,1,.982-1.48,6.867,6.867,0,0,1,.587-.535,6.328,6.328,0,0,0,.563-.515,6.426,6.426,0,0,0,1.215-2.548l1.733-5.654a.212.212,0,0,1,.215-.15.212.212,0,0,1,.2.173c.411,2.2-.3,4.416-.93,6.37a15.787,15.787,0,0,1-3,6.095,15.722,15.722,0,0,1-2.072,1.769,14.028,14.028,0,0,0-1.966,1.684A.213.213,0,0,1,1523.552-53.079Zm7.82-14.9-1.43,4.666a6.744,6.744,0,0,1-1.31,2.712,6.735,6.735,0,0,1-.6.551,6.452,6.452,0,0,0-.551.5,6.694,6.694,0,0,0-.919,1.393,5.558,5.558,0,0,1-1.288,1.758c-.12.1-.247.183-.369.266a3.358,3.358,0,0,0-.491.379,2.818,2.818,0,0,0-.635,1.925,18.594,18.594,0,0,1,1.642-1.346,15.372,15.372,0,0,0,2.017-1.72,15.468,15.468,0,0,0,2.909-5.936A15.492,15.492,0,0,0,1531.373-67.977Z" transform="translate(-1449.772 102.479)" fill="#fff"/>
        <path id="Tracé_312" data-name="Tracé 312" d="M1496.621-49.023a4.245,4.245,0,0,1-2.748-1.02,8.156,8.156,0,0,1-1.042-1.159l-1.659-2.1a.212.212,0,0,1-.016-.24.212.212,0,0,1,.219-.1,3.7,3.7,0,0,1,1.635.9,4.755,4.755,0,0,0,1.086.716c.107.045.219.081.338.12a2.923,2.923,0,0,1,.641.269,2.966,2.966,0,0,1,.818.87,2.384,2.384,0,0,0,.747.782,2.377,2.377,0,0,0,.766.2,3.169,3.169,0,0,1,.789.189.213.213,0,0,1,.127.221.212.212,0,0,1-.176.184l-.091.016a10.157,10.157,0,0,1-1.285.156Zm-4.643-3.946,1.187,1.5a7.837,7.837,0,0,0,.986,1.1,3.807,3.807,0,0,0,2.6.914l.118-.006a1.862,1.862,0,0,1-.433-.16,2.734,2.734,0,0,1-.894-.91,2.61,2.61,0,0,0-.694-.754,2.556,2.556,0,0,0-.55-.227c-.121-.04-.246-.08-.368-.132a5.124,5.124,0,0,1-1.187-.775A6.639,6.639,0,0,0,1491.979-52.968Z" transform="translate(-1426.463 91.197)" fill="#fff"/>
        <path id="Tracé_313" data-name="Tracé 313" d="M1521.458-29.037a.211.211,0,0,1-.109-.03.212.212,0,0,1-.1-.2,3.435,3.435,0,0,1,1.459-2.354c.206-.169.422-.33.631-.487a7.074,7.074,0,0,0,1.367-1.216,7.066,7.066,0,0,0,.807-1.433,11.258,11.258,0,0,1,.529-1.038,11.22,11.22,0,0,1,1.462-1.81,9.32,9.32,0,0,0,1.551-2,9.42,9.42,0,0,0,.758-2.617.213.213,0,0,1,.209-.174h0a.213.213,0,0,1,.207.179,11.533,11.533,0,0,1-1.3,7.369,11.533,11.533,0,0,1-5.564,5c-.219.093-.444.18-.661.265a7.964,7.964,0,0,0-1.135.5A.212.212,0,0,1,1521.458-29.037Zm8.481-11.737a6.617,6.617,0,0,1-.509,1.371,9.777,9.777,0,0,1-1.618,2.092,10.9,10.9,0,0,0-1.409,1.74,11.058,11.058,0,0,0-.509,1,7.471,7.471,0,0,1-.859,1.517,7.5,7.5,0,0,1-1.445,1.292c-.205.153-.417.312-.616.475a3.485,3.485,0,0,0-1.235,1.652c.243-.112.521-.221.81-.334.214-.084.436-.171.65-.261a11.106,11.106,0,0,0,5.358-4.818A11.115,11.115,0,0,0,1529.939-40.775Z" transform="translate(-1448.257 83.05)" fill="#fff"/>
        <path id="Tracé_314" data-name="Tracé 314" d="M1514-4.8a.215.215,0,0,1-.128-.043.216.216,0,0,1-.06-.271,8.684,8.684,0,0,1,2.59-2.7,9.445,9.445,0,0,0,2.33-2.293c.063-.1.122-.206.182-.311a3.487,3.487,0,0,1,.647-.9,3.5,3.5,0,0,1,.952-.559l.2-.09a7.545,7.545,0,0,0,3.355-3.12c.052-.094.1-.189.156-.286a3.216,3.216,0,0,1,1.241-1.491.213.213,0,0,1,.23.024.212.212,0,0,1,.072.22c-.486,1.837-1.091,4.123-2.755,5.56a10.5,10.5,0,0,1-1.372.952c-.226.14-.459.284-.681.433a10.164,10.164,0,0,0-2.222,2.033c-.1.127-.2.257-.306.388a4.446,4.446,0,0,1-2.1,1.785,4.357,4.357,0,0,1-.749.129,4.637,4.637,0,0,0-.594.092,2.829,2.829,0,0,0-.839.392A.2.2,0,0,1,1514-4.8Zm11.187-11.308a5.077,5.077,0,0,0-.592.935c-.053.1-.105.2-.159.292a7.975,7.975,0,0,1-3.546,3.3l-.2.093a3.131,3.131,0,0,0-.84.486,3.113,3.113,0,0,0-.564.793c-.061.107-.124.218-.19.325a9.748,9.748,0,0,1-2.43,2.4,10.844,10.844,0,0,0-2.059,1.906,2.409,2.409,0,0,1,.277-.087,5.049,5.049,0,0,1,.648-.1,4,4,0,0,0,.677-.114,4.143,4.143,0,0,0,1.888-1.638c.1-.133.207-.266.311-.394a10.581,10.581,0,0,1,2.315-2.118c.228-.154.465-.3.694-.441a10.208,10.208,0,0,0,1.317-.912A9.283,9.283,0,0,0,1525.183-16.106Z" transform="translate(-1442.858 64.596)" fill="#fff"/>
        <path id="Tracé_315" data-name="Tracé 315" d="M1504.748,19.313a.213.213,0,0,1-.124-.385l.276-.2a13.847,13.847,0,0,0,2.95-2.577c.064-.082.127-.166.19-.251a4.336,4.336,0,0,1,.766-.854,4.329,4.329,0,0,1,1.239-.607,6.5,6.5,0,0,0,.749-.306,6.4,6.4,0,0,0,1.962-1.859c.26-.324.528-.659.816-.966a7.8,7.8,0,0,1,3.48-2.14.213.213,0,0,1,.187.374,5.31,5.31,0,0,0-1.56,1.874c-.061.121-.118.25-.174.374a3.938,3.938,0,0,1-.659,1.112,3.921,3.921,0,0,1-1.148.766,6.566,6.566,0,0,0-.641.355,6.363,6.363,0,0,0-1.585,1.744,10.134,10.134,0,0,1-1.08,1.351c-1.4,1.4-3.372,1.818-5.61,2.19A.217.217,0,0,1,1504.748,19.313Zm11.416-9.356a7.379,7.379,0,0,0-2.282,1.644c-.277.294-.54.623-.794.941a6.821,6.821,0,0,1-2.1,1.972,6.931,6.931,0,0,1-.8.327,3.948,3.948,0,0,0-1.122.541,3.987,3.987,0,0,0-.689.774c-.064.087-.129.173-.2.258a12.4,12.4,0,0,1-2.561,2.317,8.19,8.19,0,0,0,4.469-1.912,9.833,9.833,0,0,0,1.033-1.3,6.77,6.77,0,0,1,1.7-1.853,6.975,6.975,0,0,1,.682-.379,3.556,3.556,0,0,0,1.03-.677,3.568,3.568,0,0,0,.583-1c.057-.127.117-.259.181-.388A5.737,5.737,0,0,1,1516.164,9.957Z" transform="translate(-1436.166 45.747)" fill="#fff"/>
        <path id="Tracé_316" data-name="Tracé 316" d="M1499,39.33a.213.213,0,0,1-.21-.177,4,4,0,0,1,.82-3.126,7.609,7.609,0,0,1,2.78-1.889,10.867,10.867,0,0,0,2.013-1.152c.249-.2.486-.42.716-.638a10.076,10.076,0,0,1,.8-.706,10.386,10.386,0,0,1,.976-.637,5.519,5.519,0,0,0,1.486-1.13,5.526,5.526,0,0,0,.671-1.149c.106-.219.214-.444.337-.661a2.446,2.446,0,0,1,1.746-1.382.213.213,0,0,1,.188.345,10.519,10.519,0,0,0-1.292,2.27,16.061,16.061,0,0,1-.861,1.672c-1.29,2.087-3.45,3.459-5.356,4.669l-3.211,2.039c-.654.415-1.331.914-1.394,1.463a.213.213,0,0,1-.206.188Zm11.581-12a2.8,2.8,0,0,0-.82.941c-.116.2-.222.424-.324.636a5.923,5.923,0,0,1-.726,1.235,5.915,5.915,0,0,1-1.595,1.224,10.034,10.034,0,0,0-.937.61,9.731,9.731,0,0,0-.767.677c-.237.224-.482.456-.746.664a11.168,11.168,0,0,1-2.091,1.2,7.19,7.19,0,0,0-2.634,1.773,3.575,3.575,0,0,0-.771,2,5.3,5.3,0,0,1,1.206-.971l3.211-2.039c1.867-1.186,3.983-2.53,5.222-4.534a15.776,15.776,0,0,0,.837-1.628A14.818,14.818,0,0,1,1510.576,27.334Z" transform="translate(-1431.967 33.069)" fill="#fff"/>
        <path id="Tracé_317" data-name="Tracé 317" d="M1502.01-14.219a.213.213,0,0,1-.167-.081,9.346,9.346,0,0,1-2.221-4.088,9.32,9.32,0,0,1-.069-1.723,10.64,10.64,0,0,0-.03-1.4,10.835,10.835,0,0,0-1.8-4.222l-.141-.234a1.229,1.229,0,0,1-.227-1.006,1.2,1.2,0,0,1,.226-.358,1.021,1.021,0,0,0,.144-.205,1.014,1.014,0,0,0,0-.575l-.235-1.3a.213.213,0,0,1,.138-.238.213.213,0,0,1,.258.1,18.566,18.566,0,0,1,1.7,3.732c.086.3.158.608.227.906a10.362,10.362,0,0,0,.435,1.514c.128.318.293.632.452.936a8.707,8.707,0,0,1,.56,1.216,8.689,8.689,0,0,1,.352,1.978c.161,1.634.328,3.324.608,4.8a.213.213,0,0,1-.121.233A.215.215,0,0,1,1502.01-14.219Zm-3.858-13.94a1.329,1.329,0,0,1-.037.8,1.365,1.365,0,0,1-.2.3.86.86,0,0,0-.153.231c-.067.191.063.434.191.646l.14.234a11.149,11.149,0,0,1,1.854,4.394,11.046,11.046,0,0,1,.033,1.459,8.85,8.85,0,0,0,.064,1.644,7.54,7.54,0,0,0,1.614,3.224c-.2-1.273-.336-2.651-.468-3.993a8.359,8.359,0,0,0-.331-1.882,8.261,8.261,0,0,0-.534-1.156,10.651,10.651,0,0,1-.47-.974,10.69,10.69,0,0,1-.454-1.577c-.068-.292-.139-.6-.222-.886A13.594,13.594,0,0,0,1498.152-28.159Z" transform="translate(-1430.942 73.838)" fill="#fff"/>
        <path id="Tracé_318" data-name="Tracé 318" d="M1495,4.212a.212.212,0,0,1-.126-.042,6.577,6.577,0,0,1-2.578-5.984c.037-.3.1-.61.153-.905a5.81,5.81,0,0,0,.162-1.779,5.814,5.814,0,0,0-.508-1.582c-.107-.251-.218-.51-.311-.774a6.685,6.685,0,0,1,.132-4.76.214.214,0,0,1,.234-.127.213.213,0,0,1,.174.2,5.447,5.447,0,0,0,.942,2.453,9.451,9.451,0,0,1,.822,1.674,9.135,9.135,0,0,1,.233,3.494c-.014.228-.028.455-.038.681a20.251,20.251,0,0,0,.912,7.17.213.213,0,0,1-.2.28Zm-2.95-14.882A6.265,6.265,0,0,0,1492.19-7c.089.251.2.5.3.749a6.229,6.229,0,0,1,.539,1.7,6.214,6.214,0,0,1-.166,1.909c-.056.288-.113.586-.148.876a6.161,6.161,0,0,0,1.868,5.137,21.142,21.142,0,0,1-.72-6.632c.01-.228.025-.457.039-.687a8.817,8.817,0,0,0-.212-3.332,9.131,9.131,0,0,0-.787-1.6A8.457,8.457,0,0,1,1492.049-10.67Z" transform="translate(-1426.671 60.874)" fill="#fff"/>
        <path id="Tracé_319" data-name="Tracé 319" d="M1485.2,22.75c-.024,0-.048,0-.074,0a.211.211,0,0,1-.115-.048,18.3,18.3,0,0,1-3.1-3.027,6.3,6.3,0,0,1-1.378-4.126,9.264,9.264,0,0,1,.338-1.7c.093-.35.189-.712.253-1.069a6.78,6.78,0,0,0-.389-3.722c-.03-.073-.061-.146-.093-.22a3.261,3.261,0,0,1-.328-1.135,3.277,3.277,0,0,1,.187-1.066l.827-2.8a.213.213,0,0,1,.2-.152.208.208,0,0,1,.206.141,22.74,22.74,0,0,1,1.333,7.812c0,.253-.007.507-.012.761a10.078,10.078,0,0,0,.294,3.328,10.161,10.161,0,0,0,.592,1.347,7.6,7.6,0,0,1,.754,1.945,7.794,7.794,0,0,1,.1.887,4.263,4.263,0,0,0,.235,1.328,5.254,5.254,0,0,0,.278.544c.2.359.348.619.213.825A.354.354,0,0,1,1485.2,22.75ZM1481.552,4.6l-.638,2.159a2.908,2.908,0,0,0-.17.927,2.909,2.909,0,0,0,.294.986c.032.075.064.151.1.226a7.209,7.209,0,0,1,.414,3.958c-.068.374-.166.744-.261,1.1a8.8,8.8,0,0,0-.325,1.622,5.882,5.882,0,0,0,1.295,3.842,16.7,16.7,0,0,0,2.783,2.748c-.033-.061-.068-.124-.1-.18a5.488,5.488,0,0,1-.3-.591,4.639,4.639,0,0,1-.266-1.459,7.378,7.378,0,0,0-.093-.839,7.171,7.171,0,0,0-.717-1.835,10.452,10.452,0,0,1-.615-1.4,10.383,10.383,0,0,1-.315-3.469c.005-.252.011-.5.012-.754A22.3,22.3,0,0,0,1481.552,4.6Z" transform="translate(-1418.641 49.712)" fill="#fff"/>
        <path id="Tracé_320" data-name="Tracé 320" d="M1511.049-20.053a.213.213,0,0,1-.2-.14,7.441,7.441,0,0,0-.645-1.25,5.386,5.386,0,0,1-.827-1.906,5.346,5.346,0,0,1-.048-.621c-.006-.159-.012-.309-.029-.458a6.444,6.444,0,0,0-.513-1.679l-1.367-3.352a.212.212,0,0,1,.068-.249.213.213,0,0,1,.259,0,7.913,7.913,0,0,1,2.26,2.331,7.952,7.952,0,0,1,.715,2.894c.175,1.527.355,3.1.538,4.182a.213.213,0,0,1-.156.241A.212.212,0,0,1,1511.049-20.053Zm-2.932-8.821,1.063,2.606a6.745,6.745,0,0,1,.542,1.792c.019.165.025.329.031.489a5.021,5.021,0,0,0,.044.572,4.991,4.991,0,0,0,.772,1.753l.08.133c-.118-.89-.235-1.9-.348-2.9a7.551,7.551,0,0,0-.668-2.75A5.907,5.907,0,0,0,1508.117-28.874Z" transform="translate(-1438.241 73.905)" fill="#fff"/>
        <path id="Tracé_321" data-name="Tracé 321" d="M1503.875-29.673a.213.213,0,0,1-.206-.163,7.737,7.737,0,0,0-.505-1.6,2.457,2.457,0,0,0-1.054-1.148,2.855,2.855,0,0,0-1.726-.145c.5.169,1.011.315,1.524.438a.213.213,0,0,1,.157.256.212.212,0,0,1-.256.157,17.868,17.868,0,0,1-2.294-.713.213.213,0,0,1-.135-.214.213.213,0,0,1,.166-.192,4.122,4.122,0,0,1,2.753.032,2.874,2.874,0,0,1,1.248,1.343,8.042,8.042,0,0,1,.537,1.687.213.213,0,0,1-.157.256A.218.218,0,0,1,1503.875-29.673Z" transform="translate(-1432.433 76.414)" fill="#fff"/>
        <path id="Tracé_322" data-name="Tracé 322" d="M1488.237-54.033a.212.212,0,0,1-.154-.066,11.52,11.52,0,0,0-3.659-2.922,2.331,2.331,0,0,0-1.181-.226,3.377,3.377,0,0,0-.453.1l-.121.032a12.154,12.154,0,0,0,1.994.657.213.213,0,0,1,.158.256.213.213,0,0,1-.256.158,12.622,12.622,0,0,1-2.824-1.035.213.213,0,0,1-.1-.266.212.212,0,0,1,.253-.129,1.567,1.567,0,0,0,.787-.083,3.661,3.661,0,0,1,.513-.112,2.734,2.734,0,0,1,1.4.255,11.841,11.841,0,0,1,3.8,3.022.213.213,0,0,1-.008.3A.211.211,0,0,1,1488.237-54.033Z" transform="translate(-1419.587 94.117)" fill="#fff"/>
        <path id="Tracé_323" data-name="Tracé 323" d="M1283.093-96.3a.212.212,0,0,1-.173-.089c-6.156-8.587-9.121-18.416-8.349-27.677a29,29,0,0,1,2.862-10.628,50.456,50.456,0,0,1,6.268-8.96c2.773-3.41,5.64-6.936,7.151-11.09.219-.6.417-1.233.608-1.844.627-2,1.276-4.072,2.782-5.565a14.153,14.153,0,0,1,2.281-1.711c1.4-.911,2.723-1.771,3.19-3.243a.213.213,0,0,1,.267-.138.212.212,0,0,1,.138.267c-.513,1.617-1.962,2.559-3.363,3.471a13.843,13.843,0,0,0-2.213,1.656c-1.432,1.419-2.064,3.438-2.676,5.39-.193.616-.392,1.253-.614,1.862-1.536,4.222-4.426,7.776-7.221,11.213a50.147,50.147,0,0,0-6.217,8.882,28.574,28.574,0,0,0-2.818,10.473c-.764,9.16,2.173,18.889,8.271,27.394a.212.212,0,0,1-.049.3A.211.211,0,0,1,1283.093-96.3Z" transform="translate(-1269.675 173.407)" fill="#fff"/>
        <path id="Tracé_324" data-name="Tracé 324" d="M1352.434-177.553a.212.212,0,0,1-.191-.12.212.212,0,0,1,.051-.252,3.107,3.107,0,0,0,.626-1.064c.088-.2.179-.408.282-.608a9.726,9.726,0,0,1,1.263-1.748c2.282-2.709,4.414-5.012,7.4-5.761a.212.212,0,0,1,.253.14.212.212,0,0,1-.121.263c-.513.211-.732.779-.964,1.381a6.149,6.149,0,0,1-.4.884,5.286,5.286,0,0,1-1.252,1.327c-.11.092-.22.185-.328.279a20.311,20.311,0,0,0-1.765,1.828c-.365.411-.742.836-1.136,1.235a7.072,7.072,0,0,1-3.683,2.214A.222.222,0,0,1,1352.434-177.553Zm8.626-8.854c-2.409.925-4.279,2.972-6.27,5.336a9.412,9.412,0,0,0-1.211,1.671c-.1.187-.185.388-.27.582a7.53,7.53,0,0,1-.334.7,7.37,7.37,0,0,0,2.877-1.948c.386-.391.76-.812,1.121-1.219a20.586,20.586,0,0,1,1.8-1.865c.109-.1.222-.19.334-.284a4.888,4.888,0,0,0,1.158-1.215,5.8,5.8,0,0,0,.366-.823A5.563,5.563,0,0,1,1361.059-186.407Z" transform="translate(-1325.95 187.772)" fill="#fff"/>
        <path id="Tracé_325" data-name="Tracé 325" d="M1342.885-171.847h-.01a.213.213,0,0,1-.2-.159,6.708,6.708,0,0,1-.236-3.669,6.593,6.593,0,0,1,.811-1.546,9.636,9.636,0,0,0,.566-.957c.1-.213.2-.444.286-.667a4.659,4.659,0,0,1,.79-1.445,4.759,4.759,0,0,1,.991-.772,3.365,3.365,0,0,0,1.055-.9.212.212,0,0,1,.241-.086.212.212,0,0,1,.149.208,5.249,5.249,0,0,1-1.161,2.83c-.178.244-.367.485-.549.718a11.216,11.216,0,0,0-1.158,1.68,11.267,11.267,0,0,0-.863,2.719,16.167,16.167,0,0,1-.515,1.906A.213.213,0,0,1,1342.885-171.847Zm3.932-9.353a6.7,6.7,0,0,1-.7.5,4.388,4.388,0,0,0-.906.7,4.274,4.274,0,0,0-.711,1.318c-.092.23-.187.468-.3.7a9.972,9.972,0,0,1-.59,1,6.2,6.2,0,0,0-.763,1.445,5.208,5.208,0,0,0,.06,2.7c.1-.368.188-.749.277-1.143a11.59,11.59,0,0,1,.9-2.821,11.553,11.553,0,0,1,1.2-1.745c.18-.23.366-.468.54-.706A5.638,5.638,0,0,0,1346.817-181.2Z" transform="translate(-1318.746 184.114)" fill="#fff"/>
        <path id="Tracé_326" data-name="Tracé 326" d="M1344.784-165.7a5.7,5.7,0,0,1-1.3-.148.212.212,0,0,1-.164-.192.213.213,0,0,1,.136-.213l.438-.168c2.651-1.014,5.392-2.063,7.485-4.045.171-.162.341-.334.506-.5.27-.273.549-.555.85-.812a13.985,13.985,0,0,1,3.534-1.987c.275-.121.55-.242.822-.367a.213.213,0,0,1,.271.083.212.212,0,0,1-.052.278,7.492,7.492,0,0,0-1.69,2.213,6.1,6.1,0,0,1-2.309,2.626,6.161,6.161,0,0,1-1.733.48,6.311,6.311,0,0,0-1.505.388,6.25,6.25,0,0,0-1.28.847c-.242.189-.492.385-.755.559A5.953,5.953,0,0,1,1344.784-165.7Zm-.433-.442a5.531,5.531,0,0,0,3.451-.874c.249-.164.491-.354.727-.538a6.669,6.669,0,0,1,1.369-.9,6.722,6.722,0,0,1,1.6-.418,5.759,5.759,0,0,0,1.616-.441,5.7,5.7,0,0,0,2.132-2.461,13.09,13.09,0,0,1,.984-1.512,12.912,12.912,0,0,0-3.225,1.831c-.287.245-.559.52-.823.787-.167.169-.339.344-.516.511A21.318,21.318,0,0,1,1344.351-166.14Z" transform="translate(-1319.507 178.393)" fill="#fff"/>
        <path id="Tracé_327" data-name="Tracé 327" d="M1333.318-161.45a.212.212,0,0,1-.16-.073,5.224,5.224,0,0,1-1.539-2.814,5.109,5.109,0,0,1,.161-1.454,5.032,5.032,0,0,0,.158-1.266,5.137,5.137,0,0,0-.108-.729,3.511,3.511,0,0,1-.092-1.241,3.508,3.508,0,0,1,.566-1.271,4.8,4.8,0,0,0,.415-.769,4.677,4.677,0,0,0,.176-.613,5.9,5.9,0,0,1,.16-.579,1.57,1.57,0,0,1,.922-1.04.212.212,0,0,1,.213.048.212.212,0,0,1,.058.211,17.462,17.462,0,0,0-.925,5.656c.014.238.039.482.063.719a7.958,7.958,0,0,1,.048,1.695c-.019.164-.047.327-.075.484a4.59,4.59,0,0,0-.089.723,5.06,5.06,0,0,0,.16,1.13,2.337,2.337,0,0,1,.094,1.03.213.213,0,0,1-.158.149A.217.217,0,0,1,1333.318-161.45Zm.349-11.092a1.776,1.776,0,0,0-.213.425,5.428,5.428,0,0,0-.148.537,5.09,5.09,0,0,1-.193.668,5.214,5.214,0,0,1-.449.838,3.138,3.138,0,0,0-.508,1.114,3.149,3.149,0,0,0,.089,1.092,5.488,5.488,0,0,1,.116.79,5.425,5.425,0,0,1-.166,1.375,4.719,4.719,0,0,0-.153,1.333,3.865,3.865,0,0,0,1.027,2.086c-.017-.083-.036-.17-.056-.258a5.377,5.377,0,0,1-.17-1.228,5,5,0,0,1,.1-.79c.028-.158.054-.307.071-.458a7.508,7.508,0,0,0-.049-1.6c-.024-.24-.049-.489-.064-.736A16.051,16.051,0,0,1,1333.667-172.542Z" transform="translate(-1311.035 177.784)" fill="#fff"/>
        <path id="Tracé_328" data-name="Tracé 328" d="M1339.895-142.678a6.97,6.97,0,0,1-2.108-.44.212.212,0,0,1-.147-.191.213.213,0,0,1,.127-.205c.295-.129.586-.262.878-.395.664-.3,1.35-.614,2.046-.874l.33-.121a6.935,6.935,0,0,0,1.383-.614,6.923,6.923,0,0,0,.768-.595c.192-.164.391-.333.6-.486,1.761-1.271,4.188-1.236,5.96-1.211a.213.213,0,0,1,.2.146.213.213,0,0,1-.073.236,8.884,8.884,0,0,1-3.528,1.919c-.286.056-.578.085-.86.112a5.022,5.022,0,0,0-1.3.242,5.119,5.119,0,0,0-1.558,1.111,4.991,4.991,0,0,1-1.859,1.245A2.959,2.959,0,0,1,1339.895-142.678Zm-1.441-.678a3.819,3.819,0,0,0,2.175.151,4.609,4.609,0,0,0,1.695-1.152,5.5,5.5,0,0,1,1.693-1.195,5.427,5.427,0,0,1,1.414-.268c.272-.027.553-.054.82-.106a7.337,7.337,0,0,0,2.856-1.464h-.089a8.264,8.264,0,0,0-4.994,1.137c-.2.143-.39.306-.576.465a7.338,7.338,0,0,1-.816.63,7.356,7.356,0,0,1-1.466.655c-.109.04-.218.079-.326.119-.681.254-1.361.563-2.018.862Z" transform="translate(-1315.399 159.338)" fill="#fff"/>
        <path id="Tracé_329" data-name="Tracé 329" d="M1324.64-151.211a.212.212,0,0,1-.111-.032,5.032,5.032,0,0,1-2.354-4.232,9.712,9.712,0,0,1,.084-1.077,5.587,5.587,0,0,0,.033-1.633,5.581,5.581,0,0,0-.217-.772,5.241,5.241,0,0,1-.252-.96,4.649,4.649,0,0,1,.195-1.782,17.99,17.99,0,0,1,1.136-3.121.213.213,0,0,1,.237-.117.212.212,0,0,1,.168.2,45.912,45.912,0,0,1-.154,4.682l-.008.09a6.084,6.084,0,0,0-.014,1.368,5.927,5.927,0,0,0,.3,1.075c.05.145.1.29.146.436a16.029,16.029,0,0,1,.506,2.546c.157,1.1.319,2.239.513,3.063a.212.212,0,0,1-.082.221A.212.212,0,0,1,1324.64-151.211Zm-1.5-12.522a17.58,17.58,0,0,0-.713,2.142,4.285,4.285,0,0,0-.184,1.618,4.848,4.848,0,0,0,.234.883,6.058,6.058,0,0,1,.232.831,5.982,5.982,0,0,1-.029,1.757,9.484,9.484,0,0,0-.082,1.03,4.612,4.612,0,0,0,1.719,3.564c-.149-.762-.279-1.677-.406-2.567a15.707,15.707,0,0,0-.49-2.478c-.045-.142-.093-.283-.142-.424a6.366,6.366,0,0,1-.318-1.153,6.385,6.385,0,0,1,.011-1.466l.008-.09C1323.083-161.295,1323.137-162.517,1323.141-163.733Z" transform="translate(-1303.935 171.73)" fill="#fff"/>
        <path id="Tracé_330" data-name="Tracé 330" d="M1332.539-126.144a4.037,4.037,0,0,1-1.384-.24.212.212,0,0,1-.138-.224.212.212,0,0,1,.185-.187,4.672,4.672,0,0,0,2.294-1.077c.256-.213.5-.456.738-.691a7.28,7.28,0,0,1,1.31-1.109,7.5,7.5,0,0,1,.758-.385,3.971,3.971,0,0,0,1.12-.667.211.211,0,0,1,.116-.057,2.148,2.148,0,0,1,1.973.794.212.212,0,0,1,.011.246.212.212,0,0,1-.228.091,2.876,2.876,0,0,0-2.409.9c-.244.222-.479.468-.706.706a7.935,7.935,0,0,1-1.432,1.274A4.14,4.14,0,0,1,1332.539-126.144Zm-.409-.447a3.733,3.733,0,0,0,2.39-.542,7.5,7.5,0,0,0,1.352-1.209c.232-.243.473-.5.727-.727a3.778,3.778,0,0,1,2.134-1.049,1.746,1.746,0,0,0-1.07-.251,4.56,4.56,0,0,1-1.183.7,7.105,7.105,0,0,0-.715.362,6.838,6.838,0,0,0-1.231,1.047c-.244.242-.495.492-.766.717A5.609,5.609,0,0,1,1332.129-126.59Z" transform="translate(-1310.605 147.025)" fill="#fff"/>
        <path id="Tracé_331" data-name="Tracé 331" d="M1313.955-125.291a.2.2,0,0,1-.051-.006c-.535-.133-.86-.727-1.124-1.273a14.4,14.4,0,0,1-1.487-4.364l-.016-.131c-.089-.718-.19-1.531-.766-1.807a.212.212,0,0,1-.116-.235.213.213,0,0,1,.2-.169,2.434,2.434,0,0,0,2.05-1.335.214.214,0,0,1,.213-.119.213.213,0,0,1,.184.16,7.966,7.966,0,0,1,.089,2.5,6.486,6.486,0,0,0,.167,2.649,6.5,6.5,0,0,0,.31.692,6.685,6.685,0,0,1,.337.76,6.773,6.773,0,0,1,.223,2.467.212.212,0,0,1-.085.162A.211.211,0,0,1,1313.955-125.291Zm-2.826-7.632a3.423,3.423,0,0,1,.571,1.805l.016.13a14.03,14.03,0,0,0,1.448,4.232,2.906,2.906,0,0,0,.591.906,5.527,5.527,0,0,0-.211-1.974,6.323,6.323,0,0,0-.316-.712,6.913,6.913,0,0,1-.329-.738,6.891,6.891,0,0,1-.191-2.821,10.11,10.11,0,0,0,.017-1.849A2.922,2.922,0,0,1,1311.129-132.923Z" transform="translate(-1295.68 149.869)" fill="#fff"/>
        <path id="Tracé_332" data-name="Tracé 332" d="M1289.206-130.957c-.145,0-.285,0-.417,0a.212.212,0,0,1-.2-.14.213.213,0,0,1,.062-.234l1.352-1.159a4.032,4.032,0,0,0,.53-.512,4.037,4.037,0,0,0,.335-.516,4.444,4.444,0,0,1,.369-.566,4.5,4.5,0,0,1,1.175-.934l2.117-1.319a2,2,0,0,1,.788-.34,1.952,1.952,0,0,1,1.219.369,3.129,3.129,0,0,0,.609.291.213.213,0,0,1,.13.111.213.213,0,0,1,.006.171,2.431,2.431,0,0,1-1.37,1.142c-.249.1-.506.18-.755.258a7.524,7.524,0,0,0-.892.319,3.691,3.691,0,0,0-1.162.838c-.173.186-.333.4-.489.6a4.64,4.64,0,0,1-.975,1.043A4.181,4.181,0,0,1,1289.206-130.957Zm6.266-5.309a.754.754,0,0,0-.1.006,1.653,1.653,0,0,0-.618.279l-2.117,1.319a4.111,4.111,0,0,0-1.069.84,4.058,4.058,0,0,0-.333.513,4.409,4.409,0,0,1-.372.569,4.415,4.415,0,0,1-.584.568l-.918.787a3.5,3.5,0,0,0,2.032-.5,4.261,4.261,0,0,0,.882-.953,8.081,8.081,0,0,1,.516-.636,4.126,4.126,0,0,1,1.3-.935,7.917,7.917,0,0,1,.942-.338c.24-.075.489-.153.722-.247a2.326,2.326,0,0,0,1.028-.713c-.157-.07-.307-.154-.454-.237A1.865,1.865,0,0,0,1295.472-136.266Z" transform="translate(-1279.899 151.288)" fill="#fff"/>
        <path id="Tracé_333" data-name="Tracé 333" d="M1320.081-108.5a.428.428,0,0,1-.165-.034.212.212,0,0,1-.128-.23.212.212,0,0,1,.193-.178l.165-.013a2.7,2.7,0,0,0,.384-.379c.055-.062.11-.124.165-.181a4.7,4.7,0,0,1,1.116-.8,7.063,7.063,0,0,0,.69-.433,6.983,6.983,0,0,0,.855-.8,7.685,7.685,0,0,1,.869-.817,7.77,7.77,0,0,1,4.03-1.176.21.21,0,0,1,.179.07,5.053,5.053,0,0,1,1.2,2.439.212.212,0,0,1-.134.238.213.213,0,0,1-.258-.09,1.335,1.335,0,0,0-.687-.451,4.4,4.4,0,0,0-3.267-.369,4.5,4.5,0,0,0-1.519,1.319,5.724,5.724,0,0,1-1.42,1.312,4.983,4.983,0,0,1-2.086.532A.469.469,0,0,1,1320.081-108.5Zm8.106-4.607a7.248,7.248,0,0,0-3.7,1.08,7.22,7.22,0,0,0-.82.773,7.4,7.4,0,0,1-.908.846,7.4,7.4,0,0,1-.731.46,4.321,4.321,0,0,0-1.019.723c-.052.055-.1.113-.156.172l-.02.022a3.635,3.635,0,0,0,1.308-.41,5.325,5.325,0,0,0,1.309-1.221,4.881,4.881,0,0,1,1.673-1.432,4.746,4.746,0,0,1,3.592.364c.115.046.231.094.342.15A4.632,4.632,0,0,0,1328.187-113.108Z" transform="translate(-1302.479 134.537)" fill="#fff"/>
        <path id="Tracé_334" data-name="Tracé 334" d="M1350.813-105.2a.213.213,0,0,1-.069-.012.212.212,0,0,1-.143-.183,8.973,8.973,0,0,1,.211-2.813q.027-.112.055-.226c.255-1.025.543-2.187-.871-5.219a.212.212,0,0,1,.016-.208.214.214,0,0,1,.187-.094,2.981,2.981,0,0,1,2.15.71,2.852,2.852,0,0,1,.567,1.854,4.159,4.159,0,0,1-.083,1.268,4.429,4.429,0,0,1-.474,1.036,5.7,5.7,0,0,0-.35.686,6.094,6.094,0,0,0-.29,1.179,3.655,3.655,0,0,1-.751,1.954A.212.212,0,0,1,1350.813-105.2Zm-.283-8.307c1.308,2.933,1,4.173.75,5.176-.019.075-.037.148-.054.221a8.545,8.545,0,0,0-.23,2.022,5.483,5.483,0,0,0,.306-1.208,6.387,6.387,0,0,1,.313-1.263,6.063,6.063,0,0,1,.375-.738,4.052,4.052,0,0,0,.433-.935,3.748,3.748,0,0,0,.069-1.138,2.507,2.507,0,0,0-.456-1.588A2.229,2.229,0,0,0,1350.529-113.505Z" transform="translate(-1324.325 134.834)" fill="#fff"/>
        <path id="Tracé_335" data-name="Tracé 335" d="M1294.842-92.206a.213.213,0,0,1-.17-.085.213.213,0,0,1,.033-.291,1.13,1.13,0,0,1,.175-.119,15.592,15.592,0,0,0,4.568-4.092c.1-.161.207-.332.306-.5a4.889,4.889,0,0,1,1.334-1.633,4.858,4.858,0,0,1,1.816-.635,5.371,5.371,0,0,0,1.468-.448,5.955,5.955,0,0,0,1.392-1.2,3.666,3.666,0,0,1,2.385-1.482.213.213,0,0,1,.193.107.212.212,0,0,1-.006.221,15.352,15.352,0,0,1-2.964,3.689,15.448,15.448,0,0,1-1.569,1.087,14.834,14.834,0,0,0-1.553,1.079,15.092,15.092,0,0,0-1.222,1.185,8.778,8.778,0,0,1-2.313,1.918,9.444,9.444,0,0,1-2.308.7,5.69,5.69,0,0,0-1.307.366l-.14.094A.211.211,0,0,1,1294.842-92.206Zm12.873-9.975a4.31,4.31,0,0,0-1.643,1.271,6.27,6.27,0,0,1-1.5,1.277,5.77,5.77,0,0,1-1.582.489,4.473,4.473,0,0,0-1.662.57,4.509,4.509,0,0,0-1.209,1.5c-.1.168-.206.343-.314.51a13.316,13.316,0,0,1-3.6,3.468l.118-.025a9.116,9.116,0,0,0,2.205-.661,8.332,8.332,0,0,0,2.2-1.832,15.5,15.5,0,0,1,1.257-1.218,15.124,15.124,0,0,1,1.6-1.111A15.151,15.151,0,0,0,1305.1-99,13.58,13.58,0,0,0,1307.715-102.181Z" transform="translate(-1284.276 126.68)" fill="#fff"/>
        <path id="Tracé_336" data-name="Tracé 336" d="M1295.01-105.792a.223.223,0,0,1-.038,0,.213.213,0,0,1-.175-.208,8.611,8.611,0,0,1,.556-3.776,8.663,8.663,0,0,1,.869-1.36,6.569,6.569,0,0,0,.952-1.593,6.652,6.652,0,0,0,.174-2.784,6.938,6.938,0,0,1,.215-3c.083-.219.188-.441.289-.655a3.137,3.137,0,0,0,.434-1.412q-.065-.223-.13-.445a.213.213,0,0,1,.124-.256.212.212,0,0,1,.268.1,1.392,1.392,0,0,1,.158.525,14.6,14.6,0,0,1,.7,3.7,13.4,13.4,0,0,1-1.652,6.052c-.357.718-.737,1.417-1.105,2.093a25.76,25.76,0,0,0-1.436,2.892A.213.213,0,0,1,1295.01-105.792Zm3.529-13.886c-.087.235-.2.466-.3.687s-.2.421-.276.624a6.526,6.526,0,0,0-.189,2.819,7.072,7.072,0,0,1-.2,2.961,6.993,6.993,0,0,1-1.009,1.7,8.352,8.352,0,0,0-.828,1.292,6.4,6.4,0,0,0-.507,2.556c.3-.619.663-1.289,1.042-1.985.366-.673.745-1.369,1.1-2.079a12.4,12.4,0,0,0,1.607-5.853A11.9,11.9,0,0,0,1298.539-119.678Z" transform="translate(-1284.397 140.151)" fill="#fff"/>
        <path id="Tracé_337" data-name="Tracé 337" d="M1285.227-79.494a.212.212,0,0,1-.141-.053.212.212,0,0,1-.048-.256,5.34,5.34,0,0,1,2.138-2.567,5.228,5.228,0,0,1,1.254-.364l.247-.051a9.539,9.539,0,0,0,4.359-2.091,15.942,15.942,0,0,0,1.524-1.627c.3-.355.616-.722.944-1.068a26.156,26.156,0,0,1,2.667-2.335,20.222,20.222,0,0,0,3.21-2.964.213.213,0,0,1,.281-.044.212.212,0,0,1,.073.276,25.132,25.132,0,0,1-13.38,11.859c-.258.1-.519.189-.777.281a10.763,10.763,0,0,0-2.233.967A.213.213,0,0,1,1285.227-79.494ZM1300.5-91.306c-.659.617-1.366,1.181-2.058,1.734a25.781,25.781,0,0,0-2.624,2.3c-.321.337-.63.7-.929,1.05a16.241,16.241,0,0,1-1.566,1.67,9.962,9.962,0,0,1-4.553,2.188l-.252.051a4.844,4.844,0,0,0-1.154.33,3.893,3.893,0,0,0-1.607,1.745c.494-.233,1.078-.441,1.684-.656.256-.091.515-.183.771-.279A24.738,24.738,0,0,0,1300.5-91.306Z" transform="translate(-1277.319 119.634)" fill="#fff"/>
        <path id="Tracé_338" data-name="Tracé 338" d="M1281.164-93.77a.213.213,0,0,1-.179-.1,6.9,6.9,0,0,1-.72-5.894,13.929,13.929,0,0,1,.569-1.353,6.494,6.494,0,0,0,.79-2.567,6.782,6.782,0,0,0-.488-2.23,5.875,5.875,0,0,1-.466-2.772,6.461,6.461,0,0,1,.444-1.4,3.126,3.126,0,0,0,.356-2.067.212.212,0,0,1,.125-.261.213.213,0,0,1,.27.107,13.771,13.771,0,0,1,.847,9.336c-.071.265-.151.531-.229.788a10.471,10.471,0,0,0-.455,1.961,10.487,10.487,0,0,0-.026,1.141c0,.269.007.548,0,.824a15.414,15.414,0,0,1-.216,1.8l-.008.048c-.142.888-.29,1.807-.4,2.46a.212.212,0,0,1-.167.172A.2.2,0,0,1,1281.164-93.77Zm.745-17.343a7.152,7.152,0,0,1-.4,1.187,6.149,6.149,0,0,0-.418,1.306,5.485,5.485,0,0,0,.448,2.571,7.1,7.1,0,0,1,.511,2.374,6.912,6.912,0,0,1-.829,2.738,13.661,13.661,0,0,0-.552,1.312,6.578,6.578,0,0,0,.385,5.022c.093-.563.2-1.225.3-1.871l.007-.048a15.076,15.076,0,0,0,.211-1.753c.011-.265.007-.538,0-.8a10.81,10.81,0,0,1,.029-1.188,10.765,10.765,0,0,1,.471-2.042c.076-.254.156-.517.225-.776A13.372,13.372,0,0,0,1281.908-111.113Z" transform="translate(-1273.623 133.73)" fill="#fff"/>
        <path id="Tracé_339" data-name="Tracé 339" d="M1269.652-75.542a.213.213,0,0,1-.182-.1,16.064,16.064,0,0,1-2.582-5.915c-.068-.479-.092-.968-.116-1.441a9.811,9.811,0,0,0-.263-2.144c-.058-.21-.132-.423-.2-.629a5.811,5.811,0,0,1-.324-1.2,5.912,5.912,0,0,1,.727-3.033l.887-2a.213.213,0,0,1,.194-.126h0a.213.213,0,0,1,.194.125,9.9,9.9,0,0,1,.468,4.716c-.013.222-.027.444-.038.664a29.741,29.741,0,0,0,1.44,10.8.213.213,0,0,1-.112.26A.211.211,0,0,1,1269.652-75.542Zm-1.876-15.822-.68,1.53a5.586,5.586,0,0,0-.693,2.808,5.414,5.414,0,0,0,.3,1.114c.074.213.151.432.213.655a10.284,10.284,0,0,1,.278,2.236c.023.463.047.942.112,1.4a12.326,12.326,0,0,0,1.648,4.285,30.427,30.427,0,0,1-.969-9.313c.011-.221.025-.444.038-.667A10.939,10.939,0,0,0,1267.776-91.363Z" transform="translate(-1263.529 119.042)" fill="#fff"/>
        <path id="Tracé_340" data-name="Tracé 340" d="M1279.993-46.9a.212.212,0,0,1-.2-.144.212.212,0,0,1,.072-.237,3.622,3.622,0,0,0,.852-1.009,2.78,2.78,0,0,1,.679-.812,2.637,2.637,0,0,1,.976-.369l.183-.043a11.768,11.768,0,0,0,3.228-1.542,16.6,16.6,0,0,1,2.468-1.313,2.805,2.805,0,0,1,1.477-.239.213.213,0,0,1,.177.207.213.213,0,0,1-.171.211,5.723,5.723,0,0,0-2.825,2.01c-.284.3-.578.61-.881.892a9.04,9.04,0,0,1-6.032,2.39Zm7.981-4.89a19.788,19.788,0,0,0-1.972,1.1,12.254,12.254,0,0,1-3.346,1.591l-.189.045a2.3,2.3,0,0,0-.825.3,2.44,2.44,0,0,0-.568.7,5.468,5.468,0,0,1-.517.713,8.623,8.623,0,0,0,5.181-2.253c.293-.272.582-.578.862-.873A12.97,12.97,0,0,1,1287.974-51.788Z" transform="translate(-1273.531 90.462)" fill="#fff"/>
        <path id="Tracé_341" data-name="Tracé 341" d="M1307.794-48.361a.213.213,0,0,1-.2-.132,2.989,2.989,0,0,0-1.533-1.574,1.5,1.5,0,0,0-.829-.152,2.146,2.146,0,0,0-.619.245l-.092.047a8.26,8.26,0,0,1-3.007.857.212.212,0,0,1-.21-.12.212.212,0,0,1,.038-.239c.156-.163.306-.322.453-.477a8.421,8.421,0,0,1,2.88-2.317,1.954,1.954,0,0,1,.773-.153,1.922,1.922,0,0,1,1.286.712A6.237,6.237,0,0,1,1308-48.613a.213.213,0,0,1-.148.243A.21.21,0,0,1,1307.794-48.361Zm-2.4-3.591a1.569,1.569,0,0,0-.559.126,8.015,8.015,0,0,0-2.724,2.212l-.045.048a7.851,7.851,0,0,0,2.269-.74l.09-.046a2.492,2.492,0,0,1,.747-.287,1.9,1.9,0,0,1,1.069.183,3.392,3.392,0,0,1,1.069.755,4.488,4.488,0,0,0-.887-1.682,1.517,1.517,0,0,0-.987-.57Z" transform="translate(-1289.093 90.277)" fill="#fff"/>
        <path id="Tracé_342" data-name="Tracé 342" d="M1262.487-44.471a.212.212,0,0,1-.175-.092c-1.05-1.522-2.06-3.1-3-4.694a4.119,4.119,0,0,1-.637-1.536,4.227,4.227,0,0,1,0-.87,5.288,5.288,0,0,0,.021-.6,5.73,5.73,0,0,0-.606-1.983,4.113,4.113,0,0,1-.522-2.819.212.212,0,0,1,.13-.139.213.213,0,0,1,.19.021,4.635,4.635,0,0,1,1.725,2.468c.153.442.274.9.391,1.339.129.486.262.989.438,1.464.15.406.337.808.519,1.2.125.268.254.545.371.824a23.314,23.314,0,0,1,1.242,4.557q.061.308.121.6a.213.213,0,0,1-.125.238A.211.211,0,0,1,1262.487-44.471Zm-4.573-12.163a4.4,4.4,0,0,0,.567,2.221,6.041,6.041,0,0,1,.642,2.137,5.7,5.7,0,0,1-.022.643,3.872,3.872,0,0,0,0,.784,3.787,3.787,0,0,0,.582,1.376c.759,1.285,1.562,2.56,2.4,3.8a21.123,21.123,0,0,0-1.133-4.052c-.114-.271-.241-.545-.365-.809-.185-.4-.376-.808-.532-1.23-.183-.494-.319-1.007-.45-1.5-.115-.433-.233-.881-.382-1.308A4.544,4.544,0,0,0,1257.914-56.635Z" transform="translate(-1257.39 93.777)" fill="#fff"/>
        <path id="Tracé_343" data-name="Tracé 343" d="M1276.881-24.807a.212.212,0,0,1-.142-.055.213.213,0,0,1-.05-.248c.075-.161.15-.358.236-.587a6.538,6.538,0,0,1,1.114-2.091,6.929,6.929,0,0,1,2.014-1.406l1.245-.661a.213.213,0,0,1,.265.053.213.213,0,0,1,0,.27,7,7,0,0,0-.832,1.426,5.929,5.929,0,0,1-1.145,1.786,5.927,5.927,0,0,1-1.657,1.006,10.293,10.293,0,0,0-.936.475A.214.214,0,0,1,1276.881-24.807Zm3.869-4.275-.5.265a6.51,6.51,0,0,0-1.9,1.312,6.21,6.21,0,0,0-1.035,1.959l-.023.061c.15-.074.3-.144.449-.213a5.521,5.521,0,0,0,1.543-.928,5.527,5.527,0,0,0,1.057-1.664C1280.474-28.553,1280.6-28.822,1280.75-29.082Z" transform="translate(-1271.28 73.997)" fill="#fff"/>
        <path id="Tracé_344" data-name="Tracé 344" d="M1286.825-31.066a.213.213,0,0,1-.148-.06.213.213,0,0,1-.037-.258c2.024-3.574,2.76-4.091,3.58-4.43a10.787,10.787,0,0,1,2.522-.6.212.212,0,0,1,.24.167.212.212,0,0,1-.154.249,4.266,4.266,0,0,0-2.062,1.733c-.192.241-.39.491-.6.72a13.96,13.96,0,0,1-3.235,2.447A.213.213,0,0,1,1286.825-31.066Zm4.733-4.709a6.862,6.862,0,0,0-1.176.354c-.663.274-1.314.724-2.953,3.518a11.2,11.2,0,0,0,2.425-1.925c.2-.221.391-.465.579-.7A8.825,8.825,0,0,1,1291.558-35.776Z" transform="translate(-1278.475 78.727)" fill="#fff"/>
        <path id="Tracé_345" data-name="Tracé 345" d="M1275.5-21.275a.208.208,0,0,1-.035,0,.213.213,0,0,1-.178-.217,5.582,5.582,0,0,1,.972-3.6,5.568,5.568,0,0,1,1.2-.958c.181-.119.368-.242.541-.37A11.74,11.74,0,0,0,1280.328-29a15.66,15.66,0,0,1,1.834-2.182c.333-.311.7-.6,1.06-.885a5.654,5.654,0,0,0,2.176-2.515.213.213,0,0,1,.235-.146.213.213,0,0,1,.181.21,6.6,6.6,0,0,1-1.171,3.351,20.809,20.809,0,0,1-4.824,5.434c-.262.208-.537.417-.8.619-1.405,1.069-2.857,2.173-3.311,3.691A.213.213,0,0,1,1275.5-21.275Zm9.706-12.061a9.672,9.672,0,0,1-1.72,1.6c-.35.277-.713.563-1.033.862a15.392,15.392,0,0,0-1.782,2.124,12.222,12.222,0,0,1-2.419,2.665c-.183.135-.375.262-.56.384a5.184,5.184,0,0,0-1.11.882,3.894,3.894,0,0,0-.8,2.211,11.786,11.786,0,0,1,2.976-2.849c.264-.2.538-.409.8-.614a20.385,20.385,0,0,0,4.726-5.323A8.358,8.358,0,0,0,1285.205-33.336Z" transform="translate(-1270.279 77.51)" fill="#fff"/>
        <path id="Tracé_346" data-name="Tracé 346" d="M1266.176-7.386a.213.213,0,0,1-.206-.161,4.63,4.63,0,0,0-1.327-1.623c-.113-.1-.23-.19-.348-.283a4.335,4.335,0,0,1-1.137-1.173,4.269,4.269,0,0,1-.312-2.514,5.339,5.339,0,0,0-.082-1.915.213.213,0,0,1,.092-.243.213.213,0,0,1,.258.028,7.269,7.269,0,0,1,1.46,2.4l.625,1.418a11.868,11.868,0,0,1,1.188,3.842.212.212,0,0,1-.179.225A.2.2,0,0,1,1266.176-7.386Zm-2.869-7a9.329,9.329,0,0,1-.037,1.28,3.9,3.9,0,0,0,.257,2.272,3.954,3.954,0,0,0,1.033,1.052c.121.1.241.193.358.292a7.437,7.437,0,0,1,.886.892,15.689,15.689,0,0,0-.993-2.682l-.625-1.418A9.853,9.853,0,0,0,1263.307-14.389Z" transform="translate(-1261.211 63.47)" fill="#fff"/>
        <path id="Tracé_347" data-name="Tracé 347" d="M1280.728,3.439a.213.213,0,0,1-.207-.166,7.392,7.392,0,0,1-.144-3.979,7.272,7.272,0,0,1,.9-1.645l3.452-5.182a3.469,3.469,0,0,1,.8-.931,3.475,3.475,0,0,1,1.049-.457l3.16-.969a.212.212,0,0,1,.225.067.212.212,0,0,1,.026.234l-1.969,3.823a.213.213,0,0,1-.155.112.213.213,0,0,1-.183-.058c-.273-.268-.821,0-1.123.188a12.573,12.573,0,0,0-4.179,3.484,11.374,11.374,0,0,0-1.441,5.286.212.212,0,0,1-.2.193Zm8.652-12.775-2.677.821a3.11,3.11,0,0,0-.924.395,3.111,3.111,0,0,0-.7.823l-3.452,5.182a6.943,6.943,0,0,0-.852,1.548,5.082,5.082,0,0,0-.114,2.4,9.808,9.808,0,0,1,1.359-4.1,12.9,12.9,0,0,1,4.313-3.614c.683-.418,1.129-.418,1.414-.287Z" transform="translate(-1273.799 59.54)" fill="#fff"/>
        <path id="Tracé_348" data-name="Tracé 348" d="M1308.6-.36a.212.212,0,0,1-.2-.138,6.008,6.008,0,0,1-.376-2.209c0-.119.008-.239.014-.358a4.909,4.909,0,0,0,0-.77,4.913,4.913,0,0,0-.692-1.763.213.213,0,0,1,.084-.289.213.213,0,0,1,.289.084,5.31,5.31,0,0,1,.742,1.92,5.306,5.306,0,0,1,0,.837c-.006.115-.011.23-.013.345s0,.237.005.356a13.676,13.676,0,0,1,.61-1.861,11.078,11.078,0,0,0,.682-2.249,5.113,5.113,0,0,0-.526-3.11.212.212,0,0,1,.09-.287.212.212,0,0,1,.287.089,5.542,5.542,0,0,1,.571,3.37,11.4,11.4,0,0,1-.705,2.338,6.387,6.387,0,0,0-.653,3.44.212.212,0,0,1-.152.244A.215.215,0,0,1,1308.6-.36Z" transform="translate(-1293.458 59.522)" fill="#fff"/>
        <path id="Tracé_349" data-name="Tracé 349" d="M1327.779,40.7a.211.211,0,0,1-.171-.087c-1.8-2.435-3.834-5.195-4.708-8.342a26.477,26.477,0,0,1-.717-4.8c-.1-1.1-.195-2.239-.391-3.338-.154-.863-.373-1.734-.585-2.575a24.851,24.851,0,0,1-.776-3.994c-1.115-1.337-1.168-3.244-1.121-5.091l.119-4.742a.213.213,0,0,1,.387-.117,7.991,7.991,0,0,1,1.186,4.8c-.008.649-.052,1.305-.094,1.94a23.147,23.147,0,0,0-.071,2.933c0,.035,0,.07.007.106l.067.072a.212.212,0,0,1-.007.3.185.185,0,0,1-.025.021,26.236,26.236,0,0,0,.74,3.669c.214.849.435,1.727.591,2.6.2,1.117.3,2.266.4,3.376a26.194,26.194,0,0,0,.7,4.726c.853,3.072,2.865,5.8,4.641,8.2a.213.213,0,0,1-.171.339Zm-7.943-32.23-.1,4.01a8.476,8.476,0,0,0,.656,4.274c-.015-.817.039-1.636.093-2.433.042-.629.085-1.279.093-1.917A8.412,8.412,0,0,0,1319.836,8.468Z" transform="translate(-1302.128 46.936)" fill="#fff"/>
        <path id="Tracé_350" data-name="Tracé 350" d="M1326.88,26.662a.215.215,0,0,1-.071-.012.213.213,0,0,1-.142-.2,38.608,38.608,0,0,1,.433-5.287c.251-1.935.563-4.343,1.959-6.1a.212.212,0,0,1,.376.1,4,4,0,0,1-.258,1.787,8.175,8.175,0,0,0-.213.793,7.781,7.781,0,0,0-.04,2.019c.016.257.034.523.042.786a9.071,9.071,0,0,1-1.922,6.041A.213.213,0,0,1,1326.88,26.662Zm2.132-10.8a13.376,13.376,0,0,0-1.49,5.353,42.788,42.788,0,0,0-.424,4.586,8.822,8.822,0,0,0,1.444-5.248c-.007-.255-.024-.517-.041-.771a8.243,8.243,0,0,1,.047-2.129c.056-.284.141-.564.223-.835A6.572,6.572,0,0,0,1329.012,15.865Z" transform="translate(-1307.459 41.538)" fill="#fff"/>
        <path id="Tracé_351" data-name="Tracé 351" d="M1307.053,29.856a.213.213,0,0,1-.1-.025,10.605,10.605,0,0,1-4.039-3.073,10.545,10.545,0,0,1-.978-1.977l-2.111-5.147a.213.213,0,0,1,.351-.227,22.152,22.152,0,0,1,4,5.873l.064.138a5.126,5.126,0,0,0,.608,1.08,5.106,5.106,0,0,0,.5.517c.117.109.237.222.352.341a9.331,9.331,0,0,1,1.037,1.418c.145.224.309.478.493.75a.213.213,0,0,1-.176.331Zm-6.366-9.241,1.642,4a10.23,10.23,0,0,0,.936,1.9,8.746,8.746,0,0,0,3.15,2.542L1306.38,29a9.058,9.058,0,0,0-.987-1.355c-.106-.111-.217-.214-.334-.324a5.455,5.455,0,0,1-.546-.562,5.49,5.49,0,0,1-.662-1.168l-.063-.136A21.726,21.726,0,0,0,1300.687,20.614Z" transform="translate(-1288.024 38.382)" fill="#fff"/>
        <path id="Tracé_352" data-name="Tracé 352" d="M1330.936,43.7a.215.215,0,0,1-.088-.019.213.213,0,0,1-.121-.234,27.568,27.568,0,0,1,1.037-3.374,20.128,20.128,0,0,0,.926-3.206c.063-.372.107-.757.149-1.13a12.356,12.356,0,0,1,.32-1.917,3.609,3.609,0,0,1,1.93-2.483.213.213,0,0,1,.293.208,10.584,10.584,0,0,1-.66,2.777,14.319,14.319,0,0,0-.554,1.947c-.068.369-.106.753-.144,1.125a12.52,12.52,0,0,1-.187,1.353,12.512,12.512,0,0,1-2.735,4.871A.213.213,0,0,1,1330.936,43.7Zm3.989-11.8a3.436,3.436,0,0,0-1.356,2.034,12.026,12.026,0,0,0-.307,1.852c-.043.378-.087.77-.153,1.154a20.414,20.414,0,0,1-.944,3.275c-.281.8-.568,1.624-.778,2.342a10.233,10.233,0,0,0,2.035-3.9,12.183,12.183,0,0,0,.18-1.307c.038-.38.078-.773.149-1.159a14.721,14.721,0,0,1,.569-2.006A11.812,11.812,0,0,0,1334.925,31.9Z" transform="translate(-1310.394 29.715)" fill="#fff"/>
        <path id="Tracé_353" data-name="Tracé 353" d="M1304.579,45.846a.212.212,0,0,1-.126-.041c-.406-.3-.757-.6-1.1-.884a8.552,8.552,0,0,0-1.611-1.17,8.446,8.446,0,0,0-.9-.37,5.529,5.529,0,0,1-2.6-1.721,16.369,16.369,0,0,1-2.693-3.222,5.8,5.8,0,0,1-.808-4.136.212.212,0,0,1,.34-.119,8.9,8.9,0,0,1,2.461,3.1c.088.185.17.374.25.557a6.068,6.068,0,0,0,.759,1.4,6.074,6.074,0,0,0,1.607,1.269c.243.152.495.309.733.477a15.976,15.976,0,0,1,3.865,4.526.212.212,0,0,1-.178.329Zm-9.485-11.1a5.568,5.568,0,0,0,.823,3.478,16.059,16.059,0,0,0,2.626,3.135,6.966,6.966,0,0,0,1.389,1.165,6.863,6.863,0,0,0,1.06.457,8.79,8.79,0,0,1,.945.39,8.988,8.988,0,0,1,1.693,1.224l.006,0a12.6,12.6,0,0,0-2.989-3.262c-.23-.161-.476-.315-.714-.464a6.474,6.474,0,0,1-1.714-1.364,6.484,6.484,0,0,1-.816-1.5c-.078-.18-.16-.366-.244-.544A8.479,8.479,0,0,0,1295.094,34.746Z" transform="translate(-1284.279 27.676)" fill="#fff"/>
        <path id="Tracé_354" data-name="Tracé 354" d="M1332.473,59a.213.213,0,0,1-.209-.176,5.5,5.5,0,0,1,1.147-3.669,15.206,15.206,0,0,0,.734-1.342c.172-.374.313-.775.449-1.164a8.278,8.278,0,0,1,.871-1.935,8.4,8.4,0,0,1,.672-.833c.2-.222.4-.452.571-.693a9.03,9.03,0,0,0,1.208-3.072.212.212,0,0,1,.206-.159h0a.579.579,0,0,1,.439.2,1.374,1.374,0,0,1,.233,1.005,13.421,13.421,0,0,1-1.439,5.114A18.588,18.588,0,0,1,1335.4,55c-.318.391-.646.8-.951,1.2-.633.845-1.216,1.771-1.6,2.383l-.194.307A.212.212,0,0,1,1332.473,59Zm5.791-12.536a8.859,8.859,0,0,1-1.211,2.972,9.358,9.358,0,0,1-.6.726,5.869,5.869,0,0,0-1.461,2.627c-.139.4-.283.809-.464,1.2a15.532,15.532,0,0,1-.754,1.381,6.559,6.559,0,0,0-1.128,2.739c.381-.6.9-1.408,1.458-2.154.31-.413.641-.821.961-1.215a18.246,18.246,0,0,0,1.914-2.67,13.018,13.018,0,0,0,1.389-4.956A1.049,1.049,0,0,0,1338.264,46.459Z" transform="translate(-1311.475 19.125)" fill="#fff"/>
        <path id="Tracé_355" data-name="Tracé 355" d="M1311.055,72.9a.213.213,0,0,1-.169-.083c-.259-.34-.532-.7-.789-1.073a6.838,6.838,0,0,0-2.241-1.8c-.156-.068-.316-.124-.485-.184a4.342,4.342,0,0,1-2.159-1.486,8.623,8.623,0,0,0-.832-.79c-.1-.081-.213-.16-.319-.236a3.7,3.7,0,0,1-.782-.68,1.273,1.273,0,0,1-.121-1.544.213.213,0,0,1,.247-.064,9.027,9.027,0,0,1,1.441.81l3.519,2.274a1.951,1.951,0,0,1,1.083,1.417c.014.053.029.105.044.158a6.711,6.711,0,0,0,.935,1.857c.116.129.23.258.342.384.358.405.573.666.485.9a.212.212,0,0,1-.168.136Zm-7.643-7.475a.962.962,0,0,0,.2.877,3.329,3.329,0,0,0,.7.6c.11.079.225.161.335.248a8.9,8.9,0,0,1,.875.829,3.947,3.947,0,0,0,1.995,1.38c.168.059.342.121.512.195a5.247,5.247,0,0,1,1.294.822,5.468,5.468,0,0,1-.234-.636c-.016-.054-.031-.109-.047-.164a1.552,1.552,0,0,0-.9-1.174l-3.519-2.275A9.926,9.926,0,0,0,1303.411,65.429Z" transform="translate(-1290.294 5.381)" fill="#fff"/>
        <path id="Tracé_356" data-name="Tracé 356" d="M1340.044,88.52a.213.213,0,0,1-.206-.16,23.871,23.871,0,0,1-.6-3.336,4.006,4.006,0,0,1,0-1.154,4.3,4.3,0,0,1,.455-1.158c.067-.131.136-.266.2-.4a10.76,10.76,0,0,0,.421-1.139,11.454,11.454,0,0,1,.418-1.141,5.885,5.885,0,0,1,1.307-1.842.212.212,0,0,1,.351.212,16.9,16.9,0,0,0-.385,1.946c-.059.373-.119.759-.194,1.137-.195.989-.487,1.964-.77,2.907a12.8,12.8,0,0,0-.785,3.9.212.212,0,0,1-.18.222Zm1.744-9.421a5.444,5.444,0,0,0-.669,1.108,11.086,11.086,0,0,0-.4,1.1,11.033,11.033,0,0,1-.438,1.185c-.065.141-.136.28-.2.415a3.92,3.92,0,0,0-.415,1.043,3.629,3.629,0,0,0,0,1.031c.068.638.163,1.276.283,1.908a25.122,25.122,0,0,1,.687-2.616c.28-.934.569-1.9.76-2.868.073-.37.133-.752.191-1.121C1341.646,79.893,1341.708,79.495,1341.788,79.1Z" transform="translate(-1316.526 -4.16)" fill="#fff"/>
        <path id="Tracé_357" data-name="Tracé 357" d="M1422.478-173.742a1.094,1.094,0,0,1-.506-.464.212.212,0,0,1,.016-.232,3.84,3.84,0,0,1,.6-.633,15.516,15.516,0,0,1,.359-4.021,20.751,20.751,0,0,1,2.362-5.714,29.648,29.648,0,0,1,6.316-7.788,19.806,19.806,0,0,1,8.761-4.5.213.213,0,0,1,.252.163.213.213,0,0,1-.164.252c-5.723,1.22-11.116,5.624-14.8,12.082a20.337,20.337,0,0,0-2.317,5.6,15.048,15.048,0,0,0-.352,3.81.7.7,0,0,1,.354.114.727.727,0,0,1,.346.569.843.843,0,0,1-.768.843A.946.946,0,0,1,1422.478-173.742Zm-.056-.559a.594.594,0,0,0,.485.216.425.425,0,0,0,.382-.4.311.311,0,0,0-.15-.232.25.25,0,0,0-.218-.034.211.211,0,0,1-.07.015A3.412,3.412,0,0,0,1422.422-174.3Z" transform="translate(-1376.402 194.997)" fill="#fff"/>
        <path id="Tracé_358" data-name="Tracé 358" d="M1416.388-136.365a.213.213,0,0,1-.124-.226,5.737,5.737,0,0,1,1.427-2.98,2.911,2.911,0,0,1,.845-.675,3.866,3.866,0,0,1,1.4-.307.214.214,0,0,1,.129.03,3.273,3.273,0,0,1,1.35,2.067,9.85,9.85,0,0,1,.179,2.462.213.213,0,0,1-.215.21.213.213,0,0,1-.21-.215,9.53,9.53,0,0,0-.166-2.356,2.907,2.907,0,0,0-1.1-1.768,3.3,3.3,0,0,0-1.179.258,2.507,2.507,0,0,0-.721.581,5.3,5.3,0,0,0-1.32,2.757.213.213,0,0,1-.242.178A.208.208,0,0,1,1416.388-136.365Z" transform="translate(-1372.29 154.082)" fill="#fff"/>
        <path id="Tracé_359" data-name="Tracé 359" d="M1426.9-148.53a.213.213,0,0,1-.125-.22,4.934,4.934,0,0,0-1.513-4.139,4.725,4.725,0,0,0-1.831-.111,2.128,2.128,0,0,0-1.439.829.212.212,0,0,1-.295.058.213.213,0,0,1-.058-.295,2.549,2.549,0,0,1,1.722-1.012,5.193,5.193,0,0,1,2.051.127.213.213,0,0,1,.1.05,5.363,5.363,0,0,1,1.69,4.542.213.213,0,0,1-.237.186A.222.222,0,0,1,1426.9-148.53Z" transform="translate(-1376.157 163.429)" fill="#fff"/>
        <path id="Tracé_360" data-name="Tracé 360" d="M1430.637-159.377a.212.212,0,0,1-.117-.132c-.006-.019-.011-.038-.016-.057l-.463-1.931a3.713,3.713,0,0,0-1.242-1.693,5.22,5.22,0,0,0-2.185-.321,3.841,3.841,0,0,0-1.047.3,5.519,5.519,0,0,0-.789.415.213.213,0,0,1-.293-.066.213.213,0,0,1,.066-.293,5.893,5.893,0,0,1,.85-.447,4.266,4.266,0,0,1,1.162-.327,5.671,5.671,0,0,1,2.41.353.214.214,0,0,1,.079.046,4.117,4.117,0,0,1,1.4,1.939l.463,1.931c0,.01.006.021.009.031a.212.212,0,0,1-.141.266A.212.212,0,0,1,1430.637-159.377Z" transform="translate(-1378.217 171.018)" fill="#fff"/>
        <path id="Tracé_361" data-name="Tracé 361" d="M1427.511-171.182a.87.87,0,0,1-.371-.307.6.6,0,0,1-.079-.537.213.213,0,0,1,.141-.135,2.043,2.043,0,0,1,.888-.059,3.829,3.829,0,0,1,2.421-.868,9.581,9.581,0,0,1,2.4.375.212.212,0,0,1,.155.257.213.213,0,0,1-.257.155,9.254,9.254,0,0,0-2.294-.362,3.414,3.414,0,0,0-2.052.689.413.413,0,0,1,.022.037.535.535,0,0,1,0,.508.726.726,0,0,1-.687.318A.844.844,0,0,1,1427.511-171.182Zm-.048-.606a.261.261,0,0,0,.031.064.456.456,0,0,0,.329.19.324.324,0,0,0,.291-.108.1.1,0,0,0,0-.072.079.079,0,0,0-.024-.043.211.211,0,0,1-.122-.05A1.616,1.616,0,0,0,1427.463-171.787Z" transform="translate(-1380.081 177.624)" fill="#fff"/>
        <path id="Tracé_362" data-name="Tracé 362" d="M1421.3-159.957a.77.77,0,0,1-.187-.117.912.912,0,0,1-.238-1.018.212.212,0,0,1,.131-.122,1.528,1.528,0,0,1,1.071.051.181.181,0,0,1,.03.016.639.639,0,0,1,.294.489.705.705,0,0,1-.23.579A.825.825,0,0,1,1421.3-159.957Zm-.058-.88a.478.478,0,0,0,.145.439.4.4,0,0,0,.5,0,.283.283,0,0,0,.091-.229.207.207,0,0,0-.087-.157A1.1,1.1,0,0,0,1421.247-160.838Z" transform="translate(-1375.585 169.085)" fill="#fff"/>
        <path id="Tracé_363" data-name="Tracé 363" d="M1444.589-147.106a.885.885,0,0,1-.428-.4.211.211,0,0,1,0-.2,1.788,1.788,0,0,1,.807-.737h0a.4.4,0,0,1,.4.046.787.787,0,0,1,.324.646.775.775,0,0,1-.682.716A.813.813,0,0,1,1444.589-147.106Zm.015-.5a.439.439,0,0,0,.359.148.357.357,0,0,0,.306-.311.378.378,0,0,0-.14-.279A1.364,1.364,0,0,0,1444.6-147.609Z" transform="translate(-1392.461 159.817)" fill="#fff"/>
        <path id="Tracé_364" data-name="Tracé 364" d="M1438.466-135.352a1.076,1.076,0,0,1-.44-.367.213.213,0,0,1,0-.247,1.53,1.53,0,0,1,.852-.579.375.375,0,0,1,.371-.02.64.64,0,0,1,.356.591.767.767,0,0,1-.724.7A.893.893,0,0,1,1438.466-135.352Zm.014-.491a.536.536,0,0,0,.376.146.347.347,0,0,0,.325-.292.232.232,0,0,0-.093-.18.221.221,0,0,1-.07.03A1.1,1.1,0,0,0,1438.48-135.843Zm.492-.5h0Z" transform="translate(-1388.01 151.223)" fill="#fff"/>
        <path id="Tracé_365" data-name="Tracé 365" d="M1420.057-148.468l-.025-.011a.212.212,0,0,1-.117-.167,1.411,1.411,0,0,1,.414-1.155.213.213,0,0,1,.222-.047.815.815,0,0,1,.456.43.712.712,0,0,1,.021.555.724.724,0,0,1-.418.4A.727.727,0,0,1,1420.057-148.468Zm.467-.91a1.01,1.01,0,0,0-.19.544.342.342,0,0,0,.126-.023.3.3,0,0,0,.175-.162.3.3,0,0,0-.014-.226A.392.392,0,0,0,1420.524-149.379Z" transform="translate(-1374.928 160.818)" fill="#fff"/>
        <path id="Tracé_366" data-name="Tracé 366" d="M1414.383-125.121a.767.767,0,0,1-.4-.4.212.212,0,0,1,0-.154,1.343,1.343,0,0,1,.758-.78.505.505,0,0,1,.638.195.855.855,0,0,1-.076,1,.8.8,0,0,1-.723.2A.889.889,0,0,1,1414.383-125.121Zm.029-.5a.406.406,0,0,0,.243.139.374.374,0,0,0,.34-.084.444.444,0,0,0,.021-.466c-.029-.045-.056-.061-.126-.033h0A.916.916,0,0,0,1414.413-125.618Zm.4-.641h0Z" transform="translate(-1370.627 143.913)" fill="#fff"/>
        <path id="Tracé_367" data-name="Tracé 367" d="M1432.066-123.211a.956.956,0,0,1-.476-.469.213.213,0,0,1,.021-.214,1.992,1.992,0,0,1,.875-.676h0a.448.448,0,0,1,.449.078.79.79,0,0,1,.273.691.809.809,0,0,1-.777.666A.862.862,0,0,1,1432.066-123.211Zm-.024-.542a.5.5,0,0,0,.38.192.385.385,0,0,0,.365-.3.379.379,0,0,0-.081-.261.139.139,0,0,0-.064-.052h0A1.566,1.566,0,0,0,1432.042-123.753Zm.522-.62h0Z" transform="translate(-1383.368 142.538)" fill="#fff"/>
        <path id="Tracé_368" data-name="Tracé 368" d="M1400.372,74.354a1.1,1.1,0,0,1,.537-.427.212.212,0,0,1,.227.052,3.837,3.837,0,0,1,.53.7,15.516,15.516,0,0,1,3.915.985,20.749,20.749,0,0,1,5.273,3.229,29.641,29.641,0,0,1,6.7,7.459,19.808,19.808,0,0,1,3.069,9.358.213.213,0,1,1-.425.022c-.307-5.843-3.81-11.86-9.612-16.508a20.344,20.344,0,0,0-5.164-3.166,15.047,15.047,0,0,0-3.708-.945.7.7,0,0,1-.168.332.727.727,0,0,1-.616.252.843.843,0,0,1-.712-.891A.941.941,0,0,1,1400.372,74.354Zm.561.032a.6.6,0,0,0-.29.445.425.425,0,0,0,.334.44.311.311,0,0,0,.252-.111.249.249,0,0,0,.068-.21.207.207,0,0,1,0-.072A3.43,3.43,0,0,0,1400.932,74.386Z" transform="translate(-1360.68 -1.108)" fill="#fff"/>
        <path id="Tracé_369" data-name="Tracé 369" d="M1410.982,70.195a.213.213,0,0,1,.243-.087,5.738,5.738,0,0,1,2.719,1.876,2.917,2.917,0,0,1,.534.941,3.868,3.868,0,0,1,.083,1.433.214.214,0,0,1-.049.122,3.274,3.274,0,0,1-2.254,1.01,9.872,9.872,0,0,1-2.459-.21.213.213,0,0,1,.072-.419,9.556,9.556,0,0,0,2.353.205,2.908,2.908,0,0,0,1.918-.809,3.3,3.3,0,0,0-.07-1.2,2.506,2.506,0,0,0-.461-.8,5.3,5.3,0,0,0-2.516-1.736.213.213,0,0,1-.138-.267A.2.2,0,0,1,1410.982,70.195Z" transform="translate(-1367.486 1.653)" fill="#fff"/>
        <path id="Tracé_370" data-name="Tracé 370" d="M1420.749,83.642a.213.213,0,0,1,.237-.089,4.934,4.934,0,0,0,4.325-.845,4.724,4.724,0,0,0,.4-1.791,2.13,2.13,0,0,0-.593-1.551.213.213,0,1,1,.289-.312,2.552,2.552,0,0,1,.729,1.86,5.2,5.2,0,0,1-.447,2,.216.216,0,0,1-.065.087,5.364,5.364,0,0,1-4.751.956.212.212,0,0,1-.146-.263A.206.206,0,0,1,1420.749,83.642Z" transform="translate(-1375.512 -4.787)" fill="#fff"/>
        <path id="Tracé_371" data-name="Tracé 371" d="M1431.438,89.114a.212.212,0,0,1,.149-.095l.059-.006,1.979-.155a3.71,3.71,0,0,0,1.867-.961,5.216,5.216,0,0,0,.66-2.107,3.841,3.841,0,0,0-.128-1.081,5.483,5.483,0,0,0-.286-.844.213.213,0,0,1,.39-.168,5.916,5.916,0,0,1,.308.91,4.262,4.262,0,0,1,.14,1.2,5.674,5.674,0,0,1-.727,2.325.216.216,0,0,1-.057.07,4.117,4.117,0,0,1-2.135,1.081l-1.98.154-.032,0a.213.213,0,0,1-.208-.326Z" transform="translate(-1383.246 -8.094)" fill="#fff"/>
        <path id="Tracé_372" data-name="Tracé 372" d="M1452.578,87.756a.869.869,0,0,1,.361-.318.6.6,0,0,1,.543.006.212.212,0,0,1,.111.16,2.04,2.04,0,0,1-.081.886,3.829,3.829,0,0,1,.477,2.527,9.594,9.594,0,0,1-.747,2.314.213.213,0,0,1-.392-.165,9.262,9.262,0,0,0,.718-2.209,3.414,3.414,0,0,0-.359-2.135l-.04.015a.535.535,0,0,1-.5-.084.727.727,0,0,1-.206-.728A.844.844,0,0,1,1452.578,87.756Zm.606.048a.257.257,0,0,0-.068.021.456.456,0,0,0-.239.3.325.325,0,0,0,.061.3.1.1,0,0,0,.07.015.078.078,0,0,0,.046-.017.21.21,0,0,1,.069-.112A1.62,1.62,0,0,0,1453.183,87.8Z" transform="translate(-1398.469 -10.849)" fill="#fff"/>
        <path id="Tracé_373" data-name="Tracé 373" d="M1443.958,80.149a.774.774,0,0,1,.145-.166.911.911,0,0,1,1.042-.075.211.211,0,0,1,.1.148,1.53,1.53,0,0,1-.218,1.05.193.193,0,0,1-.021.027.639.639,0,0,1-.529.214.706.706,0,0,1-.536-.318A.826.826,0,0,1,1443.958,80.149Zm.878.081a.477.477,0,0,0-.456.075.4.4,0,0,0-.083.493.284.284,0,0,0,.212.125.207.207,0,0,0,.169-.062A1.1,1.1,0,0,0,1444.836,80.23Z" transform="translate(-1392.233 -5.352)" fill="#fff"/>
        <path id="Tracé_374" data-name="Tracé 374" d="M1427.52,101.012a.885.885,0,0,1,.464-.36.212.212,0,0,1,.2.036,1.787,1.787,0,0,1,.6.913h0a.4.4,0,0,1-.108.384.789.789,0,0,1-.689.219.775.775,0,0,1-.6-.786A.813.813,0,0,1,1427.52,101.012Zm.494.094a.439.439,0,0,0-.2.331.356.356,0,0,0,.259.351.378.378,0,0,0,.3-.095A1.36,1.36,0,0,0,1428.015,101.106Z" transform="translate(-1380.34 -20.449)" fill="#fff"/>
        <path id="Tracé_375" data-name="Tracé 375" d="M1417.144,93.167a1.075,1.075,0,0,1,.431-.377.213.213,0,0,1,.244.04,1.531,1.531,0,0,1,.438.932.375.375,0,0,1-.038.37.64.64,0,0,1-.639.259.767.767,0,0,1-.577-.825A.892.892,0,0,1,1417.144,93.167Zm.483.091a.536.536,0,0,0-.2.349.348.348,0,0,0,.237.367.234.234,0,0,0,.193-.064.216.216,0,0,1-.018-.074A1.1,1.1,0,0,0,1417.627,93.258Zm.421.565h0Z" transform="translate(-1372.823 -14.751)" fill="#fff"/>
        <path id="Tracé_376" data-name="Tracé 376" d="M1432.844,76.884l.015-.022a.212.212,0,0,1,.184-.09,1.412,1.412,0,0,1,1.076.591.212.212,0,0,1,.012.227.815.815,0,0,1-.5.383.713.713,0,0,1-.552-.066.748.748,0,0,1-.239-1.023Zm.826.6a1.01,1.01,0,0,0-.507-.273.343.343,0,0,0,0,.128.3.3,0,0,0,.132.2.3.3,0,0,0,.226.022A.4.4,0,0,0,1433.67,77.488Z" transform="translate(-1384.209 -3.176)" fill="#fff"/>
        <path id="Tracé_377" data-name="Tracé 377" d="M1410.521,67.723a.766.766,0,0,1,.459-.336.213.213,0,0,1,.153.021,1.343,1.343,0,0,1,.651.871.505.505,0,0,1-.292.6.855.855,0,0,1-.976-.232.8.8,0,0,1-.084-.746A.892.892,0,0,1,1410.521,67.723Zm.485.107a.409.409,0,0,0-.175.218.375.375,0,0,0,.029.349.446.446,0,0,0,.457.094c.048-.022.068-.046.052-.119h0A.915.915,0,0,0,1411.007,67.83Zm.571.5h0Z" transform="translate(-1368.032 3.619)" fill="#fff"/>
        <path id="Tracé_378" data-name="Tracé 378" d="M1405.814,84.914a.955.955,0,0,1,.538-.4.212.212,0,0,1,.208.054,1.988,1.988,0,0,1,.531.97h0a.448.448,0,0,1-.147.431.79.79,0,0,1-.725.162.809.809,0,0,1-.536-.872A.86.86,0,0,1,1405.814,84.914Zm.539.062a.5.5,0,0,0-.25.345.385.385,0,0,0,.241.408.378.378,0,0,0,.27-.039.137.137,0,0,0,.061-.055h0A1.563,1.563,0,0,0,1406.353,84.976Zm.53.612h0Z" transform="translate(-1364.629 -8.775)" fill="#fff"/>
      </g>
    </g>
    <path id="Tracé_379" data-name="Tracé 379" d="M1299.047-104.978a42.383,42.383,0,0,1-16.6-3.351,42.506,42.506,0,0,1-13.555-9.139,42.5,42.5,0,0,1-9.139-13.555,42.377,42.377,0,0,1-3.352-16.6,42.378,42.378,0,0,1,3.352-16.6,42.5,42.5,0,0,1,9.139-13.555,42.5,42.5,0,0,1,13.555-9.139,42.379,42.379,0,0,1,16.6-3.352,42.379,42.379,0,0,1,16.6,3.352,42.5,42.5,0,0,1,13.555,9.139,42.5,42.5,0,0,1,9.139,13.555,42.378,42.378,0,0,1,3.351,16.6,42.377,42.377,0,0,1-3.351,16.6,42.5,42.5,0,0,1-9.139,13.555,42.506,42.506,0,0,1-13.555,9.139A42.384,42.384,0,0,1,1299.047-104.978Zm0-84.866a42.268,42.268,0,0,0-42.22,42.22,42.268,42.268,0,0,0,42.22,42.22,42.268,42.268,0,0,0,42.221-42.22A42.268,42.268,0,0,0,1299.047-189.844Z" transform="translate(-33.001 -9.468)" fill="#fff"/>
    <path id="Tracé_380" data-name="Tracé 380" d="M1289.578-110.83a45.974,45.974,0,0,1-18.007-3.635,46.11,46.11,0,0,1-14.7-9.914,46.109,46.109,0,0,1-9.914-14.7,45.974,45.974,0,0,1-3.636-18.008,45.973,45.973,0,0,1,3.636-18.007,46.11,46.11,0,0,1,9.914-14.7,46.1,46.1,0,0,1,14.7-9.914,45.974,45.974,0,0,1,18.007-3.636,45.974,45.974,0,0,1,18.008,3.636,46.106,46.106,0,0,1,14.7,9.914,46.108,46.108,0,0,1,9.914,14.7,45.973,45.973,0,0,1,3.636,18.007,45.974,45.974,0,0,1-3.636,18.008,46.107,46.107,0,0,1-9.914,14.7,46.112,46.112,0,0,1-14.7,9.914A45.974,45.974,0,0,1,1289.578-110.83Zm0-92.1a45.889,45.889,0,0,0-45.837,45.837,45.889,45.889,0,0,0,45.837,45.837,45.889,45.889,0,0,0,45.837-45.837A45.889,45.889,0,0,0,1289.578-202.929Z" transform="translate(-23.532)" fill="#fff"/>
    <path id="Tracé_381" data-name="Tracé 381" d="M1232.966,151.116a11.219,11.219,0,0,1-11.226,11.164,11.18,11.18,0,1,1,11.226-11.164Zm-2.791,0c0-6.46-3.011-10.881-8.122-10.881-5.143,0-8.435,4.421-8.435,10.881,0,6.429,2.884,10.85,8,10.85S1230.175,157.544,1230.175,151.116Z" transform="translate(0 -248.396)" fill="#fff"/>
    <path id="Tracé_382" data-name="Tracé 382" d="M1285.852,140.4v.313c0,1.353-.034,14.056-.034,14.056h-2.35s.03-11.109.03-14.37v-1.7c0-4.859-1.255-7.024-3.416-7.024a16.843,16.843,0,0,0-3.321.446v-2.26c.1,0,.208,0,.31,0,3.416,0,7.621,4.013,8.593,8.842C1285.769,139.182,1285.852,140.4,1285.852,140.4Z" transform="translate(-47.733 -241.119)" fill="#fff"/>
    <path id="Tracé_383" data-name="Tracé 383" d="M1325.2,163.138l-.484,1.18-1.375,3.356a.03.03,0,0,0,0-.006l0,.006,0,.014c-.022.075-.045.139-.065.2s-.057.111-.087.165l0,.01-.8,1.948-.329.8-2.13,5.214-.235.571-.242.57-.055.129-.619,1.516-.819,2s0,0,0,.006c-.024.073-.2.549-.483,1.177,0,0,0,.008,0,.01a12.523,12.523,0,0,1-1.214,2.14,5.057,5.057,0,0,1-.87.952,6.49,6.49,0,0,1-4.075,2.154,4.322,4.322,0,0,1-2.41-.66l1.545-1.5a3.411,3.411,0,0,0,2.317.862,3.968,3.968,0,0,0,2.456-1.116l0,0c.177-.153.345-.314.507-.478a.011.011,0,0,1,.006-.01,12.39,12.39,0,0,0,1.889-3.3c.041-.1.083-.2.125-.307l.87-2.148-7.214-15.268c-.067-.161-.135-.311-.2-.456h2.315l6.257,12.854.125-.311,1.855-4.6,1.163-2.917.024-.065.3-.765.026-.064.006-.01.046-.123.022-.048,0-.014a2.518,2.518,0,0,0,.134-.836,15.914,15.914,0,0,0-.422-3.133h2.258l-.124.305Z" transform="translate(-70.99 -264.973)" fill="#fff"/>
    <path id="Tracé_384" data-name="Tracé 384" d="M1399.8,168.178v9.7h-2.35V167.865c-.034-3.888-1.882-5.109-3.8-5.109-1.888,0-3.15.778-4.546,2.6a10.66,10.66,0,0,1,.336,2.818v9.7h-2.35V167.865c-.034-3.888-1.882-5.109-3.8-5.109-1.97,0-3.258.845-4.729,2.846V177.86h-2.384V162.074h2.384v3.111c1.589-2.1,3.368-3.37,5.764-3.37a4.445,4.445,0,0,1,4.693,3.243c1.565-2.026,3.318-3.243,5.666-3.243C1397.512,161.815,1399.8,163.255,1399.8,168.178Z" transform="translate(-119.676 -264.239)" fill="#fff"/>
    <path id="Tracé_385" data-name="Tracé 385" d="M1488.88,169.248a9.107,9.107,0,0,1-8.97,8.936,6.942,6.942,0,0,1-3.476-.939v9.208h-2.384V162.176h2.384v2.529a7.758,7.758,0,0,1,5.83-2.825C1485.839,161.88,1488.88,164.922,1488.88,169.248Zm-2.32,1.13c0-3.669-1.946-7.463-5.833-7.463a5.827,5.827,0,0,0-4.293,2.1V175a10.554,10.554,0,0,0,2.381,1.834,5.141,5.141,0,0,0,5.048,0C1485.6,175.811,1486.56,173.612,1486.56,170.378Z" transform="translate(-190.493 -264.286)" fill="#fff"/>
    <path id="Tracé_386" data-name="Tracé 386" d="M1552.587,170.715a14.254,14.254,0,0,1-4.769,5.947c-.064.043-.133.088-.2.126a8.678,8.678,0,0,1-9.3,0,7.216,7.216,0,0,1-3.111-6.172,9.239,9.239,0,0,1,8.034-8.745,9.417,9.417,0,0,1,1.768,0h.005a6.27,6.27,0,0,1,2.042.567c.047.021.092.045.137.069s.113.057.169.09a4.49,4.49,0,0,1,.534.346.036.036,0,0,1,.015.01,3.983,3.983,0,0,1,.827.851.126.126,0,0,1,.015.023,5.231,5.231,0,0,1,.95,2.766c0,.017,0,.034,0,.053v.009c.015.293-.028,1.515-1.8,1.515h-10.748a10.727,10.727,0,0,0-.075,1.274c0,3.857,3.356,6.868,7.589,6.868,3.656,0,5.939-2.15,7.642-5.6Zm-15.391-2.751h8.9a.919.919,0,0,0,.921-.917v-.009a5.423,5.423,0,0,0-.686-2.809.2.2,0,0,1-.016-.024,3.4,3.4,0,0,0-1.375-1.265l-.083-.04c-.084-.039-.165-.073-.246-.105a4.4,4.4,0,0,0-1.56-.269,5.423,5.423,0,0,0-5.392,3.6c0,.011-.01.027-.017.049a6.077,6.077,0,0,0-.2.618h0a4.425,4.425,0,0,0-.212.928v0C1537.22,167.8,1537.209,167.883,1537.2,167.964Z" transform="translate(-234.752 -264.248)" fill="#fff"/>
    <path id="Tracé_387" data-name="Tracé 387" d="M1410.522-43.189a.264.264,0,0,0,.066.066h0a.25.25,0,0,0,.061.025.254.254,0,0,0,.03.012.277.277,0,0,0,.048,0,.227.227,0,0,0,.047,0,.229.229,0,0,0,.03-.012.245.245,0,0,0,.061-.025h0a.254.254,0,0,0,.066-.066.962.962,0,0,0,.1-.208,1.274,1.274,0,0,0,.059-.457,1.5,1.5,0,0,0-.084-.457,1.321,1.321,0,0,0-.1-.208.211.211,0,0,0-.066-.066s0,0,0,0a.23.23,0,0,0-.03-.011.23.23,0,0,0-.043-.016.285.285,0,0,0-.041,0,.263.263,0,0,0-.042,0,.2.2,0,0,0-.043.016c-.01,0-.02.006-.03.011l0,0a.207.207,0,0,0-.066.066,1.4,1.4,0,0,0-.1.208,1.494,1.494,0,0,0-.084.457,1.274,1.274,0,0,0,.059.457,1.051,1.051,0,0,0,.1.207Z" transform="translate(-144.406 -114.863)" fill="#fff"/>
    <path id="Tracé_388" data-name="Tracé 388" d="M1354.13-57.695a.276.276,0,0,1-.244-.147c-.041-.076-.076-.155-.111-.235a1.484,1.484,0,0,0-.171-.32,19.556,19.556,0,0,1-3.986-12.553,29.929,29.929,0,0,1,2.891-12.288c.186-.391.346-.811.5-1.218.167-.436.338-.887.547-1.318,2.909-6.014,1.528-13.031,1.514-13.1a.276.276,0,0,1,.216-.326.275.275,0,0,1,.326.215c.015.072,1.434,7.267-1.558,13.453-.2.409-.366.849-.528,1.274s-.323.848-.519,1.259c-5.046,10.618-2.6,19.705,1.028,24.26a1.927,1.927,0,0,1,.244.442c.029.067.058.133.092.2a.276.276,0,0,1-.114.374A.278.278,0,0,1,1354.13-57.695Z" transform="translate(-100.452 -75.361)" fill="#fff"/>
    <path id="Tracé_389" data-name="Tracé 389" d="M1452.648-57.694a.277.277,0,0,1-.13-.033.276.276,0,0,1-.114-.374c.034-.064.063-.131.092-.2a1.949,1.949,0,0,1,.245-.443c3.628-4.555,6.074-13.641,1.028-24.26-.2-.411-.36-.842-.519-1.259s-.33-.865-.528-1.274c-2.992-6.186-1.572-13.38-1.558-13.453a.276.276,0,0,1,.326-.215.276.276,0,0,1,.216.326c-.014.07-1.4,7.087,1.514,13.1.208.431.38.882.547,1.318.155.407.315.827.5,1.218a29.925,29.925,0,0,1,2.891,12.288,19.555,19.555,0,0,1-3.986,12.553,1.474,1.474,0,0,0-.171.32c-.035.079-.07.159-.111.235A.276.276,0,0,1,1452.648-57.694Z" transform="translate(-173.68 -75.362)" fill="#fff"/>
    <path id="Tracé_390" data-name="Tracé 390" d="M1397.03,4.169l-.035,0a.245.245,0,0,1-.208-.277c2.248-15.723-5.28-17.061-5.356-17.073a.245.245,0,0,1-.2-.279.246.246,0,0,1,.279-.2,6.358,6.358,0,0,1,3.807,2.719c2.267,3.131,2.926,8.146,1.959,14.907A.245.245,0,0,1,1397.03,4.169Z" transform="translate(-130.559 -137.257)" fill="#fff"/>
    <path id="Tracé_391" data-name="Tracé 391" d="M1416.651-13.667a6.357,6.357,0,0,0-3.807,2.719,11.535,11.535,0,0,0-1.729,3.772l.284.957a11.679,11.679,0,0,1,1.816-4.406,6.02,6.02,0,0,1,3.512-2.558.245.245,0,0,0,.2-.279A.245.245,0,0,0,1416.651-13.667Z" transform="translate(-144.952 -137.256)" fill="#fff"/>
    <path id="Tracé_392" data-name="Tracé 392" d="M1397.722-14.309a5.973,5.973,0,0,1,7.762,0,9.778,9.778,0,0,0-3.881,5.847S1400.066-13.042,1397.722-14.309Z" transform="translate(-135.262 -135.735)" fill="#fff"/>
  </g>
</svg>
