<svg id="Groupe_514" data-name="Groupe 514" xmlns="http://www.w3.org/2000/svg" xmlns:xlink="http://www.w3.org/1999/xlink" width="78.2" height="94.081" viewBox="0 0 78.2 94.081">
  <defs>
    <clipPath id="clip-path">
      <rect id="Rectangle_109" data-name="Rectangle 109" width="78.2" height="94.081" fill="none"/>
    </clipPath>
  </defs>
  <g id="Groupe_514-2" data-name="Groupe 514" clip-path="url(#clip-path)">
    <path id="Tracé_587" data-name="Tracé 587" d="M149.816,138.891l.011.051.125.181a1.7,1.7,0,0,0,.427.427l.064.041a1.656,1.656,0,0,0,.32.147q.06.024.123.044l.122.038.128.009a1.148,1.148,0,0,0,.143,0l.093,0a1.364,1.364,0,0,0,.533-.108,1.657,1.657,0,0,0,.3-.139l.063-.041a1.691,1.691,0,0,0,.43-.429l.028-.042a3.293,3.293,0,0,0,.335-.71,3.917,3.917,0,0,0,.186-1.4,4.5,4.5,0,0,0-.254-1.355,4.085,4.085,0,0,0-.3-.634l-.014-.024a1.6,1.6,0,0,0-.494-.5l-.131-.072c-.044-.02-.088-.038-.133-.054a1.706,1.706,0,0,0-.2-.069l-.115-.032-.119-.007a1.531,1.531,0,0,0-.158,0,1.746,1.746,0,0,0-.18,0l-.1.008-.1.027a1.607,1.607,0,0,0-.224.078l-.091.036-.077.033-.072.045a1.593,1.593,0,0,0-.5.5l-.018.031a4.184,4.184,0,0,0-.306.65,4.4,4.4,0,0,0-.248,1.339,3.945,3.945,0,0,0,.193,1.415,3.413,3.413,0,0,0,.22.5" transform="translate(-112.229 -100.823)" fill="#fff"/>
    <path id="Tracé_588" data-name="Tracé 588" d="M10.842,34.622c.36-.953.717-1.88,1.129-2.736,6.8-14.06,3.568-30.307,3.535-30.467a1.731,1.731,0,1,0-3.392.693c.031.152,3,15.318-3.26,28.266-.489,1.014-.891,2.07-1.247,3-.316.828-.675,1.767-1.075,2.614a66.851,66.851,0,0,0-6.5,27.621A44.489,44.489,0,0,0,9.064,92.084a2.138,2.138,0,0,1,.239.45l.016.04c.1.223.182.411.283.6a1.743,1.743,0,0,0,.156.243l-.267.686h1.637a1.738,1.738,0,0,0,.813-.2,1.731,1.731,0,0,0,.709-2.352c-.045-.082-.091-.188-.141-.3l-.013-.03a5.4,5.4,0,0,0-.674-1.213l-.025-.032C3.974,80.155-1.28,60.517,9.66,37.491c.452-.953.817-1.9,1.182-2.868" transform="translate(0 -0.024)" fill="#fff"/>
    <path id="Tracé_589" data-name="Tracé 589" d="M265.029,63.6a66.886,66.886,0,0,0-6.5-27.641c-.392-.825-.738-1.732-1.076-2.616l-.054-.14c-.361-.94-.734-1.912-1.193-2.861-6.263-12.953-3.29-28.112-3.258-28.268a1.731,1.731,0,0,0-3.39-.706c-.035.16-3.3,16.354,3.53,30.478.411.857.767,1.789,1.112,2.691l.074.194c.342.9.7,1.822,1.127,2.724,10.942,23.021,5.687,42.66-2.138,52.483l-.026.034a5.476,5.476,0,0,0-.672,1.208l-.022.05c-.044.1-.086.2-.139.295a1.731,1.731,0,0,0,1.527,2.544h0a1.72,1.72,0,0,0,1.527-.923c.1-.183.175-.359.251-.528l.05-.116A2.166,2.166,0,0,1,256,92.05,44.474,44.474,0,0,0,265.029,63.6" transform="translate(-186.857 0.001)" fill="#fff"/>
    <path id="Tracé_590" data-name="Tracé 590" d="M129.012,206.84l-.037-.629-1.308.325a15.225,15.225,0,0,0-3.414,1.3,14.244,14.244,0,0,0-16.375.027,15.237,15.237,0,0,0-3.457-1.322l-.14-.025a1.661,1.661,0,0,0-.478,3.287c.039.007,3.95.752,7.229,5.545,5.552,8.114,5.075,21.313,3.7,30.956a1.664,1.664,0,0,0,1.407,1.881l.074.008c.041,0,.082,0,.124,0l.08,0a1.653,1.653,0,0,0,1.6-1.422c1.366-9.549,1.276-17.577-.258-24.008a24.566,24.566,0,0,1,3.5-7.784l.015-.022a12.173,12.173,0,0,1,7.083-5.172,1.662,1.662,0,0,0,.654-2.946M104.2,207.6l.018,0-.018,0Z" transform="translate(-76.944 -154.192)" fill="#fff"/>
  </g>
</svg>
