<svg id="Groupe_507" data-name="Groupe 507" xmlns="http://www.w3.org/2000/svg" xmlns:xlink="http://www.w3.org/1999/xlink" width="73.434" height="93.246" viewBox="0 0 73.434 93.246">
  <defs>
    <clipPath id="clip-path">
      <rect id="Rectangle_106" data-name="Rectangle 106" width="73.434" height="93.246" fill="none"/>
    </clipPath>
  </defs>
  <g id="Groupe_506" data-name="Groupe 506" clip-path="url(#clip-path)">
    <path id="Tracé_571" data-name="Tracé 571" d="M60.7,89.628a1.413,1.413,0,0,0,2.414,1.059l.033-.032,4.385-4.131v18.741a1.416,1.416,0,0,0,1.407,1.4h32.434a1.416,1.416,0,0,0,1.418-1.408V86.524l4.419,4.164a1.413,1.413,0,1,0,1.94-2.054l-.032-.029L86.129,66.933a1.424,1.424,0,0,0-1.028-.389h0a1.418,1.418,0,0,0-.91.387l-23.021,21.7a1.418,1.418,0,0,0-.474.994m28.108,14.212H81.493V91.606h7.312ZM70.356,83.86,85.163,69.907l14.8,13.953v19.981H91.631V90.2a1.416,1.416,0,0,0-1.408-1.424H80.091a1.421,1.421,0,0,0-1.01.414,1.4,1.4,0,0,0-.414,1v13.643H70.356Z" transform="translate(-48.446 -53.112)" fill="#fff"/>
    <path id="Tracé_572" data-name="Tracé 572" d="M0,36.717c0,11.227,9.626,25,18.012,35.737A255.9,255.9,0,0,0,35.836,92.829a1.412,1.412,0,0,0,2,0,254.937,254.937,0,0,0,17.7-20.372c8.331-10.746,17.894-24.521,17.894-35.74A36.717,36.717,0,1,0,0,36.717M36.717,2.826A33.846,33.846,0,0,1,70.6,36.717c0,3.983-1.822,9.388-5.415,16.065A135.044,135.044,0,0,1,53.308,70.729,195.422,195.422,0,0,1,38.188,88.146L36.82,89.554l-1.314-1.343a200.667,200.667,0,0,1-15.279-17.5A134.7,134.7,0,0,1,8.272,52.77C4.658,46.1,2.826,40.7,2.826,36.717A33.851,33.851,0,0,1,36.717,2.826" fill="#fff"/>
  </g>
</svg>
