<svg xmlns="http://www.w3.org/2000/svg" width="25.001" height="25" viewBox="0 0 25.001 25">
  <path id="Tracé_256" data-name="Tracé 256" d="M899.35,250.866l-1.4-1.4,1.276-1.276a.738.738,0,0,0-1.044-1.044l-1.276,1.276-6.462-6.462a9.011,9.011,0,0,0-.5-12.2h0a9.007,9.007,0,1,0-.541,13.242l6.462,6.462-1.276,1.276a.738.738,0,1,0,1.044,1.044l1.276-1.276,1.4,1.4a.738.738,0,1,0,1.044-1.044Zm-21.106-9.4A7.535,7.535,0,1,1,888.9,230.809h0a7.535,7.535,0,0,1-10.656,10.656Z" transform="translate(-874.565 -227.126)" fill="#464646"/>
</svg>
